<?xml version="1.0"?>
 <!-- Generator: Adobe Illustrator 26.3.1, SVG Export Plug-In . SVG Version: 6.00 Build 0) --> <svg version="1.1" id="Layer_1" x="0px" y="0px" viewBox="0 0 674.75002 481.54998" xml:space="preserve" sodipodi:docname="best_model.svg" width="674.75" height="481.54999" inkscape:version="1.3 (0e150ed6c4, 2023-07-21)" xmlns:inkscape="http://www.inkscape.org/namespaces/inkscape" xmlns:sodipodi="http://sodipodi.sourceforge.net/DTD/sodipodi-0.dtd" xmlns="http://www.w3.org/2000/svg" xmlns:svg="http://www.w3.org/2000/svg"><defs id="defs264"></defs>
<style type="text/css" id="style1">
 .st0{fill:#303030;}
 .st1{enable-background:new ;}
 .st2{fill:#FFFFFF;}
 .st3{fill:none;stroke:#FFFFFF;}
 .st4{opacity:0.25;fill:none;stroke:#FFFFFF;stroke-miterlimit:10;}
 .st5{opacity:0.25;fill:none;stroke:#FFFFFF;enable-background:new ;}
 .st6{fill:none;stroke:#FFFFFF;stroke-width:1.5;}
 .st7{fill:none;}
 .st8{fill:none;stroke:#DD3440;stroke-width:2;}
</style>

<g id="g10" transform="translate(-383.33,239.2)">
 <g class="st1" id="g9">
 <path class="st2" d="m 743.06,25.28 h 3.82 v 1.31 h -5.53 v -8.53 h 1.71 z" id="path1"></path>
 <path class="st2" d="m 747.63,23.37 c 0,-0.95 0.26,-1.72 0.79,-2.32 0.53,-0.6 1.26,-0.91 2.19,-0.91 0.94,0 1.67,0.3 2.2,0.9 0.53,0.6 0.8,1.38 0.8,2.33 v 0.12 c 0,0.95 -0.26,1.73 -0.79,2.33 -0.53,0.6 -1.26,0.9 -2.19,0.9 -0.94,0 -1.67,-0.3 -2.2,-0.9 -0.53,-0.6 -0.79,-1.38 -0.79,-2.33 v -0.12 z m 1.7,0.12 c 0,0.58 0.1,1.04 0.3,1.39 0.2,0.35 0.53,0.52 0.98,0.52 0.44,0 0.76,-0.18 0.97,-0.53 0.21,-0.35 0.31,-0.81 0.31,-1.39 v -0.12 c 0,-0.56 -0.1,-1.02 -0.31,-1.38 -0.21,-0.36 -0.53,-0.53 -0.98,-0.53 -0.44,0 -0.76,0.18 -0.97,0.54 -0.21,0.36 -0.31,0.82 -0.31,1.37 v 0.13 z" id="path2"></path>
 <path class="st2" d="m 758.09,24.84 c 0,-0.19 -0.09,-0.35 -0.27,-0.48 -0.18,-0.13 -0.52,-0.25 -1.01,-0.35 -0.74,-0.15 -1.31,-0.37 -1.69,-0.67 -0.38,-0.3 -0.58,-0.71 -0.58,-1.22 0,-0.54 0.23,-1.01 0.69,-1.39 0.46,-0.38 1.07,-0.57 1.84,-0.57 0.8,0 1.44,0.19 1.92,0.57 0.48,0.38 0.71,0.86 0.69,1.43 l -0.01,0.04 h -1.65 c 0,-0.25 -0.08,-0.46 -0.25,-0.62 -0.17,-0.16 -0.4,-0.24 -0.71,-0.24 -0.27,0 -0.49,0.07 -0.65,0.21 -0.16,0.14 -0.24,0.3 -0.24,0.5 0,0.2 0.08,0.35 0.25,0.48 0.17,0.13 0.5,0.23 1.01,0.33 0.78,0.16 1.36,0.39 1.74,0.69 0.38,0.3 0.57,0.72 0.57,1.25 0,0.57 -0.24,1.04 -0.73,1.4 -0.49,0.36 -1.13,0.54 -1.93,0.54 -0.84,0 -1.51,-0.21 -2,-0.64 -0.49,-0.43 -0.72,-0.92 -0.7,-1.46 l 0.01,-0.04 h 1.56 c 0.01,0.34 0.12,0.59 0.33,0.74 0.21,0.15 0.49,0.23 0.83,0.23 0.32,0 0.56,-0.06 0.72,-0.19 0.16,-0.13 0.26,-0.32 0.26,-0.54 z" id="path3"></path>
 <path class="st2" d="m 764.28,24.84 c 0,-0.19 -0.09,-0.35 -0.27,-0.48 -0.18,-0.13 -0.52,-0.25 -1.01,-0.35 -0.74,-0.15 -1.31,-0.37 -1.69,-0.67 -0.38,-0.3 -0.58,-0.71 -0.58,-1.22 0,-0.54 0.23,-1.01 0.69,-1.39 0.46,-0.38 1.07,-0.57 1.84,-0.57 0.8,0 1.44,0.19 1.92,0.57 0.48,0.38 0.71,0.86 0.69,1.43 l -0.01,0.04 h -1.65 c 0,-0.25 -0.08,-0.46 -0.25,-0.62 -0.17,-0.16 -0.4,-0.24 -0.71,-0.24 -0.27,0 -0.49,0.07 -0.65,0.21 -0.16,0.14 -0.24,0.3 -0.24,0.5 0,0.2 0.08,0.35 0.25,0.48 0.17,0.13 0.5,0.23 1.01,0.33 0.78,0.16 1.36,0.39 1.74,0.69 0.38,0.3 0.57,0.72 0.57,1.25 0,0.57 -0.24,1.04 -0.73,1.4 -0.49,0.36 -1.13,0.54 -1.93,0.54 -0.84,0 -1.51,-0.21 -2,-0.64 -0.49,-0.43 -0.72,-0.92 -0.7,-1.46 l 0.01,-0.04 h 1.56 c 0.01,0.34 0.12,0.59 0.33,0.74 0.21,0.15 0.49,0.23 0.83,0.23 0.32,0 0.56,-0.06 0.72,-0.19 0.16,-0.13 0.26,-0.32 0.26,-0.54 z" id="path4"></path>
 <path class="st2" d="m 771.72,27.88 h -5.33 V 26.6 h 5.33 z" id="path5"></path>
 <path class="st2" d="m 774.44,18.7 v 1.55 h 1.07 v 1.2 h -1.07 v 3.23 c 0,0.25 0.05,0.42 0.16,0.53 0.11,0.11 0.24,0.16 0.41,0.16 0.09,0 0.17,0 0.23,-0.01 0.06,-0.01 0.14,-0.03 0.23,-0.05 l 0.14,1.24 c -0.17,0.06 -0.34,0.1 -0.5,0.13 -0.16,0.03 -0.34,0.04 -0.53,0.04 -0.59,0 -1.04,-0.16 -1.36,-0.49 -0.32,-0.33 -0.48,-0.84 -0.48,-1.54 v -3.23 h -0.93 v -1.2 h 0.93 V 18.7 Z" id="path6"></path>
 <path class="st2" d="m 779.32,26.72 c -0.95,0 -1.68,-0.29 -2.21,-0.87 -0.53,-0.58 -0.8,-1.33 -0.8,-2.24 v -0.23 c 0,-0.95 0.26,-1.73 0.77,-2.33 0.51,-0.6 1.22,-0.91 2.13,-0.9 0.85,0 1.5,0.26 1.96,0.78 0.46,0.52 0.68,1.22 0.68,2.11 v 0.88 h -3.78 l -0.02,0.04 c 0.03,0.43 0.16,0.79 0.4,1.05 0.24,0.26 0.59,0.4 1.05,0.4 0.38,0 0.71,-0.04 0.98,-0.12 0.27,-0.08 0.54,-0.2 0.83,-0.36 l 0.46,1.05 c -0.25,0.21 -0.6,0.38 -1.03,0.52 -0.43,0.14 -0.91,0.22 -1.42,0.22 z m -0.11,-5.26 c -0.34,0 -0.61,0.12 -0.79,0.35 -0.18,0.23 -0.3,0.55 -0.34,0.94 l 0.01,0.03 h 2.09 v -0.13 c 0,-0.37 -0.08,-0.66 -0.23,-0.88 -0.15,-0.22 -0.4,-0.31 -0.74,-0.31 z" id="path7"></path>
 <path class="st2" d="m 786.27,24.84 c 0,-0.19 -0.09,-0.35 -0.27,-0.48 -0.18,-0.13 -0.52,-0.25 -1.01,-0.35 -0.74,-0.15 -1.31,-0.37 -1.69,-0.67 -0.38,-0.3 -0.58,-0.71 -0.58,-1.22 0,-0.54 0.23,-1.01 0.69,-1.39 0.46,-0.38 1.07,-0.57 1.84,-0.57 0.8,0 1.44,0.19 1.92,0.57 0.48,0.38 0.71,0.86 0.69,1.43 l -0.01,0.04 h -1.65 c 0,-0.25 -0.08,-0.46 -0.25,-0.62 -0.17,-0.16 -0.4,-0.24 -0.71,-0.24 -0.27,0 -0.49,0.07 -0.65,0.21 -0.16,0.14 -0.24,0.3 -0.24,0.5 0,0.2 0.08,0.35 0.25,0.48 0.17,0.13 0.5,0.23 1.01,0.33 0.78,0.16 1.36,0.39 1.74,0.69 0.38,0.3 0.57,0.72 0.57,1.25 0,0.57 -0.24,1.04 -0.73,1.4 -0.49,0.36 -1.13,0.54 -1.93,0.54 -0.84,0 -1.51,-0.21 -2,-0.64 -0.49,-0.43 -0.72,-0.92 -0.7,-1.46 l 0.01,-0.04 h 1.56 c 0.01,0.34 0.12,0.59 0.33,0.74 0.21,0.15 0.49,0.23 0.83,0.23 0.32,0 0.56,-0.06 0.72,-0.19 0.16,-0.13 0.26,-0.32 0.26,-0.54 z" id="path8"></path>
 <path class="st2" d="m 791.08,18.7 v 1.55 h 1.07 v 1.2 h -1.07 v 3.23 c 0,0.25 0.05,0.42 0.16,0.53 0.11,0.11 0.24,0.16 0.41,0.16 0.09,0 0.17,0 0.23,-0.01 0.06,-0.01 0.14,-0.03 0.23,-0.05 l 0.14,1.24 c -0.17,0.06 -0.34,0.1 -0.5,0.13 -0.16,0.03 -0.34,0.04 -0.53,0.04 -0.59,0 -1.04,-0.16 -1.36,-0.49 -0.32,-0.33 -0.48,-0.84 -0.48,-1.54 v -3.23 h -0.93 v -1.2 h 0.93 V 18.7 Z" id="path9"></path>
 </g>
</g>
<g id="g20" transform="translate(-383.33,239.2)">
 <g class="st1" id="g19">
 <path class="st2" d="m 390.03,26.49 h 3.82 v 1.31 h -5.53 v -8.53 h 1.71 z" id="path10"></path>
 <path class="st2" d="m 394.6,24.58 c 0,-0.95 0.26,-1.72 0.79,-2.32 0.53,-0.6 1.26,-0.91 2.19,-0.91 0.94,0 1.67,0.3 2.2,0.9 0.53,0.6 0.8,1.38 0.8,2.33 v 0.12 c 0,0.95 -0.26,1.73 -0.79,2.33 -0.53,0.6 -1.26,0.9 -2.19,0.9 -0.94,0 -1.67,-0.3 -2.2,-0.9 -0.53,-0.6 -0.79,-1.38 -0.79,-2.33 v -0.12 z m 1.7,0.12 c 0,0.58 0.1,1.04 0.3,1.39 0.2,0.35 0.53,0.52 0.98,0.52 0.44,0 0.76,-0.18 0.97,-0.53 0.21,-0.35 0.31,-0.81 0.31,-1.39 v -0.12 c 0,-0.56 -0.1,-1.02 -0.31,-1.38 -0.21,-0.36 -0.53,-0.53 -0.98,-0.53 -0.44,0 -0.76,0.18 -0.97,0.54 -0.21,0.36 -0.31,0.82 -0.31,1.37 v 0.13 z" id="path11"></path>
 <path class="st2" d="m 405.06,26.05 c 0,-0.19 -0.09,-0.35 -0.27,-0.48 -0.18,-0.13 -0.52,-0.25 -1.01,-0.35 -0.74,-0.15 -1.31,-0.37 -1.69,-0.67 -0.38,-0.3 -0.58,-0.71 -0.58,-1.22 0,-0.54 0.23,-1.01 0.69,-1.39 0.46,-0.38 1.07,-0.57 1.84,-0.57 0.8,0 1.44,0.19 1.92,0.57 0.48,0.38 0.71,0.86 0.69,1.43 l -0.01,0.04 H 405 c 0,-0.25 -0.08,-0.46 -0.25,-0.62 -0.17,-0.16 -0.4,-0.24 -0.71,-0.24 -0.27,0 -0.49,0.07 -0.65,0.21 -0.16,0.14 -0.24,0.3 -0.24,0.5 0,0.2 0.08,0.35 0.25,0.48 0.17,0.13 0.5,0.23 1.01,0.33 0.78,0.16 1.36,0.39 1.74,0.69 0.38,0.3 0.57,0.72 0.57,1.25 0,0.57 -0.24,1.04 -0.73,1.4 -0.49,0.36 -1.13,0.54 -1.93,0.54 -0.84,0 -1.51,-0.21 -2,-0.64 -0.49,-0.43 -0.72,-0.92 -0.7,-1.46 l 0.01,-0.04 h 1.56 c 0.01,0.34 0.12,0.59 0.33,0.74 0.21,0.15 0.49,0.23 0.83,0.23 0.32,0 0.56,-0.06 0.72,-0.19 0.16,-0.13 0.25,-0.32 0.25,-0.54 z" id="path12"></path>
 <path class="st2" d="m 411.25,26.05 c 0,-0.19 -0.09,-0.35 -0.27,-0.48 -0.18,-0.13 -0.52,-0.25 -1.01,-0.35 -0.74,-0.15 -1.31,-0.37 -1.69,-0.67 -0.38,-0.3 -0.58,-0.71 -0.58,-1.22 0,-0.54 0.23,-1.01 0.69,-1.39 0.46,-0.38 1.07,-0.57 1.84,-0.57 0.8,0 1.44,0.19 1.92,0.57 0.48,0.38 0.71,0.86 0.69,1.43 l -0.01,0.04 h -1.65 c 0,-0.25 -0.08,-0.46 -0.25,-0.62 -0.17,-0.16 -0.4,-0.24 -0.71,-0.24 -0.27,0 -0.49,0.07 -0.65,0.21 -0.16,0.14 -0.24,0.3 -0.24,0.5 0,0.2 0.08,0.35 0.25,0.48 0.17,0.13 0.5,0.23 1.01,0.33 0.78,0.16 1.36,0.39 1.74,0.69 0.38,0.3 0.57,0.72 0.57,1.25 0,0.57 -0.24,1.04 -0.73,1.4 -0.49,0.36 -1.13,0.54 -1.93,0.54 -0.84,0 -1.51,-0.21 -2,-0.64 -0.49,-0.43 -0.72,-0.92 -0.7,-1.46 l 0.01,-0.04 h 1.56 c 0.01,0.34 0.12,0.59 0.33,0.74 0.21,0.15 0.49,0.23 0.83,0.23 0.32,0 0.56,-0.06 0.72,-0.19 0.16,-0.13 0.26,-0.32 0.26,-0.54 z" id="path13"></path>
 <path class="st2" d="m 418.69,29.09 h -5.33 v -1.28 h 5.33 z" id="path14"></path>
 <path class="st2" d="m 421.42,19.91 v 1.55 h 1.07 v 1.2 h -1.07 v 3.23 c 0,0.25 0.05,0.42 0.16,0.53 0.11,0.11 0.24,0.16 0.41,0.16 0.09,0 0.17,0 0.23,-0.01 0.06,-0.01 0.14,-0.03 0.23,-0.05 l 0.14,1.24 c -0.17,0.06 -0.34,0.1 -0.5,0.13 -0.16,0.03 -0.34,0.04 -0.53,0.04 -0.59,0 -1.04,-0.16 -1.36,-0.49 -0.32,-0.33 -0.48,-0.84 -0.48,-1.54 v -3.23 h -0.93 v -1.2 h 0.93 v -1.55 h 1.7 z" id="path15"></path>
 <path class="st2" d="m 426.88,22.94 -0.63,-0.02 c -0.25,0 -0.46,0.05 -0.63,0.16 -0.17,0.11 -0.29,0.25 -0.38,0.45 v 4.28 h -1.71 v -6.34 h 1.59 l 0.08,0.94 c 0.15,-0.33 0.34,-0.59 0.58,-0.78 0.24,-0.19 0.51,-0.28 0.82,-0.28 0.09,0 0.17,0.01 0.24,0.02 0.07,0.01 0.15,0.03 0.22,0.05 z" id="path16"></path>
 <path class="st2" d="m 431.51,27.81 c -0.06,-0.14 -0.12,-0.3 -0.16,-0.46 -0.04,-0.16 -0.08,-0.32 -0.1,-0.49 -0.18,0.31 -0.41,0.56 -0.7,0.77 -0.29,0.21 -0.63,0.3 -1.03,0.3 -0.66,0 -1.18,-0.17 -1.54,-0.51 -0.36,-0.34 -0.54,-0.81 -0.54,-1.4 0,-0.62 0.24,-1.1 0.72,-1.44 0.48,-0.34 1.18,-0.51 2.09,-0.51 h 0.96 v -0.5 c 0,-0.3 -0.08,-0.54 -0.24,-0.71 -0.16,-0.17 -0.4,-0.25 -0.71,-0.25 -0.28,0 -0.49,0.07 -0.64,0.2 -0.15,0.13 -0.23,0.32 -0.23,0.55 h -1.65 l -0.01,-0.04 c -0.03,-0.54 0.21,-1 0.7,-1.39 0.49,-0.39 1.14,-0.58 1.94,-0.58 0.76,0 1.38,0.19 1.85,0.57 0.47,0.38 0.71,0.93 0.71,1.65 v 2.62 c 0,0.3 0.02,0.58 0.07,0.84 0.05,0.26 0.12,0.52 0.21,0.78 z m -1.57,-1.15 c 0.3,0 0.56,-0.07 0.8,-0.22 0.24,-0.15 0.39,-0.32 0.48,-0.52 v -0.9 h -0.96 c -0.36,0 -0.64,0.09 -0.82,0.27 -0.18,0.18 -0.28,0.4 -0.28,0.66 0,0.21 0.07,0.39 0.21,0.51 0.14,0.12 0.33,0.2 0.57,0.2 z" id="path17"></path>
 <path class="st2" d="m 436.01,19.95 h -1.71 v -1.28 h 1.71 z m 0,7.86 h -1.71 v -6.34 h 1.71 z" id="path18"></path>
 <path class="st2" d="m 438.98,21.47 0.08,0.91 c 0.21,-0.32 0.47,-0.58 0.78,-0.76 0.31,-0.18 0.65,-0.27 1.04,-0.27 0.64,0 1.14,0.21 1.5,0.62 0.36,0.41 0.54,1.06 0.54,1.95 v 3.88 h -1.72 v -3.88 c 0,-0.45 -0.08,-0.77 -0.24,-0.96 -0.16,-0.19 -0.4,-0.28 -0.71,-0.28 -0.25,0 -0.48,0.05 -0.67,0.14 -0.19,0.09 -0.35,0.23 -0.48,0.4 v 4.59 h -1.71 v -6.34 z" id="path19"></path>
 </g>
</g>
<g id="g27" transform="translate(-383.33,239.2)">
 <g class="st1" id="g26">
 <path class="st2" d="m 746.02,-227.9 h -2.77 l -0.57,1.84 h -1.79 l 2.88,-8.53 h 1.75 l 2.87,8.53 h -1.79 z m -2.35,-1.34 h 1.93 l -0.94,-3.01 h -0.04 z" id="path20"></path>
 <path class="st2" d="m 751.73,-227.25 c 0.3,0 0.53,-0.09 0.71,-0.27 0.18,-0.18 0.26,-0.42 0.26,-0.71 h 1.56 l 0.01,0.04 c 0.02,0.64 -0.22,1.18 -0.71,1.61 -0.49,0.43 -1.1,0.65 -1.83,0.65 -0.94,0 -1.66,-0.3 -2.17,-0.9 -0.51,-0.6 -0.77,-1.37 -0.77,-2.3 v -0.18 c 0,-0.93 0.25,-1.7 0.76,-2.3 0.51,-0.6 1.23,-0.91 2.17,-0.91 0.77,0 1.4,0.22 1.87,0.67 0.47,0.45 0.7,1.03 0.69,1.76 l -0.01,0.04 h -1.56 c 0,-0.33 -0.09,-0.6 -0.26,-0.82 -0.17,-0.22 -0.42,-0.33 -0.72,-0.33 -0.44,0 -0.75,0.18 -0.94,0.53 -0.19,0.35 -0.28,0.81 -0.28,1.36 v 0.18 c 0,0.56 0.09,1.02 0.28,1.37 0.19,0.35 0.49,0.51 0.94,0.51 z" id="path21"></path>
 <path class="st2" d="m 757.91,-227.25 c 0.3,0 0.53,-0.09 0.71,-0.27 0.18,-0.18 0.26,-0.42 0.26,-0.71 h 1.56 l 0.01,0.04 c 0.02,0.64 -0.22,1.18 -0.71,1.61 -0.49,0.43 -1.1,0.65 -1.83,0.65 -0.94,0 -1.66,-0.3 -2.17,-0.9 -0.51,-0.6 -0.77,-1.37 -0.77,-2.3 v -0.18 c 0,-0.93 0.25,-1.7 0.76,-2.3 0.51,-0.6 1.23,-0.91 2.17,-0.91 0.77,0 1.4,0.22 1.87,0.67 0.47,0.45 0.7,1.03 0.69,1.76 l -0.01,0.04 h -1.56 c 0,-0.33 -0.09,-0.6 -0.26,-0.82 -0.17,-0.22 -0.42,-0.33 -0.72,-0.33 -0.44,0 -0.75,0.18 -0.94,0.53 -0.19,0.35 -0.28,0.81 -0.28,1.36 v 0.18 c 0,0.56 0.09,1.02 0.28,1.37 0.19,0.35 0.49,0.51 0.94,0.51 z" id="path22"></path>
 <path class="st2" d="m 766.13,-224.78 h -5.33 v -1.28 h 5.33 z" id="path23"></path>
 
 
 
 </g>
</g>
<g id="g36" transform="translate(-383.33,239.2)">
 <g class="st1" id="g35">
 <path class="st2" d="m 392.46,-227.59 h -2.77 l -0.57,1.84 h -1.79 l 2.88,-8.53 h 1.75 l 2.87,8.53 h -1.79 z m -2.35,-1.34 h 1.93 l -0.94,-3.01 h -0.04 z" id="path27"></path>
 <path class="st2" d="m 398.16,-226.94 c 0.3,0 0.53,-0.09 0.71,-0.27 0.18,-0.18 0.26,-0.42 0.26,-0.71 h 1.56 l 0.01,0.04 c 0.02,0.64 -0.22,1.18 -0.71,1.61 -0.49,0.43 -1.1,0.65 -1.83,0.65 -0.94,0 -1.66,-0.3 -2.17,-0.9 -0.51,-0.6 -0.77,-1.37 -0.77,-2.3 V -229 c 0,-0.93 0.25,-1.7 0.76,-2.3 0.51,-0.6 1.23,-0.91 2.17,-0.91 0.77,0 1.4,0.22 1.87,0.67 0.47,0.45 0.7,1.03 0.69,1.76 l -0.01,0.04 h -1.56 c 0,-0.33 -0.09,-0.6 -0.26,-0.82 -0.17,-0.22 -0.42,-0.33 -0.72,-0.33 -0.44,0 -0.75,0.18 -0.94,0.53 -0.19,0.35 -0.28,0.81 -0.28,1.36 v 0.18 c 0,0.56 0.09,1.02 0.28,1.37 0.19,0.35 0.5,0.51 0.94,0.51 z" id="path28"></path>
 <path class="st2" d="m 404.35,-226.94 c 0.3,0 0.53,-0.09 0.71,-0.27 0.18,-0.18 0.26,-0.42 0.26,-0.71 h 1.56 l 0.01,0.04 c 0.02,0.64 -0.22,1.18 -0.71,1.61 -0.49,0.43 -1.1,0.65 -1.83,0.65 -0.94,0 -1.66,-0.3 -2.17,-0.9 -0.51,-0.6 -0.77,-1.37 -0.77,-2.3 V -229 c 0,-0.93 0.25,-1.7 0.76,-2.3 0.51,-0.6 1.23,-0.91 2.17,-0.91 0.77,0 1.4,0.22 1.87,0.67 0.47,0.45 0.7,1.03 0.69,1.76 l -0.01,0.04 h -1.56 c 0,-0.33 -0.09,-0.6 -0.26,-0.82 -0.17,-0.22 -0.42,-0.33 -0.72,-0.33 -0.44,0 -0.75,0.18 -0.94,0.53 -0.19,0.35 -0.28,0.81 -0.28,1.36 v 0.18 c 0,0.56 0.09,1.02 0.28,1.37 0.19,0.35 0.49,0.51 0.94,0.51 z" id="path29"></path>
 <path class="st2" d="m 412.57,-224.47 h -5.33 v -1.28 h 5.33 z" id="path30"></path>
 <path class="st2" d="m 415.3,-233.64 v 1.55 h 1.07 v 1.2 h -1.07 v 3.23 c 0,0.25 0.05,0.42 0.16,0.53 0.11,0.11 0.24,0.16 0.41,0.16 0.09,0 0.17,0 0.23,-0.01 0.06,-0.01 0.14,-0.03 0.23,-0.05 l 0.14,1.24 c -0.17,0.06 -0.34,0.1 -0.5,0.13 -0.16,0.03 -0.34,0.04 -0.53,0.04 -0.59,0 -1.04,-0.16 -1.36,-0.49 -0.32,-0.33 -0.48,-0.84 -0.48,-1.54 v -3.23 h -0.93 v -1.2 h 0.93 v -1.55 h 1.7 z" id="path31"></path>
 <path class="st2" d="m 420.76,-230.62 -0.63,-0.02 c -0.25,0 -0.46,0.05 -0.63,0.16 -0.17,0.11 -0.29,0.25 -0.38,0.45 v 4.28 h -1.71 v -6.34 H 419 l 0.08,0.94 c 0.15,-0.33 0.34,-0.59 0.58,-0.78 0.24,-0.19 0.51,-0.28 0.82,-0.28 0.09,0 0.17,0.01 0.24,0.02 0.07,0.01 0.15,0.03 0.22,0.05 z" id="path32"></path>
 <path class="st2" d="m 425.39,-225.75 c -0.06,-0.14 -0.12,-0.3 -0.16,-0.46 -0.04,-0.16 -0.08,-0.32 -0.1,-0.49 -0.18,0.31 -0.41,0.56 -0.7,0.77 -0.29,0.21 -0.63,0.3 -1.03,0.3 -0.66,0 -1.18,-0.17 -1.54,-0.51 -0.36,-0.34 -0.54,-0.81 -0.54,-1.4 0,-0.62 0.24,-1.1 0.72,-1.44 0.48,-0.34 1.18,-0.51 2.09,-0.51 h 0.96 v -0.5 c 0,-0.3 -0.08,-0.54 -0.24,-0.71 -0.16,-0.17 -0.4,-0.25 -0.71,-0.25 -0.28,0 -0.49,0.07 -0.64,0.2 -0.15,0.13 -0.23,0.32 -0.23,0.55 h -1.65 l -0.01,-0.04 c -0.03,-0.54 0.21,-1 0.7,-1.39 0.49,-0.39 1.14,-0.58 1.94,-0.58 0.76,0 1.38,0.19 1.85,0.57 0.47,0.38 0.71,0.93 0.71,1.65 v 2.62 c 0,0.3 0.02,0.58 0.07,0.84 0.05,0.26 0.12,0.52 0.21,0.78 z m -1.57,-1.14 c 0.3,0 0.56,-0.07 0.8,-0.22 0.24,-0.15 0.39,-0.32 0.48,-0.52 v -0.9 h -0.96 c -0.36,0 -0.64,0.09 -0.82,0.27 -0.18,0.18 -0.28,0.4 -0.28,0.66 0,0.21 0.07,0.39 0.21,0.51 0.14,0.12 0.33,0.2 0.57,0.2 z" id="path33"></path>
 <path class="st2" d="m 429.89,-233.61 h -1.71 v -1.28 h 1.71 z m 0,7.86 h -1.71 v -6.34 h 1.71 z" id="path34"></path>
 <path class="st2" d="m 432.86,-232.09 0.08,0.91 c 0.21,-0.32 0.47,-0.58 0.78,-0.76 0.31,-0.18 0.65,-0.27 1.04,-0.27 0.64,0 1.14,0.21 1.5,0.62 0.36,0.41 0.54,1.06 0.54,1.95 v 3.88 h -1.72 v -3.88 c 0,-0.45 -0.08,-0.77 -0.24,-0.96 -0.16,-0.19 -0.4,-0.28 -0.71,-0.28 -0.25,0 -0.48,0.05 -0.67,0.14 -0.19,0.09 -0.35,0.23 -0.48,0.4 v 4.59 h -1.71 v -6.34 z" id="path35"></path>
 </g>
</g>
<g id="g48" transform="translate(-383.33,239.2)">
 <path id="line36" class="st3" style="fill:none;stroke:#ffffff" d="m 780.5,-36.919998 h -5"></path>
 <path id="line37" class="st3" style="fill:none;stroke:#ffffff" d="m 780.5,-51.470001 h -5"></path>
 <path id="line38" class="st3" style="fill:none;stroke:#ffffff" d="m 780.5,-66.019997 h -5"></path>
 <path id="line39" class="st3" style="fill:none;stroke:#ffffff" d="m 780.5,-80.57 h -5"></path>
 <path id="line40" class="st3" style="fill:none;stroke:#ffffff" d="m 780.5,-95.120003 h -5"></path>
 <path id="line41" class="st3" style="fill:none;stroke:#ffffff" d="m 780.5,-109.68 h -5"></path>
 <path id="line42" class="st3" style="fill:none;stroke:#ffffff" d="m 780.5,-124.23 h -5"></path>
 <path id="line43" class="st3" style="fill:none;stroke:#ffffff" d="m 780.5,-138.78 h -5"></path>
 <path id="line44" class="st3" style="fill:none;stroke:#ffffff" d="m 780.5,-153.33 h -5"></path>
 <path id="line45" class="st3" style="fill:none;stroke:#ffffff" d="m 780.5,-167.88 h -5"></path>
 <path id="line46" class="st3" style="fill:none;stroke:#ffffff" d="m 780.5,-182.42999 h -5"></path>
 <path id="line47" class="st3" style="fill:none;stroke:#ffffff" d="m 780.5,-196.99001 h -5"></path>
 <path id="line48" class="st3" style="fill:none;stroke:#ffffff" d="m 780.5,-211.53999 h -5"></path>
</g>
<g transform="translate(-333.11,239.2)" id="g61">
 <g id="g60">
 
 <text transform="translate(691.4348,-33.3156)" style="font-size:12px;font-family:Roboto-Bold;display:none;fill:#ffffff;enable-background:new" id="text48">0.706</text>
 <path d="m 6.276,-4.296 q 0,1.38 -0.288,2.376 Q 5.7,-0.936 5.076,-0.408 4.452,0.12 3.42,0.12 1.968,0.12 1.272,-1.044 0.588,-2.22 0.588,-4.296 q 0,-1.392 0.276,-2.376 0.288,-0.984 0.912,-1.5 Q 2.4,-8.7 3.42,-8.7 q 1.44,0 2.148,1.164 0.708,1.152 0.708,3.24 z m -4.632,0 q 0,1.764 0.396,2.64 0.408,0.876 1.38,0.876 0.96,0 1.368,-0.864 0.42,-0.876 0.42,-2.652 0,-1.752 -0.42,-2.628 Q 4.38,-7.8 3.42,-7.8 q -0.972,0 -1.38,0.876 -0.396,0.876 -0.396,2.628 z m 6.084006,3.648 q 0,-0.444 0.216,-0.624 0.216,-0.18 0.516,-0.18 0.312,0 0.528,0.18 0.228,0.18 0.228,0.624 0,0.432 -0.228,0.624 -0.216,0.192 -0.528,0.192 -0.3,0 -0.516,-0.192 -0.216,-0.192 -0.216,-0.624 z M 11.712002,0 l 3.516,-7.608 h -4.62 v -0.96 h 5.748 v 0.816 l -3.48,7.752 z m 11.508006,-4.296 q 0,1.38 -0.288,2.376 -0.288,0.984 -0.912,1.512 -0.624,0.528 -1.656,0.528 -1.452,0 -2.148,-1.164 -0.684,-1.176 -0.684,-3.252 0,-1.392 0.276,-2.376 0.288,-0.984 0.912,-1.5 0.624,-0.528 1.644,-0.528 1.44,0 2.148,1.164 0.708,1.152 0.708,3.24 z m -4.632,0 q 0,1.764 0.396,2.64 0.408,0.876 1.38,0.876 0.96,0 1.368,-0.864 0.42,-0.876 0.42,-2.652 0,-1.752 -0.42,-2.628 -0.408,-0.876 -1.368,-0.876 -0.972,0 -1.38,0.876 -0.396,0.876 -0.396,2.628 z m 8.640006,-4.392 q 1.128,0 1.848,0.528 0.72,0.528 0.72,1.524 0,0.516 -0.228,0.9 -0.216,0.384 -0.588,0.684 -0.372,0.288 -0.816,0.516 0.528,0.252 0.96,0.576 0.432,0.312 0.684,0.732 0.264,0.42 0.264,1.008 0,1.08 -0.768,1.716 -0.756,0.624 -2.04,0.624 -1.38,0 -2.124,-0.6 -0.744,-0.612 -0.744,-1.704 0,-0.588 0.24,-1.02 0.252,-0.432 0.66,-0.744 0.408,-0.312 0.876,-0.528 -0.624,-0.36 -1.068,-0.864 -0.432,-0.516 -0.432,-1.308 0,-0.66 0.336,-1.104 0.336,-0.456 0.912,-0.696 0.576,-0.24 1.308,-0.24 z m -0.012,0.852 q -0.66,0 -1.092,0.324 -0.42,0.312 -0.42,0.912 0,0.444 0.204,0.744 0.216,0.3 0.576,0.516 0.36,0.204 0.792,0.396 0.624,-0.264 1.044,-0.636 0.432,-0.372 0.432,-1.02 0,-0.6 -0.42,-0.912 -0.42,-0.324 -1.116,-0.324 z m -1.788,5.664 q 0,0.624 0.444,1.044 0.444,0.408 1.368,0.408 0.876,0 1.332,-0.408 0.468,-0.42 0.468,-1.08 0,-0.624 -0.492,-1.032 -0.492,-0.42 -1.308,-0.732 l -0.192,-0.072 q -0.792,0.336 -1.212,0.78 -0.408,0.432 -0.408,1.092 z" id="text49" style="font-size:12px;font-family:Roboto-Bold;fill:#ffffff" class="st2" transform="translate(691.4348,-47.8671)" aria-label="0.708"></path>
 
 <text transform="translate(698.0031,-62.4189)" style="font-size:12px;font-family:Roboto-Bold;display:none;fill:#ffffff;enable-background:new" id="text50">0.71</text>
 <path d="m 6.276,-4.296 q 0,1.38 -0.288,2.376 Q 5.7,-0.936 5.076,-0.408 4.452,0.12 3.42,0.12 1.968,0.12 1.272,-1.044 0.588,-2.22 0.588,-4.296 q 0,-1.392 0.276,-2.376 0.288,-0.984 0.912,-1.5 Q 2.4,-8.7 3.42,-8.7 q 1.44,0 2.148,1.164 0.708,1.152 0.708,3.24 z m -4.632,0 q 0,1.764 0.396,2.64 0.408,0.876 1.38,0.876 0.96,0 1.368,-0.864 0.42,-0.876 0.42,-2.652 0,-1.752 -0.42,-2.628 Q 4.38,-7.8 3.42,-7.8 q -0.972,0 -1.38,0.876 -0.396,0.876 -0.396,2.628 z m 6.084006,3.648 q 0,-0.444 0.216,-0.624 0.216,-0.18 0.516,-0.18 0.312,0 0.528,0.18 0.228,0.18 0.228,0.624 0,0.432 -0.228,0.624 -0.216,0.192 -0.528,0.192 -0.3,0 -0.516,-0.192 -0.216,-0.192 -0.216,-0.624 z M 11.712002,0 l 3.516,-7.608 h -4.62 v -0.96 h 5.748 v 0.816 l -3.48,7.752 z m 9.492006,0 h -1.032 v -5.988 q 0,-0.516 0.012,-0.828 0.012,-0.312 0.036,-0.648 -0.192,0.192 -0.348,0.324 -0.156,0.132 -0.396,0.336 l -0.912,0.744 -0.552,-0.708 2.316,-1.8 h 0.876 z m 8.844006,0 h -5.664 v -0.876 l 2.244,-2.268 q 0.648,-0.648 1.092,-1.152 0.444,-0.504 0.672,-0.984 0.228,-0.492 0.228,-1.068 0,-0.708 -0.42,-1.068 -0.42,-0.372 -1.092,-0.372 -0.624,0 -1.104,0.216 -0.468,0.216 -0.96,0.6 l -0.564,-0.708 q 0.504,-0.42 1.152,-0.708 0.66,-0.3 1.476,-0.3 1.2,0 1.896,0.612 0.696,0.6 0.696,1.668 0,0.672 -0.276,1.26 -0.276,0.588 -0.768,1.164 -0.492,0.564 -1.152,1.212 l -1.788,1.764 v 0.048 h 4.332 z" id="text51" style="font-size:12px;font-family:Roboto-Bold;fill:#ffffff" class="st2" transform="translate(691.4348,-76.9706)" aria-label="0.712"></path>
 
 <text transform="translate(691.4348,-91.5222)" style="font-size:12px;font-family:Roboto-Bold;display:none;fill:#ffffff;enable-background:new" id="text52">0.714</text>
 <path d="m 6.276,-4.296 q 0,1.38 -0.288,2.376 Q 5.7,-0.936 5.076,-0.408 4.452,0.12 3.42,0.12 1.968,0.12 1.272,-1.044 0.588,-2.22 0.588,-4.296 q 0,-1.392 0.276,-2.376 0.288,-0.984 0.912,-1.5 Q 2.4,-8.7 3.42,-8.7 q 1.44,0 2.148,1.164 0.708,1.152 0.708,3.24 z m -4.632,0 q 0,1.764 0.396,2.64 0.408,0.876 1.38,0.876 0.96,0 1.368,-0.864 0.42,-0.876 0.42,-2.652 0,-1.752 -0.42,-2.628 Q 4.38,-7.8 3.42,-7.8 q -0.972,0 -1.38,0.876 -0.396,0.876 -0.396,2.628 z m 6.084006,3.648 q 0,-0.444 0.216,-0.624 0.216,-0.18 0.516,-0.18 0.312,0 0.528,0.18 0.228,0.18 0.228,0.624 0,0.432 -0.228,0.624 -0.216,0.192 -0.528,0.192 -0.3,0 -0.516,-0.192 -0.216,-0.192 -0.216,-0.624 z M 11.712002,0 l 3.516,-7.608 h -4.62 v -0.96 h 5.748 v 0.816 l -3.48,7.752 z m 9.492006,0 h -1.032 v -5.988 q 0,-0.516 0.012,-0.828 0.012,-0.312 0.036,-0.648 -0.192,0.192 -0.348,0.324 -0.156,0.132 -0.396,0.336 l -0.912,0.744 -0.552,-0.708 2.316,-1.8 h 0.876 z m 3.264006,-3.66 q 0,-0.924 0.156,-1.812 0.168,-0.9 0.588,-1.62 0.432,-0.732 1.2,-1.164 0.768,-0.432 1.98,-0.432 0.252,0 0.552,0.024 0.312,0.024 0.504,0.084 v 0.9 q -0.216,-0.072 -0.492,-0.108 -0.264,-0.036 -0.54,-0.036 -0.828,0 -1.38,0.276 -0.552,0.276 -0.876,0.756 -0.312,0.48 -0.456,1.104 -0.144,0.624 -0.18,1.332 h 0.072 q 0.276,-0.42 0.768,-0.708 0.492,-0.3 1.26,-0.3 1.116,0 1.8,0.684 0.684,0.672 0.684,1.92 0,1.344 -0.744,2.112 -0.732,0.768 -1.98,0.768 -0.816,0 -1.476,-0.408 -0.66,-0.408 -1.056,-1.248 -0.384,-0.84 -0.384,-2.124 z m 2.904,2.892 q 0.756,0 1.224,-0.48 0.468,-0.492 0.468,-1.512 0,-0.816 -0.42,-1.296 -0.408,-0.48 -1.236,-0.48 -0.564,0 -0.984,0.24 -0.42,0.228 -0.66,0.588 -0.228,0.36 -0.228,0.744 0,0.516 0.204,1.032 0.204,0.504 0.612,0.84 0.408,0.324 1.02,0.324 z" id="text53" style="font-size:12px;font-family:Roboto-Bold;fill:#ffffff" class="st2" transform="translate(691.4348,-106.0739)" aria-label="0.716"></path>
 
 <text transform="translate(691.4348,-120.6254)" style="font-size:12px;font-family:Roboto-Bold;display:none;fill:#ffffff;enable-background:new" id="text54">0.718</text>
 <path d="m 6.276,-4.296 q 0,1.38 -0.288,2.376 Q 5.7,-0.936 5.076,-0.408 4.452,0.12 3.42,0.12 1.968,0.12 1.272,-1.044 0.588,-2.22 0.588,-4.296 q 0,-1.392 0.276,-2.376 0.288,-0.984 0.912,-1.5 Q 2.4,-8.7 3.42,-8.7 q 1.44,0 2.148,1.164 0.708,1.152 0.708,3.24 z m -4.632,0 q 0,1.764 0.396,2.64 0.408,0.876 1.38,0.876 0.96,0 1.368,-0.864 0.42,-0.876 0.42,-2.652 0,-1.752 -0.42,-2.628 Q 4.38,-7.8 3.42,-7.8 q -0.972,0 -1.38,0.876 -0.396,0.876 -0.396,2.628 z m 6.084006,3.648 q 0,-0.444 0.216,-0.624 0.216,-0.18 0.516,-0.18 0.312,0 0.528,0.18 0.228,0.18 0.228,0.624 0,0.432 -0.228,0.624 -0.216,0.192 -0.528,0.192 -0.3,0 -0.516,-0.192 -0.216,-0.192 -0.216,-0.624 z M 11.712002,0 l 3.516,-7.608 h -4.62 v -0.96 h 5.748 v 0.816 l -3.48,7.752 z m 11.472006,0 h -5.664 v -0.876 l 2.244,-2.268 q 0.648,-0.648 1.092,-1.152 0.444,-0.504 0.672,-0.984 0.228,-0.492 0.228,-1.068 0,-0.708 -0.42,-1.068 -0.42,-0.372 -1.092,-0.372 -0.624,0 -1.104,0.216 -0.468,0.216 -0.96,0.6 l -0.564,-0.708 q 0.504,-0.42 1.152,-0.708 0.66,-0.3 1.476,-0.3 1.2,0 1.896,0.612 0.696,0.6 0.696,1.668 0,0.672 -0.276,1.26 -0.276,0.588 -0.768,1.164 -0.492,0.564 -1.152,1.212 l -1.788,1.764 v 0.048 h 4.332 z" id="text55" style="font-size:12px;font-family:Roboto-Bold;fill:#ffffff" class="st2" transform="translate(698.0031,-135.1772)" aria-label="0.72"></path>
 
 <text transform="translate(691.4348,-149.7289)" style="font-size:12px;font-family:Roboto-Bold;display:none;fill:#ffffff;enable-background:new" id="text56">0.722</text>
 <path d="m 6.276,-4.296 q 0,1.38 -0.288,2.376 Q 5.7,-0.936 5.076,-0.408 4.452,0.12 3.42,0.12 1.968,0.12 1.272,-1.044 0.588,-2.22 0.588,-4.296 q 0,-1.392 0.276,-2.376 0.288,-0.984 0.912,-1.5 Q 2.4,-8.7 3.42,-8.7 q 1.44,0 2.148,1.164 0.708,1.152 0.708,3.24 z m -4.632,0 q 0,1.764 0.396,2.64 0.408,0.876 1.38,0.876 0.96,0 1.368,-0.864 0.42,-0.876 0.42,-2.652 0,-1.752 -0.42,-2.628 Q 4.38,-7.8 3.42,-7.8 q -0.972,0 -1.38,0.876 -0.396,0.876 -0.396,2.628 z m 6.084006,3.648 q 0,-0.444 0.216,-0.624 0.216,-0.18 0.516,-0.18 0.312,0 0.528,0.18 0.228,0.18 0.228,0.624 0,0.432 -0.228,0.624 -0.216,0.192 -0.528,0.192 -0.3,0 -0.516,-0.192 -0.216,-0.192 -0.216,-0.624 z M 11.712002,0 l 3.516,-7.608 h -4.62 v -0.96 h 5.748 v 0.816 l -3.48,7.752 z m 11.472006,0 h -5.664 v -0.876 l 2.244,-2.268 q 0.648,-0.648 1.092,-1.152 0.444,-0.504 0.672,-0.984 0.228,-0.492 0.228,-1.068 0,-0.708 -0.42,-1.068 -0.42,-0.372 -1.092,-0.372 -0.624,0 -1.104,0.216 -0.468,0.216 -0.96,0.6 l -0.564,-0.708 q 0.504,-0.42 1.152,-0.708 0.66,-0.3 1.476,-0.3 1.2,0 1.896,0.612 0.696,0.6 0.696,1.668 0,0.672 -0.276,1.26 -0.276,0.588 -0.768,1.164 -0.492,0.564 -1.152,1.212 l -1.788,1.764 v 0.048 h 4.332 z m 7.248006,-1.944 h -1.248 V 0 h -1.02 v -1.944 h -4.104 v -0.9 l 4.032,-5.772 h 1.092 v 5.724 h 1.248 z m -2.268,-3.648 q 0,-0.624 0.024,-1.056 0.024,-0.444 0.036,-0.84 h -0.048 q -0.096,0.228 -0.24,0.492 -0.144,0.264 -0.276,0.444 l -2.568,3.66 h 3.072 z" id="text57" style="font-size:12px;font-family:Roboto-Bold;fill:#ffffff" class="st2" transform="translate(691.4348,-164.2805)" aria-label="0.724"></path>
 
 <text transform="translate(691.4348,-178.8322)" style="font-size:12px;font-family:Roboto-Bold;display:none;fill:#ffffff;enable-background:new" id="text58">0.726</text>
 <path d="m 6.276,-4.296 q 0,1.38 -0.288,2.376 Q 5.7,-0.936 5.076,-0.408 4.452,0.12 3.42,0.12 1.968,0.12 1.272,-1.044 0.588,-2.22 0.588,-4.296 q 0,-1.392 0.276,-2.376 0.288,-0.984 0.912,-1.5 Q 2.4,-8.7 3.42,-8.7 q 1.44,0 2.148,1.164 0.708,1.152 0.708,3.24 z m -4.632,0 q 0,1.764 0.396,2.64 0.408,0.876 1.38,0.876 0.96,0 1.368,-0.864 0.42,-0.876 0.42,-2.652 0,-1.752 -0.42,-2.628 Q 4.38,-7.8 3.42,-7.8 q -0.972,0 -1.38,0.876 -0.396,0.876 -0.396,2.628 z m 6.084006,3.648 q 0,-0.444 0.216,-0.624 0.216,-0.18 0.516,-0.18 0.312,0 0.528,0.18 0.228,0.18 0.228,0.624 0,0.432 -0.228,0.624 -0.216,0.192 -0.528,0.192 -0.3,0 -0.516,-0.192 -0.216,-0.192 -0.216,-0.624 z M 11.712002,0 l 3.516,-7.608 h -4.62 v -0.96 h 5.748 v 0.816 l -3.48,7.752 z m 11.472006,0 h -5.664 v -0.876 l 2.244,-2.268 q 0.648,-0.648 1.092,-1.152 0.444,-0.504 0.672,-0.984 0.228,-0.492 0.228,-1.068 0,-0.708 -0.42,-1.068 -0.42,-0.372 -1.092,-0.372 -0.624,0 -1.104,0.216 -0.468,0.216 -0.96,0.6 l -0.564,-0.708 q 0.504,-0.42 1.152,-0.708 0.66,-0.3 1.476,-0.3 1.2,0 1.896,0.612 0.696,0.6 0.696,1.668 0,0.672 -0.276,1.26 -0.276,0.588 -0.768,1.164 -0.492,0.564 -1.152,1.212 l -1.788,1.764 v 0.048 h 4.332 z m 4.044006,-8.688 q 1.128,0 1.848,0.528 0.72,0.528 0.72,1.524 0,0.516 -0.228,0.9 -0.216,0.384 -0.588,0.684 -0.372,0.288 -0.816,0.516 0.528,0.252 0.96,0.576 0.432,0.312 0.684,0.732 0.264,0.42 0.264,1.008 0,1.08 -0.768,1.716 -0.756,0.624 -2.04,0.624 -1.38,0 -2.124,-0.6 -0.744,-0.612 -0.744,-1.704 0,-0.588 0.24,-1.02 0.252,-0.432 0.66,-0.744 0.408,-0.312 0.876,-0.528 -0.624,-0.36 -1.068,-0.864 -0.432,-0.516 -0.432,-1.308 0,-0.66 0.336,-1.104 0.336,-0.456 0.912,-0.696 0.576,-0.24 1.308,-0.24 z m -0.012,0.852 q -0.66,0 -1.092,0.324 -0.42,0.312 -0.42,0.912 0,0.444 0.204,0.744 0.216,0.3 0.576,0.516 0.36,0.204 0.792,0.396 0.624,-0.264 1.044,-0.636 0.432,-0.372 0.432,-1.02 0,-0.6 -0.42,-0.912 -0.42,-0.324 -1.116,-0.324 z m -1.788,5.664 q 0,0.624 0.444,1.044 0.444,0.408 1.368,0.408 0.876,0 1.332,-0.408 0.468,-0.42 0.468,-1.08 0,-0.624 -0.492,-1.032 -0.492,-0.42 -1.308,-0.732 l -0.192,-0.072 q -0.792,0.336 -1.212,0.78 -0.408,0.432 -0.408,1.092 z" id="text59" style="font-size:12px;font-family:Roboto-Bold;fill:#ffffff" class="st2" transform="translate(691.4348,-193.384)" aria-label="0.728"></path>
 
 <text transform="translate(698.0031,-207.9355)" style="font-size:12px;font-family:Roboto-Bold;display:none;fill:#ffffff;enable-background:new" id="text60">0.73</text>
 </g>
</g>
<path id="line61" class="st3" style="fill:none;stroke:#ffffff" d="M 397.17001,27.660007 V 202.28"></path>
<path id="rect61" class="st4" style="opacity:0.25;fill:none;stroke:#ffffff;stroke-miterlimit:10" d="m 396.95004,27.660007 h 269 V 201.66001 h -269 z"></path>
<g id="g67" transform="translate(-383.33,239.2)">
 <path id="line62" class="st5" style="opacity:0.25;fill:none;stroke:#ffffff;enable-background:new" d="M 780.28003,-211.53999 V -36.919998"></path>
 <path id="line63" class="st5" style="opacity:0.25;fill:none;stroke:#ffffff;enable-background:new" d="M 814,-211.53999 V -36.919998"></path>
 <path id="line64" class="st5" style="opacity:0.25;fill:none;stroke:#ffffff;enable-background:new" d="M 881.45001,-211.53999 V -36.919998"></path>
 <path id="line65" class="st5" style="opacity:0.25;fill:none;stroke:#ffffff;enable-background:new" d="M 948.89001,-211.53999 V -36.919998"></path>
 <path id="line66" class="st5" style="opacity:0.25;fill:none;stroke:#ffffff;enable-background:new" d="M 1016.34,-211.53999 V -36.919998"></path>
 <path id="line67" class="st5" style="opacity:0.25;fill:none;stroke:#ffffff;enable-background:new" d="M 1050.0601,-211.53999 V -36.919998"></path>
</g>
<g id="g80" transform="translate(-383.33,239.2)">
 <path id="line68" class="st5" style="opacity:0.25;fill:none;stroke:#ffffff;enable-background:new" d="M 780.28003,-36.919998 H 1050.0601"></path>
 <path id="line69" class="st5" style="opacity:0.25;fill:none;stroke:#ffffff;enable-background:new" d="M 780.28003,-51.470001 H 1050.0601"></path>
 <path id="line70" class="st5" style="opacity:0.25;fill:none;stroke:#ffffff;enable-background:new" d="M 780.28003,-66.019997 H 1050.0601"></path>
 <path id="line71" class="st5" style="opacity:0.25;fill:none;stroke:#ffffff;enable-background:new" d="M 780.28003,-80.57 H 1050.0601"></path>
 <path id="line72" class="st5" style="opacity:0.25;fill:none;stroke:#ffffff;enable-background:new" d="M 780.28003,-95.120003 H 1050.0601"></path>
 <path id="line73" class="st5" style="opacity:0.25;fill:none;stroke:#ffffff;enable-background:new" d="M 780.28003,-109.68 H 1050.0601"></path>
 <path id="line74" class="st5" style="opacity:0.25;fill:none;stroke:#ffffff;enable-background:new" d="M 780.28003,-124.23 H 1050.0601"></path>
 <path id="line75" class="st5" style="opacity:0.25;fill:none;stroke:#ffffff;enable-background:new" d="M 780.28003,-138.78 H 1050.0601"></path>
 <path id="line76" class="st5" style="opacity:0.25;fill:none;stroke:#ffffff;enable-background:new" d="M 780.28003,-153.33 H 1050.0601"></path>
 <path id="line77" class="st5" style="opacity:0.25;fill:none;stroke:#ffffff;enable-background:new" d="M 780.28003,-167.88 H 1050.0601"></path>
 <path id="line78" class="st5" style="opacity:0.25;fill:none;stroke:#ffffff;enable-background:new" d="M 780.28003,-182.42999 H 1050.0601"></path>
 <path id="line79" class="st5" style="opacity:0.25;fill:none;stroke:#ffffff;enable-background:new" d="M 780.28003,-196.99001 H 1050.0601"></path>
 <path id="line80" class="st5" style="opacity:0.25;fill:none;stroke:#ffffff;enable-background:new" d="M 780.28003,-211.53999 H 1050.0601"></path>
</g>
<path id="line81" class="st6" style="fill:none;stroke:#ffffff;stroke-width:1.5" d="M 430.67001,27.660007 V 202.28"></path>
<path id="rect81" class="st7" style="fill:none" d="m 396.95004,201.66 h 269 v 25 h -269 z"></path>
<g id="g87" transform="translate(-383.33,239.2)">
 <path id="line82" class="st3" style="fill:none;stroke:#ffffff" d="m 780.28003,-37.540001 v 5"></path>
 <path id="line83" class="st3" style="fill:none;stroke:#ffffff" d="m 814,-37.540001 v 5"></path>
 <path id="line84" class="st3" style="fill:none;stroke:#ffffff" d="m 881.45001,-37.540001 v 5"></path>
 <path id="line85" class="st3" style="fill:none;stroke:#ffffff" d="m 948.89001,-37.540001 v 5"></path>
 <path id="line86" class="st3" style="fill:none;stroke:#ffffff" d="m 1016.34,-37.540001 v 5"></path>
 <path id="line87" class="st3" style="fill:none;stroke:#ffffff" d="m 1050.0601,-37.540001 v 5"></path>
</g>
<g transform="translate(-383.33,247.2)" id="g93">
 <g id="g92">
 
 <text transform="translate(762.6846,-26.1354)" style="font-size:12px;font-family:Roboto-Bold;display:none;fill:#ffffff;enable-background:new" id="text87">-500m</text>
 <path d="m 6.276,-4.296 q 0,1.38 -0.288,2.376 Q 5.7,-0.936 5.076,-0.408 4.452,0.12 3.42,0.12 1.968,0.12 1.272,-1.044 0.588,-2.22 0.588,-4.296 q 0,-1.392 0.276,-2.376 0.288,-0.984 0.912,-1.5 Q 2.4,-8.7 3.42,-8.7 q 1.44,0 2.148,1.164 0.708,1.152 0.708,3.24 z m -4.632,0 q 0,1.764 0.396,2.64 0.408,0.876 1.38,0.876 0.96,0 1.368,-0.864 0.42,-0.876 0.42,-2.652 0,-1.752 -0.42,-2.628 Q 4.38,-7.8 3.42,-7.8 q -0.972,0 -1.38,0.876 -0.396,0.876 -0.396,2.628 z" id="text88" style="font-size:12px;font-family:Roboto-Bold;fill:#ffffff" class="st2" transform="translate(810.7187,-26.1354)" aria-label="0"></path>
 <path d="M 4.26,0 H 3.228 v -5.988 q 0,-0.516 0.012,-0.828 0.012,-0.312 0.036,-0.648 -0.192,0.192 -0.348,0.324 -0.156,0.132 -0.396,0.336 L 1.62,-6.06 1.068,-6.768 3.384,-8.568 H 4.26 Z" id="text89" style="font-size:12px;font-family:Roboto-Bold;fill:#ffffff" class="st2" transform="translate(878.1637,-26.1354)" aria-label="1"></path>
 <path d="M 6.24,0 H 0.576 V -0.876 L 2.82,-3.144 Q 3.468,-3.792 3.912,-4.296 4.356,-4.8 4.584,-5.28 q 0.228,-0.492 0.228,-1.068 0,-0.708 -0.42,-1.068 -0.42,-0.372 -1.092,-0.372 -0.624,0 -1.104,0.216 -0.468,0.216 -0.96,0.6 L 0.672,-7.68 q 0.504,-0.42 1.152,-0.708 0.66,-0.3 1.476,-0.3 1.2,0 1.896,0.612 0.696,0.6 0.696,1.668 0,0.672 -0.276,1.26 Q 5.34,-4.56 4.848,-3.984 4.356,-3.42 3.696,-2.772 L 1.908,-1.008 V -0.96 H 6.24 Z" id="text90" style="font-size:12px;font-family:Roboto-Bold;fill:#ffffff" class="st2" transform="translate(945.6087,-26.1354)" aria-label="2"></path>
 <path d="m 5.916,-6.564 q 0,0.864 -0.48,1.38 -0.48,0.504 -1.296,0.672 v 0.048 q 1.032,0.12 1.536,0.648 0.504,0.528 0.504,1.38 0,0.744 -0.348,1.332 -0.348,0.576 -1.08,0.9 Q 4.032,0.12 2.892,0.12 2.22,0.12 1.644,0.012 1.068,-0.084 0.54,-0.348 v -0.984 q 0.54,0.264 1.164,0.42 0.624,0.144 1.2,0.144 1.152,0 1.656,-0.444 0.516,-0.456 0.516,-1.248 0,-0.804 -0.636,-1.152 -0.624,-0.36 -1.764,-0.36 H 1.848 v -0.9 h 0.84 q 1.056,0 1.596,-0.444 0.552,-0.444 0.552,-1.176 0,-0.624 -0.42,-0.96 Q 3.996,-7.8 3.276,-7.8 2.58,-7.8 2.088,-7.596 1.596,-7.392 1.116,-7.08 L 0.588,-7.8 q 0.456,-0.36 1.128,-0.624 0.684,-0.264 1.548,-0.264 1.344,0 1.992,0.6 0.66,0.6 0.66,1.524 z" id="text91" style="font-size:12px;font-family:Roboto-Bold;fill:#ffffff" class="st2" transform="translate(1013.0537,-26.1354)" aria-label="3"></path>
 
 <text transform="translate(1042.2059,-26.1354)" style="font-size:12px;font-family:Roboto-Bold;display:none;fill:#ffffff;enable-background:new" id="text92">3.5</text>
 </g>
</g>
<path id="line93" class="st3" style="fill:none;stroke:#ffffff" d="m 396.95004,201.66 h 269.78"></path>
<g id="g104" transform="translate(-383.33,239.2)">
 <path id="line94" class="st3" style="fill:none;stroke:#ffffff" d="m 426.07001,-36.919998 h -5"></path>
 <path id="line95" class="st3" style="fill:none;stroke:#ffffff" d="m 426.07001,-54.380001 h -5"></path>
 <path id="line96" class="st3" style="fill:none;stroke:#ffffff" d="m 426.07001,-71.839996 h -5"></path>
 <path id="line97" class="st3" style="fill:none;stroke:#ffffff" d="m 426.07001,-89.300003 h -5"></path>
 <path id="line98" class="st3" style="fill:none;stroke:#ffffff" d="m 426.07001,-106.77 h -5"></path>
 <path id="line99" class="st3" style="fill:none;stroke:#ffffff" d="m 426.07001,-124.23 h -5"></path>
 <path id="line100" class="st3" style="fill:none;stroke:#ffffff" d="m 426.07001,-141.69 h -5"></path>
 <path id="line101" class="st3" style="fill:none;stroke:#ffffff" d="m 426.07001,-159.14999 h -5"></path>
 <path id="line102" class="st3" style="fill:none;stroke:#ffffff" d="m 426.07001,-176.61 h -5"></path>
 <path id="line103" class="st3" style="fill:none;stroke:#ffffff" d="m 426.07001,-194.08 h -5"></path>
 <path id="line104" class="st3" style="fill:none;stroke:#ffffff" d="m 426.07001,-211.53999 h -5"></path>
</g>
<g transform="translate(-333.11,239.2)" id="g115">
 <g id="g114">
 
 <text transform="translate(343.5736,-33.3152)" style="font-size:12px;font-family:Roboto-Bold;display:none;fill:#ffffff;enable-background:new" id="text104">0.71</text>
 <path d="m 6.276,-4.296 q 0,1.38 -0.288,2.376 Q 5.7,-0.936 5.076,-0.408 4.452,0.12 3.42,0.12 1.968,0.12 1.272,-1.044 0.588,-2.22 0.588,-4.296 q 0,-1.392 0.276,-2.376 0.288,-0.984 0.912,-1.5 Q 2.4,-8.7 3.42,-8.7 q 1.44,0 2.148,1.164 0.708,1.152 0.708,3.24 z m -4.632,0 q 0,1.764 0.396,2.64 0.408,0.876 1.38,0.876 0.96,0 1.368,-0.864 0.42,-0.876 0.42,-2.652 0,-1.752 -0.42,-2.628 Q 4.38,-7.8 3.42,-7.8 q -0.972,0 -1.38,0.876 -0.396,0.876 -0.396,2.628 z m 6.084006,3.648 q 0,-0.444 0.216,-0.624 0.216,-0.18 0.516,-0.18 0.312,0 0.528,0.18 0.228,0.18 0.228,0.624 0,0.432 -0.228,0.624 -0.216,0.192 -0.528,0.192 -0.3,0 -0.516,-0.192 -0.216,-0.192 -0.216,-0.624 z M 11.712002,0 l 3.516,-7.608 h -4.62 v -0.96 h 5.748 v 0.816 l -3.48,7.752 z m 9.492006,0 h -1.032 v -5.988 q 0,-0.516 0.012,-0.828 0.012,-0.312 0.036,-0.648 -0.192,0.192 -0.348,0.324 -0.156,0.132 -0.396,0.336 l -0.912,0.744 -0.552,-0.708 2.316,-1.8 h 0.876 z m 8.844006,0 h -5.664 v -0.876 l 2.244,-2.268 q 0.648,-0.648 1.092,-1.152 0.444,-0.504 0.672,-0.984 0.228,-0.492 0.228,-1.068 0,-0.708 -0.42,-1.068 -0.42,-0.372 -1.092,-0.372 -0.624,0 -1.104,0.216 -0.468,0.216 -0.96,0.6 l -0.564,-0.708 q 0.504,-0.42 1.152,-0.708 0.66,-0.3 1.476,-0.3 1.2,0 1.896,0.612 0.696,0.6 0.696,1.668 0,0.672 -0.276,1.26 -0.276,0.588 -0.768,1.164 -0.492,0.564 -1.152,1.212 l -1.788,1.764 v 0.048 h 4.332 z" id="text105" style="font-size:12px;font-family:Roboto-Bold;fill:#ffffff" class="st2" transform="translate(337.0053,-50.7774)" aria-label="0.712"></path>
 
 <text transform="translate(337.0053,-68.2393)" style="font-size:12px;font-family:Roboto-Bold;display:none;fill:#ffffff;enable-background:new" id="text106">0.714</text>
 <path d="m 6.276,-4.296 q 0,1.38 -0.288,2.376 Q 5.7,-0.936 5.076,-0.408 4.452,0.12 3.42,0.12 1.968,0.12 1.272,-1.044 0.588,-2.22 0.588,-4.296 q 0,-1.392 0.276,-2.376 0.288,-0.984 0.912,-1.5 Q 2.4,-8.7 3.42,-8.7 q 1.44,0 2.148,1.164 0.708,1.152 0.708,3.24 z m -4.632,0 q 0,1.764 0.396,2.64 0.408,0.876 1.38,0.876 0.96,0 1.368,-0.864 0.42,-0.876 0.42,-2.652 0,-1.752 -0.42,-2.628 Q 4.38,-7.8 3.42,-7.8 q -0.972,0 -1.38,0.876 -0.396,0.876 -0.396,2.628 z m 6.084006,3.648 q 0,-0.444 0.216,-0.624 0.216,-0.18 0.516,-0.18 0.312,0 0.528,0.18 0.228,0.18 0.228,0.624 0,0.432 -0.228,0.624 -0.216,0.192 -0.528,0.192 -0.3,0 -0.516,-0.192 -0.216,-0.192 -0.216,-0.624 z M 11.712002,0 l 3.516,-7.608 h -4.62 v -0.96 h 5.748 v 0.816 l -3.48,7.752 z m 9.492006,0 h -1.032 v -5.988 q 0,-0.516 0.012,-0.828 0.012,-0.312 0.036,-0.648 -0.192,0.192 -0.348,0.324 -0.156,0.132 -0.396,0.336 l -0.912,0.744 -0.552,-0.708 2.316,-1.8 h 0.876 z m 3.264006,-3.66 q 0,-0.924 0.156,-1.812 0.168,-0.9 0.588,-1.62 0.432,-0.732 1.2,-1.164 0.768,-0.432 1.98,-0.432 0.252,0 0.552,0.024 0.312,0.024 0.504,0.084 v 0.9 q -0.216,-0.072 -0.492,-0.108 -0.264,-0.036 -0.54,-0.036 -0.828,0 -1.38,0.276 -0.552,0.276 -0.876,0.756 -0.312,0.48 -0.456,1.104 -0.144,0.624 -0.18,1.332 h 0.072 q 0.276,-0.42 0.768,-0.708 0.492,-0.3 1.26,-0.3 1.116,0 1.8,0.684 0.684,0.672 0.684,1.92 0,1.344 -0.744,2.112 -0.732,0.768 -1.98,0.768 -0.816,0 -1.476,-0.408 -0.66,-0.408 -1.056,-1.248 -0.384,-0.84 -0.384,-2.124 z m 2.904,2.892 q 0.756,0 1.224,-0.48 0.468,-0.492 0.468,-1.512 0,-0.816 -0.42,-1.296 -0.408,-0.48 -1.236,-0.48 -0.564,0 -0.984,0.24 -0.42,0.228 -0.66,0.588 -0.228,0.36 -0.228,0.744 0,0.516 0.204,1.032 0.204,0.504 0.612,0.84 0.408,0.324 1.02,0.324 z" id="text107" style="font-size:12px;font-family:Roboto-Bold;fill:#ffffff" class="st2" transform="translate(337.0053,-85.7012)" aria-label="0.716"></path>
 
 <text transform="translate(337.0053,-103.1634)" style="font-size:12px;font-family:Roboto-Bold;display:none;fill:#ffffff;enable-background:new" id="text108">0.718</text>
 <path d="m 6.276,-4.296 q 0,1.38 -0.288,2.376 Q 5.7,-0.936 5.076,-0.408 4.452,0.12 3.42,0.12 1.968,0.12 1.272,-1.044 0.588,-2.22 0.588,-4.296 q 0,-1.392 0.276,-2.376 0.288,-0.984 0.912,-1.5 Q 2.4,-8.7 3.42,-8.7 q 1.44,0 2.148,1.164 0.708,1.152 0.708,3.24 z m -4.632,0 q 0,1.764 0.396,2.64 0.408,0.876 1.38,0.876 0.96,0 1.368,-0.864 0.42,-0.876 0.42,-2.652 0,-1.752 -0.42,-2.628 Q 4.38,-7.8 3.42,-7.8 q -0.972,0 -1.38,0.876 -0.396,0.876 -0.396,2.628 z m 6.084006,3.648 q 0,-0.444 0.216,-0.624 0.216,-0.18 0.516,-0.18 0.312,0 0.528,0.18 0.228,0.18 0.228,0.624 0,0.432 -0.228,0.624 -0.216,0.192 -0.528,0.192 -0.3,0 -0.516,-0.192 -0.216,-0.192 -0.216,-0.624 z M 11.712002,0 l 3.516,-7.608 h -4.62 v -0.96 h 5.748 v 0.816 l -3.48,7.752 z m 11.472006,0 h -5.664 v -0.876 l 2.244,-2.268 q 0.648,-0.648 1.092,-1.152 0.444,-0.504 0.672,-0.984 0.228,-0.492 0.228,-1.068 0,-0.708 -0.42,-1.068 -0.42,-0.372 -1.092,-0.372 -0.624,0 -1.104,0.216 -0.468,0.216 -0.96,0.6 l -0.564,-0.708 q 0.504,-0.42 1.152,-0.708 0.66,-0.3 1.476,-0.3 1.2,0 1.896,0.612 0.696,0.6 0.696,1.668 0,0.672 -0.276,1.26 -0.276,0.588 -0.768,1.164 -0.492,0.564 -1.152,1.212 l -1.788,1.764 v 0.048 h 4.332 z" id="text109" style="font-size:12px;font-family:Roboto-Bold;fill:#ffffff" class="st2" transform="translate(343.5736,-120.6253)" aria-label="0.72"></path>
 
 <text transform="translate(337.0053,-138.0874)" style="font-size:12px;font-family:Roboto-Bold;display:none;fill:#ffffff;enable-background:new" id="text110">0.722</text>
 <path d="m 6.276,-4.296 q 0,1.38 -0.288,2.376 Q 5.7,-0.936 5.076,-0.408 4.452,0.12 3.42,0.12 1.968,0.12 1.272,-1.044 0.588,-2.22 0.588,-4.296 q 0,-1.392 0.276,-2.376 0.288,-0.984 0.912,-1.5 Q 2.4,-8.7 3.42,-8.7 q 1.44,0 2.148,1.164 0.708,1.152 0.708,3.24 z m -4.632,0 q 0,1.764 0.396,2.64 0.408,0.876 1.38,0.876 0.96,0 1.368,-0.864 0.42,-0.876 0.42,-2.652 0,-1.752 -0.42,-2.628 Q 4.38,-7.8 3.42,-7.8 q -0.972,0 -1.38,0.876 -0.396,0.876 -0.396,2.628 z m 6.084006,3.648 q 0,-0.444 0.216,-0.624 0.216,-0.18 0.516,-0.18 0.312,0 0.528,0.18 0.228,0.18 0.228,0.624 0,0.432 -0.228,0.624 -0.216,0.192 -0.528,0.192 -0.3,0 -0.516,-0.192 -0.216,-0.192 -0.216,-0.624 z M 11.712002,0 l 3.516,-7.608 h -4.62 v -0.96 h 5.748 v 0.816 l -3.48,7.752 z m 11.472006,0 h -5.664 v -0.876 l 2.244,-2.268 q 0.648,-0.648 1.092,-1.152 0.444,-0.504 0.672,-0.984 0.228,-0.492 0.228,-1.068 0,-0.708 -0.42,-1.068 -0.42,-0.372 -1.092,-0.372 -0.624,0 -1.104,0.216 -0.468,0.216 -0.96,0.6 l -0.564,-0.708 q 0.504,-0.42 1.152,-0.708 0.66,-0.3 1.476,-0.3 1.2,0 1.896,0.612 0.696,0.6 0.696,1.668 0,0.672 -0.276,1.26 -0.276,0.588 -0.768,1.164 -0.492,0.564 -1.152,1.212 l -1.788,1.764 v 0.048 h 4.332 z m 7.248006,-1.944 h -1.248 V 0 h -1.02 v -1.944 h -4.104 v -0.9 l 4.032,-5.772 h 1.092 v 5.724 h 1.248 z m -2.268,-3.648 q 0,-0.624 0.024,-1.056 0.024,-0.444 0.036,-0.84 h -0.048 q -0.096,0.228 -0.24,0.492 -0.144,0.264 -0.276,0.444 l -2.568,3.66 h 3.072 z" id="text111" style="font-size:12px;font-family:Roboto-Bold;fill:#ffffff" class="st2" transform="translate(337.0053,-155.5493)" aria-label="0.724"></path>
 
 <text transform="translate(337.0053,-173.0113)" style="font-size:12px;font-family:Roboto-Bold;display:none;fill:#ffffff;enable-background:new" id="text112">0.726</text>
 <path d="m 6.276,-4.296 q 0,1.38 -0.288,2.376 Q 5.7,-0.936 5.076,-0.408 4.452,0.12 3.42,0.12 1.968,0.12 1.272,-1.044 0.588,-2.22 0.588,-4.296 q 0,-1.392 0.276,-2.376 0.288,-0.984 0.912,-1.5 Q 2.4,-8.7 3.42,-8.7 q 1.44,0 2.148,1.164 0.708,1.152 0.708,3.24 z m -4.632,0 q 0,1.764 0.396,2.64 0.408,0.876 1.38,0.876 0.96,0 1.368,-0.864 0.42,-0.876 0.42,-2.652 0,-1.752 -0.42,-2.628 Q 4.38,-7.8 3.42,-7.8 q -0.972,0 -1.38,0.876 -0.396,0.876 -0.396,2.628 z m 6.084006,3.648 q 0,-0.444 0.216,-0.624 0.216,-0.18 0.516,-0.18 0.312,0 0.528,0.18 0.228,0.18 0.228,0.624 0,0.432 -0.228,0.624 -0.216,0.192 -0.528,0.192 -0.3,0 -0.516,-0.192 -0.216,-0.192 -0.216,-0.624 z M 11.712002,0 l 3.516,-7.608 h -4.62 v -0.96 h 5.748 v 0.816 l -3.48,7.752 z m 11.472006,0 h -5.664 v -0.876 l 2.244,-2.268 q 0.648,-0.648 1.092,-1.152 0.444,-0.504 0.672,-0.984 0.228,-0.492 0.228,-1.068 0,-0.708 -0.42,-1.068 -0.42,-0.372 -1.092,-0.372 -0.624,0 -1.104,0.216 -0.468,0.216 -0.96,0.6 l -0.564,-0.708 q 0.504,-0.42 1.152,-0.708 0.66,-0.3 1.476,-0.3 1.2,0 1.896,0.612 0.696,0.6 0.696,1.668 0,0.672 -0.276,1.26 -0.276,0.588 -0.768,1.164 -0.492,0.564 -1.152,1.212 l -1.788,1.764 v 0.048 h 4.332 z m 4.044006,-8.688 q 1.128,0 1.848,0.528 0.72,0.528 0.72,1.524 0,0.516 -0.228,0.9 -0.216,0.384 -0.588,0.684 -0.372,0.288 -0.816,0.516 0.528,0.252 0.96,0.576 0.432,0.312 0.684,0.732 0.264,0.42 0.264,1.008 0,1.08 -0.768,1.716 -0.756,0.624 -2.04,0.624 -1.38,0 -2.124,-0.6 -0.744,-0.612 -0.744,-1.704 0,-0.588 0.24,-1.02 0.252,-0.432 0.66,-0.744 0.408,-0.312 0.876,-0.528 -0.624,-0.36 -1.068,-0.864 -0.432,-0.516 -0.432,-1.308 0,-0.66 0.336,-1.104 0.336,-0.456 0.912,-0.696 0.576,-0.24 1.308,-0.24 z m -0.012,0.852 q -0.66,0 -1.092,0.324 -0.42,0.312 -0.42,0.912 0,0.444 0.204,0.744 0.216,0.3 0.576,0.516 0.36,0.204 0.792,0.396 0.624,-0.264 1.044,-0.636 0.432,-0.372 0.432,-1.02 0,-0.6 -0.42,-0.912 -0.42,-0.324 -1.116,-0.324 z m -1.788,5.664 q 0,0.624 0.444,1.044 0.444,0.408 1.368,0.408 0.876,0 1.332,-0.408 0.468,-0.42 0.468,-1.08 0,-0.624 -0.492,-1.032 -0.492,-0.42 -1.308,-0.732 l -0.192,-0.072 q -0.792,0.336 -1.212,0.78 -0.408,0.432 -0.408,1.092 z" id="text113" style="font-size:12px;font-family:Roboto-Bold;fill:#ffffff" class="st2" transform="translate(337.0053,-190.4734)" aria-label="0.728"></path>
 
 <text transform="translate(343.5736,-207.9353)" style="font-size:12px;font-family:Roboto-Bold;display:none;fill:#ffffff;enable-background:new" id="text114">0.73</text>
 </g>
</g>
<path id="line115" class="st3" style="fill:none;stroke:#ffffff" d="M 42.740005,27.660007 V 202.28"></path>
<path id="rect115" class="st4" style="opacity:0.25;fill:none;stroke:#ffffff;stroke-miterlimit:10" d="M 42.520004,27.660007 H 311.52 V 201.66001 H 42.520004 Z"></path>
<g id="g121" transform="translate(-383.33,239.2)">
 <path id="line116" class="st5" style="opacity:0.25;fill:none;stroke:#ffffff;enable-background:new" d="M 425.85001,-211.53999 V -36.919998"></path>
 <path id="line117" class="st5" style="opacity:0.25;fill:none;stroke:#ffffff;enable-background:new" d="M 459.57001,-211.53999 V -36.919998"></path>
 <path id="line118" class="st5" style="opacity:0.25;fill:none;stroke:#ffffff;enable-background:new" d="M 527.02002,-211.53999 V -36.919998"></path>
 <path id="line119" class="st5" style="opacity:0.25;fill:none;stroke:#ffffff;enable-background:new" d="M 594.46002,-211.53999 V -36.919998"></path>
 <path id="line120" class="st5" style="opacity:0.25;fill:none;stroke:#ffffff;enable-background:new" d="M 661.90997,-211.53999 V -36.919998"></path>
 <path id="line121" class="st5" style="opacity:0.25;fill:none;stroke:#ffffff;enable-background:new" d="M 695.63,-211.53999 V -36.919998"></path>
</g>
<g id="g132" transform="translate(-383.33,239.2)">
 <path id="line122" class="st5" style="opacity:0.25;fill:none;stroke:#ffffff;enable-background:new" d="M 425.85001,-36.919998 H 695.63"></path>
 <path id="line123" class="st5" style="opacity:0.25;fill:none;stroke:#ffffff;enable-background:new" d="M 425.85001,-54.380001 H 695.63"></path>
 <path id="line124" class="st5" style="opacity:0.25;fill:none;stroke:#ffffff;enable-background:new" d="M 425.85001,-71.839996 H 695.63"></path>
 <path id="line125" class="st5" style="opacity:0.25;fill:none;stroke:#ffffff;enable-background:new" d="M 425.85001,-89.300003 H 695.63"></path>
 <path id="line126" class="st5" style="opacity:0.25;fill:none;stroke:#ffffff;enable-background:new" d="M 425.85001,-106.77 H 695.63"></path>
 <path id="line127" class="st5" style="opacity:0.25;fill:none;stroke:#ffffff;enable-background:new" d="M 425.85001,-124.23 H 695.63"></path>
 <path id="line128" class="st5" style="opacity:0.25;fill:none;stroke:#ffffff;enable-background:new" d="M 425.85001,-141.69 H 695.63"></path>
 <path id="line129" class="st5" style="opacity:0.25;fill:none;stroke:#ffffff;enable-background:new" d="M 425.85001,-159.14999 H 695.63"></path>
 <path id="line130" class="st5" style="opacity:0.25;fill:none;stroke:#ffffff;enable-background:new" d="M 425.85001,-176.61 H 695.63"></path>
 <path id="line131" class="st5" style="opacity:0.25;fill:none;stroke:#ffffff;enable-background:new" d="M 425.85001,-194.08 H 695.63"></path>
 <path id="line132" class="st5" style="opacity:0.25;fill:none;stroke:#ffffff;enable-background:new" d="M 425.85001,-211.53999 H 695.63"></path>
</g>
<path id="line133" class="st6" style="fill:none;stroke:#ffffff;stroke-width:1.5" d="M 76.240005,27.660007 V 202.28"></path>
<path id="rect133" class="st7" style="fill:none" d="M 42.520004,201.66 H 311.52 v 25 H 42.520004 Z"></path>
<g id="g139" transform="translate(-383.33,239.2)">
 <path id="line134" class="st3" style="fill:none;stroke:#ffffff" d="m 425.85001,-37.540001 v 5"></path>
 <path id="line135" class="st3" style="fill:none;stroke:#ffffff" d="m 459.57001,-37.540001 v 5"></path>
 <path id="line136" class="st3" style="fill:none;stroke:#ffffff" d="m 527.02002,-37.540001 v 5"></path>
 <path id="line137" class="st3" style="fill:none;stroke:#ffffff" d="m 594.46002,-37.540001 v 5"></path>
 <path id="line138" class="st3" style="fill:none;stroke:#ffffff" d="m 661.90997,-37.540001 v 5"></path>
 <path id="line139" class="st3" style="fill:none;stroke:#ffffff" d="m 695.63,-37.540001 v 5"></path>
</g>
<g transform="translate(-383.33,247.2)" id="g145">
 <g id="g144">
 
 <text transform="translate(408.2553,-26.1353)" style="font-size:12px;font-family:Roboto-Bold;display:none;fill:#ffffff;enable-background:new" id="text139">-500m</text>
 <path d="m 6.276,-4.296 q 0,1.38 -0.288,2.376 Q 5.7,-0.936 5.076,-0.408 4.452,0.12 3.42,0.12 1.968,0.12 1.272,-1.044 0.588,-2.22 0.588,-4.296 q 0,-1.392 0.276,-2.376 0.288,-0.984 0.912,-1.5 Q 2.4,-8.7 3.42,-8.7 q 1.44,0 2.148,1.164 0.708,1.152 0.708,3.24 z m -4.632,0 q 0,1.764 0.396,2.64 0.408,0.876 1.38,0.876 0.96,0 1.368,-0.864 0.42,-0.876 0.42,-2.652 0,-1.752 -0.42,-2.628 Q 4.38,-7.8 3.42,-7.8 q -0.972,0 -1.38,0.876 -0.396,0.876 -0.396,2.628 z" id="text140" style="font-size:12px;font-family:Roboto-Bold;fill:#ffffff" class="st2" transform="translate(456.2894,-26.1353)" aria-label="0"></path>
 <path d="M 4.26,0 H 3.228 v -5.988 q 0,-0.516 0.012,-0.828 0.012,-0.312 0.036,-0.648 -0.192,0.192 -0.348,0.324 -0.156,0.132 -0.396,0.336 L 1.62,-6.06 1.068,-6.768 3.384,-8.568 H 4.26 Z" id="text141" style="font-size:12px;font-family:Roboto-Bold;fill:#ffffff" class="st2" transform="translate(523.7343,-26.1353)" aria-label="1"></path>
 <path d="M 6.24,0 H 0.576 V -0.876 L 2.82,-3.144 Q 3.468,-3.792 3.912,-4.296 4.356,-4.8 4.584,-5.28 q 0.228,-0.492 0.228,-1.068 0,-0.708 -0.42,-1.068 -0.42,-0.372 -1.092,-0.372 -0.624,0 -1.104,0.216 -0.468,0.216 -0.96,0.6 L 0.672,-7.68 q 0.504,-0.42 1.152,-0.708 0.66,-0.3 1.476,-0.3 1.2,0 1.896,0.612 0.696,0.6 0.696,1.668 0,0.672 -0.276,1.26 Q 5.34,-4.56 4.848,-3.984 4.356,-3.42 3.696,-2.772 L 1.908,-1.008 V -0.96 H 6.24 Z" id="text142" style="font-size:12px;font-family:Roboto-Bold;fill:#ffffff" class="st2" transform="translate(591.1794,-26.1353)" aria-label="2"></path>
 <path d="m 5.916,-6.564 q 0,0.864 -0.48,1.38 -0.48,0.504 -1.296,0.672 v 0.048 q 1.032,0.12 1.536,0.648 0.504,0.528 0.504,1.38 0,0.744 -0.348,1.332 -0.348,0.576 -1.08,0.9 Q 4.032,0.12 2.892,0.12 2.22,0.12 1.644,0.012 1.068,-0.084 0.54,-0.348 v -0.984 q 0.54,0.264 1.164,0.42 0.624,0.144 1.2,0.144 1.152,0 1.656,-0.444 0.516,-0.456 0.516,-1.248 0,-0.804 -0.636,-1.152 -0.624,-0.36 -1.764,-0.36 H 1.848 v -0.9 h 0.84 q 1.056,0 1.596,-0.444 0.552,-0.444 0.552,-1.176 0,-0.624 -0.42,-0.96 Q 3.996,-7.8 3.276,-7.8 2.58,-7.8 2.088,-7.596 1.596,-7.392 1.116,-7.08 L 0.588,-7.8 q 0.456,-0.36 1.128,-0.624 0.684,-0.264 1.548,-0.264 1.344,0 1.992,0.6 0.66,0.6 0.66,1.524 z" id="text143" style="font-size:12px;font-family:Roboto-Bold;fill:#ffffff" class="st2" transform="translate(658.6243,-26.1353)" aria-label="3"></path>
 
 <text transform="translate(687.7765,-26.1353)" style="font-size:12px;font-family:Roboto-Bold;display:none;fill:#ffffff;enable-background:new" id="text144">3.5</text>
 </g>
</g>
<path id="line145" class="st3" style="fill:none;stroke:#ffffff" d="M 42.520004,201.66 H 312.30002"></path>
<g id="g153" transform="translate(-383.33,239.2)">
 <path id="line146" class="st3" style="fill:none;stroke:#ffffff" d="m 419.5,218.25 h -5"></path>
 <path id="line147" class="st3" style="fill:none;stroke:#ffffff" d="m 419.5,192.98 h -5"></path>
 <path id="line148" class="st3" style="fill:none;stroke:#ffffff" d="m 419.5,167.71001 h -5"></path>
 <path id="line149" class="st3" style="fill:none;stroke:#ffffff" d="m 419.5,142.44 h -5"></path>
 <path id="line150" class="st3" style="fill:none;stroke:#ffffff" d="m 419.5,117.16 h -5"></path>
 <path id="line151" class="st3" style="fill:none;stroke:#ffffff" d="m 419.5,91.889999 h -5"></path>
 <path id="line152" class="st3" style="fill:none;stroke:#ffffff" d="m 419.5,66.620003 h -5"></path>
 <path id="line153" class="st3" style="fill:none;stroke:#ffffff" d="m 419.5,41.349998 h -5"></path>
</g>
<g transform="translate(-341.798,239.2)" id="g161">
 <g id="g160">
 
 <text transform="translate(352.2616,221.8524)" style="font-size:12px;font-family:Roboto-Bold;display:none;fill:#ffffff;enable-background:new" id="text153">5.5</text>
 <path d="m 3.3,-5.256 q 1.32,0 2.1,0.66 0.78,0.66 0.78,1.86 0,1.332 -0.852,2.1 Q 4.488,0.12 2.976,0.12 2.316,0.12 1.728,0 1.152,-0.12 0.756,-0.348 v -0.996 q 0.432,0.264 1.044,0.42 0.624,0.144 1.188,0.144 0.948,0 1.524,-0.444 Q 5.1,-1.68 5.1,-2.628 q 0,-0.84 -0.516,-1.284 -0.516,-0.456 -1.632,-0.456 -0.336,0 -0.768,0.06 -0.432,0.06 -0.696,0.12 L 0.96,-4.524 1.284,-8.568 H 5.58 v 0.96 H 2.184 L 1.98,-5.124 Q 2.184,-5.16 2.532,-5.208 2.88,-5.256 3.3,-5.256 Z m 4.428006,4.608 q 0,-0.444 0.216,-0.624 0.216,-0.18 0.516,-0.18 0.312,0 0.528,0.18 0.228,0.18 0.228,0.624 0,0.432 -0.228,0.624 -0.216,0.192 -0.528,0.192 -0.3,0 -0.516,-0.192 -0.216,-0.192 -0.216,-0.624 z m 5.651996,-4.608 q 1.32,0 2.1,0.66 0.78,0.66 0.78,1.86 0,1.332 -0.852,2.1 -0.84,0.756 -2.352,0.756 -0.66,0 -1.248,-0.12 -0.576,-0.12 -0.972,-0.348 v -0.996 q 0.432,0.264 1.044,0.42 0.624,0.144 1.188,0.144 0.948,0 1.524,-0.444 0.588,-0.456 0.588,-1.404 0,-0.84 -0.516,-1.284 -0.516,-0.456 -1.632,-0.456 -0.336,0 -0.768,0.06 -0.432,0.06 -0.696,0.12 l -0.528,-0.336 0.324,-4.044 h 4.296 v 0.96 h -3.396 l -0.204,2.484 q 0.204,-0.036 0.552,-0.084 0.348,-0.048 0.768,-0.048 z m 6.864006,0 q 1.32,0 2.1,0.66 0.78,0.66 0.78,1.86 0,1.332 -0.852,2.1 -0.84,0.756 -2.352,0.756 -0.66,0 -1.248,-0.12 -0.576,-0.12 -0.972,-0.348 v -0.996 q 0.432,0.264 1.044,0.42 0.624,0.144 1.188,0.144 0.948,0 1.524,-0.444 0.588,-0.456 0.588,-1.404 0,-0.84 -0.516,-1.284 -0.516,-0.456 -1.632,-0.456 -0.336,0 -0.768,0.06 -0.432,0.06 -0.696,0.12 l -0.528,-0.336 0.324,-4.044 h 4.296 v 0.96 h -3.396 l -0.204,2.484 q 0.204,-0.036 0.552,-0.084 0.348,-0.048 0.768,-0.048 z" id="text154" style="font-size:12px;font-family:Roboto-Bold;fill:#ffffff" class="st2" transform="translate(345.6933,196.5809)" aria-label="5.55"></path>
 <path d="m 3.3,-5.256 q 1.32,0 2.1,0.66 0.78,0.66 0.78,1.86 0,1.332 -0.852,2.1 Q 4.488,0.12 2.976,0.12 2.316,0.12 1.728,0 1.152,-0.12 0.756,-0.348 v -0.996 q 0.432,0.264 1.044,0.42 0.624,0.144 1.188,0.144 0.948,0 1.524,-0.444 Q 5.1,-1.68 5.1,-2.628 q 0,-0.84 -0.516,-1.284 -0.516,-0.456 -1.632,-0.456 -0.336,0 -0.768,0.06 -0.432,0.06 -0.696,0.12 L 0.96,-4.524 1.284,-8.568 H 5.58 v 0.96 H 2.184 L 1.98,-5.124 Q 2.184,-5.16 2.532,-5.208 2.88,-5.256 3.3,-5.256 Z m 4.428006,4.608 q 0,-0.444 0.216,-0.624 0.216,-0.18 0.516,-0.18 0.312,0 0.528,0.18 0.228,0.18 0.228,0.624 0,0.432 -0.228,0.624 -0.216,0.192 -0.528,0.192 -0.3,0 -0.516,-0.192 -0.216,-0.192 -0.216,-0.624 z m 3.011996,-3.012 q 0,-0.924 0.156,-1.812 0.168,-0.9 0.588,-1.62 0.432,-0.732 1.2,-1.164 0.768,-0.432 1.98,-0.432 0.252,0 0.552,0.024 0.312,0.024 0.504,0.084 v 0.9 q -0.216,-0.072 -0.492,-0.108 -0.264,-0.036 -0.54,-0.036 -0.828,0 -1.38,0.276 -0.552,0.276 -0.876,0.756 -0.312,0.48 -0.456,1.104 -0.144,0.624 -0.18,1.332 h 0.072 q 0.276,-0.42 0.768,-0.708 0.492,-0.3 1.26,-0.3 1.116,0 1.8,0.684 0.684,0.672 0.684,1.92 0,1.344 -0.744,2.112 -0.732,0.768 -1.98,0.768 -0.816,0 -1.476,-0.408 -0.66,-0.408 -1.056,-1.248 -0.384,-0.84 -0.384,-2.124 z m 2.904,2.892 q 0.756,0 1.224,-0.48 0.468,-0.492 0.468,-1.512 0,-0.816 -0.42,-1.296 -0.408,-0.48 -1.236,-0.48 -0.564,0 -0.984,0.24 -0.42,0.228 -0.66,0.588 -0.228,0.36 -0.228,0.744 0,0.516 0.204,1.032 0.204,0.504 0.612,0.84 0.408,0.324 1.02,0.324 z" id="text155" style="font-size:12px;font-family:Roboto-Bold;fill:#ffffff" class="st2" transform="translate(352.2616,171.3095)" aria-label="5.6"></path>
 <path d="m 3.3,-5.256 q 1.32,0 2.1,0.66 0.78,0.66 0.78,1.86 0,1.332 -0.852,2.1 Q 4.488,0.12 2.976,0.12 2.316,0.12 1.728,0 1.152,-0.12 0.756,-0.348 v -0.996 q 0.432,0.264 1.044,0.42 0.624,0.144 1.188,0.144 0.948,0 1.524,-0.444 Q 5.1,-1.68 5.1,-2.628 q 0,-0.84 -0.516,-1.284 -0.516,-0.456 -1.632,-0.456 -0.336,0 -0.768,0.06 -0.432,0.06 -0.696,0.12 L 0.96,-4.524 1.284,-8.568 H 5.58 v 0.96 H 2.184 L 1.98,-5.124 Q 2.184,-5.16 2.532,-5.208 2.88,-5.256 3.3,-5.256 Z m 4.428006,4.608 q 0,-0.444 0.216,-0.624 0.216,-0.18 0.516,-0.18 0.312,0 0.528,0.18 0.228,0.18 0.228,0.624 0,0.432 -0.228,0.624 -0.216,0.192 -0.528,0.192 -0.3,0 -0.516,-0.192 -0.216,-0.192 -0.216,-0.624 z m 3.011996,-3.012 q 0,-0.924 0.156,-1.812 0.168,-0.9 0.588,-1.62 0.432,-0.732 1.2,-1.164 0.768,-0.432 1.98,-0.432 0.252,0 0.552,0.024 0.312,0.024 0.504,0.084 v 0.9 q -0.216,-0.072 -0.492,-0.108 -0.264,-0.036 -0.54,-0.036 -0.828,0 -1.38,0.276 -0.552,0.276 -0.876,0.756 -0.312,0.48 -0.456,1.104 -0.144,0.624 -0.18,1.332 h 0.072 q 0.276,-0.42 0.768,-0.708 0.492,-0.3 1.26,-0.3 1.116,0 1.8,0.684 0.684,0.672 0.684,1.92 0,1.344 -0.744,2.112 -0.732,0.768 -1.98,0.768 -0.816,0 -1.476,-0.408 -0.66,-0.408 -1.056,-1.248 -0.384,-0.84 -0.384,-2.124 z m 2.904,2.892 q 0.756,0 1.224,-0.48 0.468,-0.492 0.468,-1.512 0,-0.816 -0.42,-1.296 -0.408,-0.48 -1.236,-0.48 -0.564,0 -0.984,0.24 -0.42,0.228 -0.66,0.588 -0.228,0.36 -0.228,0.744 0,0.516 0.204,1.032 0.204,0.504 0.612,0.84 0.408,0.324 1.02,0.324 z m 6.600006,-4.488 q 1.32,0 2.1,0.66 0.78,0.66 0.78,1.86 0,1.332 -0.852,2.1 -0.84,0.756 -2.352,0.756 -0.66,0 -1.248,-0.12 -0.576,-0.12 -0.972,-0.348 v -0.996 q 0.432,0.264 1.044,0.42 0.624,0.144 1.188,0.144 0.948,0 1.524,-0.444 0.588,-0.456 0.588,-1.404 0,-0.84 -0.516,-1.284 -0.516,-0.456 -1.632,-0.456 -0.336,0 -0.768,0.06 -0.432,0.06 -0.696,0.12 l -0.528,-0.336 0.324,-4.044 h 4.296 v 0.96 h -3.396 l -0.204,2.484 q 0.204,-0.036 0.552,-0.084 0.348,-0.048 0.768,-0.048 z" id="text156" style="font-size:12px;font-family:Roboto-Bold;fill:#ffffff" class="st2" transform="translate(345.6933,146.0381)" aria-label="5.65"></path>
 <path d="m 3.3,-5.256 q 1.32,0 2.1,0.66 0.78,0.66 0.78,1.86 0,1.332 -0.852,2.1 Q 4.488,0.12 2.976,0.12 2.316,0.12 1.728,0 1.152,-0.12 0.756,-0.348 v -0.996 q 0.432,0.264 1.044,0.42 0.624,0.144 1.188,0.144 0.948,0 1.524,-0.444 Q 5.1,-1.68 5.1,-2.628 q 0,-0.84 -0.516,-1.284 -0.516,-0.456 -1.632,-0.456 -0.336,0 -0.768,0.06 -0.432,0.06 -0.696,0.12 L 0.96,-4.524 1.284,-8.568 H 5.58 v 0.96 H 2.184 L 1.98,-5.124 Q 2.184,-5.16 2.532,-5.208 2.88,-5.256 3.3,-5.256 Z m 4.428006,4.608 q 0,-0.444 0.216,-0.624 0.216,-0.18 0.516,-0.18 0.312,0 0.528,0.18 0.228,0.18 0.228,0.624 0,0.432 -0.228,0.624 -0.216,0.192 -0.528,0.192 -0.3,0 -0.516,-0.192 -0.216,-0.192 -0.216,-0.624 z M 11.712002,0 l 3.516,-7.608 h -4.62 v -0.96 h 5.748 v 0.816 l -3.48,7.752 z" id="text157" style="font-size:12px;font-family:Roboto-Bold;fill:#ffffff" class="st2" transform="translate(352.2616,120.7667)" aria-label="5.7"></path>
 <path d="m 3.3,-5.256 q 1.32,0 2.1,0.66 0.78,0.66 0.78,1.86 0,1.332 -0.852,2.1 Q 4.488,0.12 2.976,0.12 2.316,0.12 1.728,0 1.152,-0.12 0.756,-0.348 v -0.996 q 0.432,0.264 1.044,0.42 0.624,0.144 1.188,0.144 0.948,0 1.524,-0.444 Q 5.1,-1.68 5.1,-2.628 q 0,-0.84 -0.516,-1.284 -0.516,-0.456 -1.632,-0.456 -0.336,0 -0.768,0.06 -0.432,0.06 -0.696,0.12 L 0.96,-4.524 1.284,-8.568 H 5.58 v 0.96 H 2.184 L 1.98,-5.124 Q 2.184,-5.16 2.532,-5.208 2.88,-5.256 3.3,-5.256 Z m 4.428006,4.608 q 0,-0.444 0.216,-0.624 0.216,-0.18 0.516,-0.18 0.312,0 0.528,0.18 0.228,0.18 0.228,0.624 0,0.432 -0.228,0.624 -0.216,0.192 -0.528,0.192 -0.3,0 -0.516,-0.192 -0.216,-0.192 -0.216,-0.624 z M 11.712002,0 l 3.516,-7.608 h -4.62 v -0.96 h 5.748 v 0.816 l -3.48,7.752 z m 8.532006,-5.256 q 1.32,0 2.1,0.66 0.78,0.66 0.78,1.86 0,1.332 -0.852,2.1 -0.84,0.756 -2.352,0.756 -0.66,0 -1.248,-0.12 -0.576,-0.12 -0.972,-0.348 v -0.996 q 0.432,0.264 1.044,0.42 0.624,0.144 1.188,0.144 0.948,0 1.524,-0.444 0.588,-0.456 0.588,-1.404 0,-0.84 -0.516,-1.284 -0.516,-0.456 -1.632,-0.456 -0.336,0 -0.768,0.06 -0.432,0.06 -0.696,0.12 l -0.528,-0.336 0.324,-4.044 h 4.296 v 0.96 h -3.396 l -0.204,2.484 q 0.204,-0.036 0.552,-0.084 0.348,-0.048 0.768,-0.048 z" id="text158" style="font-size:12px;font-family:Roboto-Bold;fill:#ffffff" class="st2" transform="translate(345.6933,95.4952)" aria-label="5.75"></path>
 <path d="m 3.3,-5.256 q 1.32,0 2.1,0.66 0.78,0.66 0.78,1.86 0,1.332 -0.852,2.1 Q 4.488,0.12 2.976,0.12 2.316,0.12 1.728,0 1.152,-0.12 0.756,-0.348 v -0.996 q 0.432,0.264 1.044,0.42 0.624,0.144 1.188,0.144 0.948,0 1.524,-0.444 Q 5.1,-1.68 5.1,-2.628 q 0,-0.84 -0.516,-1.284 -0.516,-0.456 -1.632,-0.456 -0.336,0 -0.768,0.06 -0.432,0.06 -0.696,0.12 L 0.96,-4.524 1.284,-8.568 H 5.58 v 0.96 H 2.184 L 1.98,-5.124 Q 2.184,-5.16 2.532,-5.208 2.88,-5.256 3.3,-5.256 Z m 4.428006,4.608 q 0,-0.444 0.216,-0.624 0.216,-0.18 0.516,-0.18 0.312,0 0.528,0.18 0.228,0.18 0.228,0.624 0,0.432 -0.228,0.624 -0.216,0.192 -0.528,0.192 -0.3,0 -0.516,-0.192 -0.216,-0.192 -0.216,-0.624 z m 5.771996,-8.04 q 1.128,0 1.848,0.528 0.72,0.528 0.72,1.524 0,0.516 -0.228,0.9 -0.216,0.384 -0.588,0.684 -0.372,0.288 -0.816,0.516 0.528,0.252 0.96,0.576 0.432,0.312 0.684,0.732 0.264,0.42 0.264,1.008 0,1.08 -0.768,1.716 -0.756,0.624 -2.04,0.624 -1.38,0 -2.124,-0.6 -0.744,-0.612 -0.744,-1.704 0,-0.588 0.24,-1.02 0.252,-0.432 0.66,-0.744 0.408,-0.312 0.876,-0.528 -0.624,-0.36 -1.068,-0.864 -0.432,-0.516 -0.432,-1.308 0,-0.66 0.336,-1.104 0.336,-0.456 0.912,-0.696 0.576,-0.24 1.308,-0.24 z m -0.012,0.852 q -0.66,0 -1.092,0.324 -0.42,0.312 -0.42,0.912 0,0.444 0.204,0.744 0.216,0.3 0.576,0.516 0.36,0.204 0.792,0.396 0.624,-0.264 1.044,-0.636 0.432,-0.372 0.432,-1.02 0,-0.6 -0.42,-0.912 -0.42,-0.324 -1.116,-0.324 z m -1.788,5.664 q 0,0.624 0.444,1.044 0.444,0.408 1.368,0.408 0.876,0 1.332,-0.408 0.468,-0.42 0.468,-1.08 0,-0.624 -0.492,-1.032 -0.492,-0.42 -1.308,-0.732 l -0.192,-0.072 q -0.792,0.336 -1.212,0.78 -0.408,0.432 -0.408,1.092 z" id="text159" style="font-size:12px;font-family:Roboto-Bold;fill:#ffffff" class="st2" transform="translate(352.2616,70.2239)" aria-label="5.8"></path>
 
 <text transform="translate(345.6933,44.9524)" style="font-size:12px;font-family:Roboto-Bold;display:none;fill:#ffffff;enable-background:new" id="text160">5.85</text>
 </g>
</g>
<path id="line161" class="st3" style="fill:none;stroke:#ffffff" d="M 36.169998,280.54999 V 457.45001"></path>
<path id="rect161" class="st4" style="opacity:0.25;fill:none;stroke:#ffffff;stroke-miterlimit:10" d="M 35.639999,280.54999 H 313.64 v 176 H 35.639999 Z"></path>
<g id="g167" transform="translate(-383.33,239.2)">
 <path id="line162" class="st5" style="opacity:0.25;fill:none;stroke:#ffffff;enable-background:new" d="M 418.97,41.349998 V 218.25"></path>
 <path id="line163" class="st5" style="opacity:0.25;fill:none;stroke:#ffffff;enable-background:new" d="M 453.78,41.349998 V 218.25"></path>
 <path id="line164" class="st5" style="opacity:0.25;fill:none;stroke:#ffffff;enable-background:new" d="M 523.40002,41.349998 V 218.25"></path>
 <path id="line165" class="st5" style="opacity:0.25;fill:none;stroke:#ffffff;enable-background:new" d="M 593.01001,41.349998 V 218.25"></path>
 <path id="line166" class="st5" style="opacity:0.25;fill:none;stroke:#ffffff;enable-background:new" d="M 662.63,41.349998 V 218.25"></path>
 <path id="line167" class="st5" style="opacity:0.25;fill:none;stroke:#ffffff;enable-background:new" d="M 697.44,41.349998 V 218.25"></path>
</g>
<g id="g175" transform="translate(-383.33,239.2)">
 <path id="line168" class="st5" style="opacity:0.25;fill:none;stroke:#ffffff;enable-background:new" d="M 418.97,218.25 H 697.44"></path>
 <path id="line169" class="st5" style="opacity:0.25;fill:none;stroke:#ffffff;enable-background:new" d="M 418.97,192.98 H 697.44"></path>
 <path id="line170" class="st5" style="opacity:0.25;fill:none;stroke:#ffffff;enable-background:new" d="M 418.97,167.71001 H 697.44"></path>
 <path id="line171" class="st5" style="opacity:0.25;fill:none;stroke:#ffffff;enable-background:new" d="M 418.97,142.44 H 697.44"></path>
 <path id="line172" class="st5" style="opacity:0.25;fill:none;stroke:#ffffff;enable-background:new" d="M 418.97,117.16 H 697.44"></path>
 <path id="line173" class="st5" style="opacity:0.25;fill:none;stroke:#ffffff;enable-background:new" d="M 418.97,91.889999 H 697.44"></path>
 <path id="line174" class="st5" style="opacity:0.25;fill:none;stroke:#ffffff;enable-background:new" d="M 418.97,66.620003 H 697.44"></path>
 <path id="line175" class="st5" style="opacity:0.25;fill:none;stroke:#ffffff;enable-background:new" d="M 418.97,41.349998 H 697.44"></path>
</g>
<path id="line176" class="st6" style="fill:none;stroke:#ffffff;stroke-width:1.5" d="M 70.449997,280.54999 V 457.45001"></path>
<path id="rect176" class="st7" style="fill:none" d="M 35.639999,456.55002 H 313.64 v 23 H 35.639999 Z"></path>
<g transform="translate(-332.33,415.2)" id="g190">
 <g id="g189">
 <g id="g188">
 <g id="g182">
 <path id="line177" class="st3" style="fill:none;stroke:#ffffff" d="m 367.97,41.349998 v 5"></path>
 <path id="line178" class="st3" style="fill:none;stroke:#ffffff" d="m 402.78,41.349998 v 5"></path>
 <path id="line179" class="st3" style="fill:none;stroke:#ffffff" d="m 472.39999,41.349998 v 5"></path>
 <path id="line180" class="st3" style="fill:none;stroke:#ffffff" d="m 542.01001,41.349998 v 5"></path>
 <path id="line181" class="st3" style="fill:none;stroke:#ffffff" d="m 611.63,41.349998 v 5"></path>
 <path id="line182" class="st3" style="fill:none;stroke:#ffffff" d="m 646.44,41.349998 v 5"></path>
 </g>
 <g transform="translate(0,8)" id="g187">
 
 <text transform="translate(350.3749,52.7524)" style="font-size:12px;font-family:Roboto-Bold;display:none;fill:#ffffff;enable-background:new" id="text182">-500m</text>
 <path d="m 6.276,-4.296 q 0,1.38 -0.288,2.376 Q 5.7,-0.936 5.076,-0.408 4.452,0.12 3.42,0.12 1.968,0.12 1.272,-1.044 0.588,-2.22 0.588,-4.296 q 0,-1.392 0.276,-2.376 0.288,-0.984 0.912,-1.5 Q 2.4,-8.7 3.42,-8.7 q 1.44,0 2.148,1.164 0.708,1.152 0.708,3.24 z m -4.632,0 q 0,1.764 0.396,2.64 0.408,0.876 1.38,0.876 0.96,0 1.368,-0.864 0.42,-0.876 0.42,-2.652 0,-1.752 -0.42,-2.628 Q 4.38,-7.8 3.42,-7.8 q -0.972,0 -1.38,0.876 -0.396,0.876 -0.396,2.628 z" id="text183" style="font-size:12px;font-family:Roboto-Bold;fill:#ffffff" class="st2" transform="translate(399.4949,52.7524)" aria-label="0"></path>
 <path d="M 4.26,0 H 3.228 v -5.988 q 0,-0.516 0.012,-0.828 0.012,-0.312 0.036,-0.648 -0.192,0.192 -0.348,0.324 -0.156,0.132 -0.396,0.336 L 1.62,-6.06 1.068,-6.768 3.384,-8.568 H 4.26 Z" id="text184" style="font-size:12px;font-family:Roboto-Bold;fill:#ffffff" class="st2" transform="translate(469.1119,52.7524)" aria-label="1"></path>
 <path d="M 6.24,0 H 0.576 V -0.876 L 2.82,-3.144 Q 3.468,-3.792 3.912,-4.296 4.356,-4.8 4.584,-5.28 q 0.228,-0.492 0.228,-1.068 0,-0.708 -0.42,-1.068 -0.42,-0.372 -1.092,-0.372 -0.624,0 -1.104,0.216 -0.468,0.216 -0.96,0.6 L 0.672,-7.68 q 0.504,-0.42 1.152,-0.708 0.66,-0.3 1.476,-0.3 1.2,0 1.896,0.612 0.696,0.6 0.696,1.668 0,0.672 -0.276,1.26 Q 5.34,-4.56 4.848,-3.984 4.356,-3.42 3.696,-2.772 L 1.908,-1.008 V -0.96 H 6.24 Z" id="text185" style="font-size:12px;font-family:Roboto-Bold;fill:#ffffff" class="st2" transform="translate(538.7289,52.7524)" aria-label="2"></path>
 <path d="m 5.916,-6.564 q 0,0.864 -0.48,1.38 -0.48,0.504 -1.296,0.672 v 0.048 q 1.032,0.12 1.536,0.648 0.504,0.528 0.504,1.38 0,0.744 -0.348,1.332 -0.348,0.576 -1.08,0.9 Q 4.032,0.12 2.892,0.12 2.22,0.12 1.644,0.012 1.068,-0.084 0.54,-0.348 v -0.984 q 0.54,0.264 1.164,0.42 0.624,0.144 1.2,0.144 1.152,0 1.656,-0.444 0.516,-0.456 0.516,-1.248 0,-0.804 -0.636,-1.152 -0.624,-0.36 -1.764,-0.36 H 1.848 v -0.9 h 0.84 q 1.056,0 1.596,-0.444 0.552,-0.444 0.552,-1.176 0,-0.624 -0.42,-0.96 Q 3.996,-7.8 3.276,-7.8 2.58,-7.8 2.088,-7.596 1.596,-7.392 1.116,-7.08 L 0.588,-7.8 q 0.456,-0.36 1.128,-0.624 0.684,-0.264 1.548,-0.264 1.344,0 1.992,0.6 0.66,0.6 0.66,1.524 z" id="text186" style="font-size:12px;font-family:Roboto-Bold;fill:#ffffff" class="st2" transform="translate(608.3459,52.7524)" aria-label="3"></path>
 
 <text transform="translate(638.584,52.7524)" style="font-size:12px;font-family:Roboto-Bold;display:none;fill:#ffffff;enable-background:new" id="text187">3.5</text>
 </g>
 <path id="line187" class="st2" style="fill:#ffffff" d="M 367.97,41.349998 H 646.44"></path>
 </g>
 </g>
</g>
<g id="g219" transform="translate(-383.33,239.2)">
 <g id="g218">
 <g id="g217">
 <g id="g203">
 <path id="line190" class="st2" style="fill:#ffffff" d="m 773.92999,212.5 h -5"></path>
 <path id="line191" class="st2" style="fill:#ffffff" d="m 773.92999,199.07001 h -5"></path>
 <path id="line192" class="st2" style="fill:#ffffff" d="m 773.92999,185.64 h -5"></path>
 <path id="line193" class="st2" style="fill:#ffffff" d="m 773.92999,172.2 h -5"></path>
 <path id="line194" class="st2" style="fill:#ffffff" d="m 773.92999,158.77 h -5"></path>
 <path id="line195" class="st2" style="fill:#ffffff" d="m 773.92999,145.34 h -5"></path>
 <path id="line196" class="st2" style="fill:#ffffff" d="m 773.92999,131.91 h -5"></path>
 <path id="line197" class="st2" style="fill:#ffffff" d="m 773.92999,118.48 h -5"></path>
 <path id="line198" class="st2" style="fill:#ffffff" d="m 773.92999,105.04 h -5"></path>
 <path id="line199" class="st2" style="fill:#ffffff" d="m 773.92999,91.610001 h -5"></path>
 <path id="line200" class="st2" style="fill:#ffffff" d="m 773.92999,78.18 h -5"></path>
 <path id="line201" class="st2" style="fill:#ffffff" d="m 773.92999,64.75 h -5"></path>
 <path id="line202" class="st2" style="fill:#ffffff" d="m 773.92999,51.310001 h -5"></path>
 <path id="line203" class="st2" style="fill:#ffffff" d="m 773.92999,37.880001 h -5"></path>
 </g>
 <g transform="translate(40.175999)" id="g216">
 
 <text transform="translate(701.4788,216.1038)" style="font-size:12px;font-family:Roboto-Bold;display:none;fill:#ffffff;enable-background:new" id="text203">5.74</text>
 <path d="m 3.3,-5.256 q 1.32,0 2.1,0.66 0.78,0.66 0.78,1.86 0,1.332 -0.852,2.1 Q 4.488,0.12 2.976,0.12 2.316,0.12 1.728,0 1.152,-0.12 0.756,-0.348 v -0.996 q 0.432,0.264 1.044,0.42 0.624,0.144 1.188,0.144 0.948,0 1.524,-0.444 Q 5.1,-1.68 5.1,-2.628 q 0,-0.84 -0.516,-1.284 -0.516,-0.456 -1.632,-0.456 -0.336,0 -0.768,0.06 -0.432,0.06 -0.696,0.12 L 0.96,-4.524 1.284,-8.568 H 5.58 v 0.96 H 2.184 L 1.98,-5.124 Q 2.184,-5.16 2.532,-5.208 2.88,-5.256 3.3,-5.256 Z m 4.428006,4.608 q 0,-0.444 0.216,-0.624 0.216,-0.18 0.516,-0.18 0.312,0 0.528,0.18 0.228,0.18 0.228,0.624 0,0.432 -0.228,0.624 -0.216,0.192 -0.528,0.192 -0.3,0 -0.516,-0.192 -0.216,-0.192 -0.216,-0.624 z M 11.712002,0 l 3.516,-7.608 h -4.62 v -0.96 h 5.748 v 0.816 l -3.48,7.752 z m 5.892006,-3.66 q 0,-0.924 0.156,-1.812 0.168,-0.9 0.588,-1.62 0.432,-0.732 1.2,-1.164 0.768,-0.432 1.98,-0.432 0.252,0 0.552,0.024 0.312,0.024 0.504,0.084 v 0.9 q -0.216,-0.072 -0.492,-0.108 -0.264,-0.036 -0.54,-0.036 -0.828,0 -1.38,0.276 -0.552,0.276 -0.876,0.756 -0.312,0.48 -0.456,1.104 -0.144,0.624 -0.18,1.332 h 0.072 q 0.276,-0.42 0.768,-0.708 0.492,-0.3 1.26,-0.3 1.116,0 1.8,0.684 0.684,0.672 0.684,1.92 0,1.344 -0.744,2.112 -0.732,0.768 -1.98,0.768 -0.816,0 -1.476,-0.408 -0.66,-0.408 -1.056,-1.248 -0.384,-0.84 -0.384,-2.124 z m 2.904,2.892 q 0.756,0 1.224,-0.48 0.468,-0.492 0.468,-1.512 0,-0.816 -0.42,-1.296 -0.408,-0.48 -1.236,-0.48 -0.564,0 -0.984,0.24 -0.42,0.228 -0.66,0.588 -0.228,0.36 -0.228,0.744 0,0.516 0.204,1.032 0.204,0.504 0.612,0.84 0.408,0.324 1.02,0.324 z" id="text204" style="font-size:12px;font-family:Roboto-Bold;fill:#ffffff" class="st2" transform="translate(701.4788,202.6715)" aria-label="5.76"></path>
 
 <text transform="translate(701.4788,189.2392)" style="font-size:12px;font-family:Roboto-Bold;display:none;fill:#ffffff;enable-background:new" id="text205">5.78</text>
 <path d="m 3.3,-5.256 q 1.32,0 2.1,0.66 0.78,0.66 0.78,1.86 0,1.332 -0.852,2.1 Q 4.488,0.12 2.976,0.12 2.316,0.12 1.728,0 1.152,-0.12 0.756,-0.348 v -0.996 q 0.432,0.264 1.044,0.42 0.624,0.144 1.188,0.144 0.948,0 1.524,-0.444 Q 5.1,-1.68 5.1,-2.628 q 0,-0.84 -0.516,-1.284 -0.516,-0.456 -1.632,-0.456 -0.336,0 -0.768,0.06 -0.432,0.06 -0.696,0.12 L 0.96,-4.524 1.284,-8.568 H 5.58 v 0.96 H 2.184 L 1.98,-5.124 Q 2.184,-5.16 2.532,-5.208 2.88,-5.256 3.3,-5.256 Z m 4.428006,4.608 q 0,-0.444 0.216,-0.624 0.216,-0.18 0.516,-0.18 0.312,0 0.528,0.18 0.228,0.18 0.228,0.624 0,0.432 -0.228,0.624 -0.216,0.192 -0.528,0.192 -0.3,0 -0.516,-0.192 -0.216,-0.192 -0.216,-0.624 z m 5.771996,-8.04 q 1.128,0 1.848,0.528 0.72,0.528 0.72,1.524 0,0.516 -0.228,0.9 -0.216,0.384 -0.588,0.684 -0.372,0.288 -0.816,0.516 0.528,0.252 0.96,0.576 0.432,0.312 0.684,0.732 0.264,0.42 0.264,1.008 0,1.08 -0.768,1.716 -0.756,0.624 -2.04,0.624 -1.38,0 -2.124,-0.6 -0.744,-0.612 -0.744,-1.704 0,-0.588 0.24,-1.02 0.252,-0.432 0.66,-0.744 0.408,-0.312 0.876,-0.528 -0.624,-0.36 -1.068,-0.864 -0.432,-0.516 -0.432,-1.308 0,-0.66 0.336,-1.104 0.336,-0.456 0.912,-0.696 0.576,-0.24 1.308,-0.24 z m -0.012,0.852 q -0.66,0 -1.092,0.324 -0.42,0.312 -0.42,0.912 0,0.444 0.204,0.744 0.216,0.3 0.576,0.516 0.36,0.204 0.792,0.396 0.624,-0.264 1.044,-0.636 0.432,-0.372 0.432,-1.02 0,-0.6 -0.42,-0.912 -0.42,-0.324 -1.116,-0.324 z m -1.788,5.664 q 0,0.624 0.444,1.044 0.444,0.408 1.368,0.408 0.876,0 1.332,-0.408 0.468,-0.42 0.468,-1.08 0,-0.624 -0.492,-1.032 -0.492,-0.42 -1.308,-0.732 l -0.192,-0.072 q -0.792,0.336 -1.212,0.78 -0.408,0.432 -0.408,1.092 z" id="text206" style="font-size:12px;font-family:Roboto-Bold;fill:#ffffff" class="st2" transform="translate(708.0473,175.8068)" aria-label="5.8"></path>
 
 <text transform="translate(701.4788,162.3745)" style="font-size:12px;font-family:Roboto-Bold;display:none;fill:#ffffff;enable-background:new" id="text207">5.82</text>
 <path d="m 3.3,-5.256 q 1.32,0 2.1,0.66 0.78,0.66 0.78,1.86 0,1.332 -0.852,2.1 Q 4.488,0.12 2.976,0.12 2.316,0.12 1.728,0 1.152,-0.12 0.756,-0.348 v -0.996 q 0.432,0.264 1.044,0.42 0.624,0.144 1.188,0.144 0.948,0 1.524,-0.444 Q 5.1,-1.68 5.1,-2.628 q 0,-0.84 -0.516,-1.284 -0.516,-0.456 -1.632,-0.456 -0.336,0 -0.768,0.06 -0.432,0.06 -0.696,0.12 L 0.96,-4.524 1.284,-8.568 H 5.58 v 0.96 H 2.184 L 1.98,-5.124 Q 2.184,-5.16 2.532,-5.208 2.88,-5.256 3.3,-5.256 Z m 4.428006,4.608 q 0,-0.444 0.216,-0.624 0.216,-0.18 0.516,-0.18 0.312,0 0.528,0.18 0.228,0.18 0.228,0.624 0,0.432 -0.228,0.624 -0.216,0.192 -0.528,0.192 -0.3,0 -0.516,-0.192 -0.216,-0.192 -0.216,-0.624 z m 5.771996,-8.04 q 1.128,0 1.848,0.528 0.72,0.528 0.72,1.524 0,0.516 -0.228,0.9 -0.216,0.384 -0.588,0.684 -0.372,0.288 -0.816,0.516 0.528,0.252 0.96,0.576 0.432,0.312 0.684,0.732 0.264,0.42 0.264,1.008 0,1.08 -0.768,1.716 -0.756,0.624 -2.04,0.624 -1.38,0 -2.124,-0.6 -0.744,-0.612 -0.744,-1.704 0,-0.588 0.24,-1.02 0.252,-0.432 0.66,-0.744 0.408,-0.312 0.876,-0.528 -0.624,-0.36 -1.068,-0.864 -0.432,-0.516 -0.432,-1.308 0,-0.66 0.336,-1.104 0.336,-0.456 0.912,-0.696 0.576,-0.24 1.308,-0.24 z m -0.012,0.852 q -0.66,0 -1.092,0.324 -0.42,0.312 -0.42,0.912 0,0.444 0.204,0.744 0.216,0.3 0.576,0.516 0.36,0.204 0.792,0.396 0.624,-0.264 1.044,-0.636 0.432,-0.372 0.432,-1.02 0,-0.6 -0.42,-0.912 -0.42,-0.324 -1.116,-0.324 z m -1.788,5.664 q 0,0.624 0.444,1.044 0.444,0.408 1.368,0.408 0.876,0 1.332,-0.408 0.468,-0.42 0.468,-1.08 0,-0.624 -0.492,-1.032 -0.492,-0.42 -1.308,-0.732 l -0.192,-0.072 q -0.792,0.336 -1.212,0.78 -0.408,0.432 -0.408,1.092 z m 11.868006,0.228 h -1.248 V 0 h -1.02 v -1.944 h -4.104 v -0.9 l 4.032,-5.772 h 1.092 v 5.724 h 1.248 z m -2.268,-3.648 q 0,-0.624 0.024,-1.056 0.024,-0.444 0.036,-0.84 h -0.048 q -0.096,0.228 -0.24,0.492 -0.144,0.264 -0.276,0.444 l -2.568,3.66 h 3.072 z" id="text208" style="font-size:12px;font-family:Roboto-Bold;fill:#ffffff" class="st2" transform="translate(701.4788,148.9422)" aria-label="5.84"></path>
 
 <text transform="translate(701.4788,135.5099)" style="font-size:12px;font-family:Roboto-Bold;display:none;fill:#ffffff;enable-background:new" id="text209">5.86</text>
 <path d="m 3.3,-5.256 q 1.32,0 2.1,0.66 0.78,0.66 0.78,1.86 0,1.332 -0.852,2.1 Q 4.488,0.12 2.976,0.12 2.316,0.12 1.728,0 1.152,-0.12 0.756,-0.348 v -0.996 q 0.432,0.264 1.044,0.42 0.624,0.144 1.188,0.144 0.948,0 1.524,-0.444 Q 5.1,-1.68 5.1,-2.628 q 0,-0.84 -0.516,-1.284 -0.516,-0.456 -1.632,-0.456 -0.336,0 -0.768,0.06 -0.432,0.06 -0.696,0.12 L 0.96,-4.524 1.284,-8.568 H 5.58 v 0.96 H 2.184 L 1.98,-5.124 Q 2.184,-5.16 2.532,-5.208 2.88,-5.256 3.3,-5.256 Z m 4.428006,4.608 q 0,-0.444 0.216,-0.624 0.216,-0.18 0.516,-0.18 0.312,0 0.528,0.18 0.228,0.18 0.228,0.624 0,0.432 -0.228,0.624 -0.216,0.192 -0.528,0.192 -0.3,0 -0.516,-0.192 -0.216,-0.192 -0.216,-0.624 z m 5.771996,-8.04 q 1.128,0 1.848,0.528 0.72,0.528 0.72,1.524 0,0.516 -0.228,0.9 -0.216,0.384 -0.588,0.684 -0.372,0.288 -0.816,0.516 0.528,0.252 0.96,0.576 0.432,0.312 0.684,0.732 0.264,0.42 0.264,1.008 0,1.08 -0.768,1.716 -0.756,0.624 -2.04,0.624 -1.38,0 -2.124,-0.6 -0.744,-0.612 -0.744,-1.704 0,-0.588 0.24,-1.02 0.252,-0.432 0.66,-0.744 0.408,-0.312 0.876,-0.528 -0.624,-0.36 -1.068,-0.864 -0.432,-0.516 -0.432,-1.308 0,-0.66 0.336,-1.104 0.336,-0.456 0.912,-0.696 0.576,-0.24 1.308,-0.24 z m -0.012,0.852 q -0.66,0 -1.092,0.324 -0.42,0.312 -0.42,0.912 0,0.444 0.204,0.744 0.216,0.3 0.576,0.516 0.36,0.204 0.792,0.396 0.624,-0.264 1.044,-0.636 0.432,-0.372 0.432,-1.02 0,-0.6 -0.42,-0.912 -0.42,-0.324 -1.116,-0.324 z m -1.788,5.664 q 0,0.624 0.444,1.044 0.444,0.408 1.368,0.408 0.876,0 1.332,-0.408 0.468,-0.42 0.468,-1.08 0,-0.624 -0.492,-1.032 -0.492,-0.42 -1.308,-0.732 l -0.192,-0.072 q -0.792,0.336 -1.212,0.78 -0.408,0.432 -0.408,1.092 z m 8.664006,-6.516 q 1.128,0 1.848,0.528 0.72,0.528 0.72,1.524 0,0.516 -0.228,0.9 -0.216,0.384 -0.588,0.684 -0.372,0.288 -0.816,0.516 0.528,0.252 0.96,0.576 0.432,0.312 0.684,0.732 0.264,0.42 0.264,1.008 0,1.08 -0.768,1.716 -0.756,0.624 -2.04,0.624 -1.38,0 -2.124,-0.6 -0.744,-0.612 -0.744,-1.704 0,-0.588 0.24,-1.02 0.252,-0.432 0.66,-0.744 0.408,-0.312 0.876,-0.528 -0.624,-0.36 -1.068,-0.864 -0.432,-0.516 -0.432,-1.308 0,-0.66 0.336,-1.104 0.336,-0.456 0.912,-0.696 0.576,-0.24 1.308,-0.24 z m -0.012,0.852 q -0.66,0 -1.092,0.324 -0.42,0.312 -0.42,0.912 0,0.444 0.204,0.744 0.216,0.3 0.576,0.516 0.36,0.204 0.792,0.396 0.624,-0.264 1.044,-0.636 0.432,-0.372 0.432,-1.02 0,-0.6 -0.42,-0.912 -0.42,-0.324 -1.116,-0.324 z m -1.788,5.664 q 0,0.624 0.444,1.044 0.444,0.408 1.368,0.408 0.876,0 1.332,-0.408 0.468,-0.42 0.468,-1.08 0,-0.624 -0.492,-1.032 -0.492,-0.42 -1.308,-0.732 l -0.192,-0.072 q -0.792,0.336 -1.212,0.78 -0.408,0.432 -0.408,1.092 z" id="text210" style="font-size:12px;font-family:Roboto-Bold;fill:#ffffff" class="st2" transform="translate(701.4788,122.0777)" aria-label="5.88"></path>
 
 <text transform="translate(708.0473,108.6453)" style="font-size:12px;font-family:Roboto-Bold;display:none;fill:#ffffff;enable-background:new" id="text211">5.9</text>
 <path d="m 3.3,-5.256 q 1.32,0 2.1,0.66 0.78,0.66 0.78,1.86 0,1.332 -0.852,2.1 Q 4.488,0.12 2.976,0.12 2.316,0.12 1.728,0 1.152,-0.12 0.756,-0.348 v -0.996 q 0.432,0.264 1.044,0.42 0.624,0.144 1.188,0.144 0.948,0 1.524,-0.444 Q 5.1,-1.68 5.1,-2.628 q 0,-0.84 -0.516,-1.284 -0.516,-0.456 -1.632,-0.456 -0.336,0 -0.768,0.06 -0.432,0.06 -0.696,0.12 L 0.96,-4.524 1.284,-8.568 H 5.58 v 0.96 H 2.184 L 1.98,-5.124 Q 2.184,-5.16 2.532,-5.208 2.88,-5.256 3.3,-5.256 Z m 4.428006,4.608 q 0,-0.444 0.216,-0.624 0.216,-0.18 0.516,-0.18 0.312,0 0.528,0.18 0.228,0.18 0.228,0.624 0,0.432 -0.228,0.624 -0.216,0.192 -0.528,0.192 -0.3,0 -0.516,-0.192 -0.216,-0.192 -0.216,-0.624 z m 8.591996,-4.26 q 0,0.924 -0.168,1.824 -0.156,0.888 -0.588,1.62 -0.42,0.72 -1.2,1.152 -0.768,0.432 -1.98,0.432 -0.24,0 -0.564,-0.036 -0.312,-0.024 -0.516,-0.084 v -0.9 q 0.468,0.156 1.056,0.156 0.84,0 1.38,-0.276 0.552,-0.276 0.876,-0.744 0.324,-0.48 0.468,-1.104 0.144,-0.636 0.168,-1.332 h -0.072 q -0.264,0.408 -0.768,0.708 -0.492,0.288 -1.272,0.288 -1.104,0 -1.788,-0.672 -0.672,-0.684 -0.672,-1.92 0,-0.9 0.336,-1.548 0.348,-0.648 0.96,-0.996 0.612,-0.348 1.44,-0.348 0.816,0 1.476,0.42 0.66,0.408 1.044,1.248 0.384,0.828 0.384,2.112 z m -2.904,-2.892 q -0.744,0 -1.224,0.492 -0.468,0.492 -0.468,1.5 0,0.828 0.396,1.308 0.408,0.468 1.248,0.468 0.576,0 0.996,-0.228 0.42,-0.24 0.648,-0.6 0.24,-0.36 0.24,-0.744 0,-0.516 -0.204,-1.02 -0.204,-0.504 -0.612,-0.84 -0.408,-0.336 -1.02,-0.336 z M 23.184008,0 h -5.664 v -0.876 l 2.244,-2.268 q 0.648,-0.648 1.092,-1.152 0.444,-0.504 0.672,-0.984 0.228,-0.492 0.228,-1.068 0,-0.708 -0.42,-1.068 -0.42,-0.372 -1.092,-0.372 -0.624,0 -1.104,0.216 -0.468,0.216 -0.96,0.6 l -0.564,-0.708 q 0.504,-0.42 1.152,-0.708 0.66,-0.3 1.476,-0.3 1.2,0 1.896,0.612 0.696,0.6 0.696,1.668 0,0.672 -0.276,1.26 -0.276,0.588 -0.768,1.164 -0.492,0.564 -1.152,1.212 l -1.788,1.764 v 0.048 h 4.332 z" id="text212" style="font-size:12px;font-family:Roboto-Bold;fill:#ffffff" class="st2" transform="translate(701.4788,95.213)" aria-label="5.92"></path>
 
 <text transform="translate(701.4788,81.7807)" style="font-size:12px;font-family:Roboto-Bold;display:none;fill:#ffffff;enable-background:new" id="text213">5.94</text>
 <path d="m 3.3,-5.256 q 1.32,0 2.1,0.66 0.78,0.66 0.78,1.86 0,1.332 -0.852,2.1 Q 4.488,0.12 2.976,0.12 2.316,0.12 1.728,0 1.152,-0.12 0.756,-0.348 v -0.996 q 0.432,0.264 1.044,0.42 0.624,0.144 1.188,0.144 0.948,0 1.524,-0.444 Q 5.1,-1.68 5.1,-2.628 q 0,-0.84 -0.516,-1.284 -0.516,-0.456 -1.632,-0.456 -0.336,0 -0.768,0.06 -0.432,0.06 -0.696,0.12 L 0.96,-4.524 1.284,-8.568 H 5.58 v 0.96 H 2.184 L 1.98,-5.124 Q 2.184,-5.16 2.532,-5.208 2.88,-5.256 3.3,-5.256 Z m 4.428006,4.608 q 0,-0.444 0.216,-0.624 0.216,-0.18 0.516,-0.18 0.312,0 0.528,0.18 0.228,0.18 0.228,0.624 0,0.432 -0.228,0.624 -0.216,0.192 -0.528,0.192 -0.3,0 -0.516,-0.192 -0.216,-0.192 -0.216,-0.624 z m 8.591996,-4.26 q 0,0.924 -0.168,1.824 -0.156,0.888 -0.588,1.62 -0.42,0.72 -1.2,1.152 -0.768,0.432 -1.98,0.432 -0.24,0 -0.564,-0.036 -0.312,-0.024 -0.516,-0.084 v -0.9 q 0.468,0.156 1.056,0.156 0.84,0 1.38,-0.276 0.552,-0.276 0.876,-0.744 0.324,-0.48 0.468,-1.104 0.144,-0.636 0.168,-1.332 h -0.072 q -0.264,0.408 -0.768,0.708 -0.492,0.288 -1.272,0.288 -1.104,0 -1.788,-0.672 -0.672,-0.684 -0.672,-1.92 0,-0.9 0.336,-1.548 0.348,-0.648 0.96,-0.996 0.612,-0.348 1.44,-0.348 0.816,0 1.476,0.42 0.66,0.408 1.044,1.248 0.384,0.828 0.384,2.112 z m -2.904,-2.892 q -0.744,0 -1.224,0.492 -0.468,0.492 -0.468,1.5 0,0.828 0.396,1.308 0.408,0.468 1.248,0.468 0.576,0 0.996,-0.228 0.42,-0.24 0.648,-0.6 0.24,-0.36 0.24,-0.744 0,-0.516 -0.204,-1.02 -0.204,-0.504 -0.612,-0.84 -0.408,-0.336 -1.02,-0.336 z m 4.188006,4.14 q 0,-0.924 0.156,-1.812 0.168,-0.9 0.588,-1.62 0.432,-0.732 1.2,-1.164 0.768,-0.432 1.98,-0.432 0.252,0 0.552,0.024 0.312,0.024 0.504,0.084 v 0.9 q -0.216,-0.072 -0.492,-0.108 -0.264,-0.036 -0.54,-0.036 -0.828,0 -1.38,0.276 -0.552,0.276 -0.876,0.756 -0.312,0.48 -0.456,1.104 -0.144,0.624 -0.18,1.332 h 0.072 q 0.276,-0.42 0.768,-0.708 0.492,-0.3 1.26,-0.3 1.116,0 1.8,0.684 0.684,0.672 0.684,1.92 0,1.344 -0.744,2.112 -0.732,0.768 -1.98,0.768 -0.816,0 -1.476,-0.408 -0.66,-0.408 -1.056,-1.248 -0.384,-0.84 -0.384,-2.124 z m 2.904,2.892 q 0.756,0 1.224,-0.48 0.468,-0.492 0.468,-1.512 0,-0.816 -0.42,-1.296 -0.408,-0.48 -1.236,-0.48 -0.564,0 -0.984,0.24 -0.42,0.228 -0.66,0.588 -0.228,0.36 -0.228,0.744 0,0.516 0.204,1.032 0.204,0.504 0.612,0.84 0.408,0.324 1.02,0.324 z" id="text214" style="font-size:12px;font-family:Roboto-Bold;fill:#ffffff" class="st2" transform="translate(701.4788,68.3484)" aria-label="5.96"></path>
 
 <text transform="translate(701.4788,54.916)" style="font-size:12px;font-family:Roboto-Bold;display:none;fill:#ffffff;enable-background:new" id="text215">5.98</text>
 
 <text transform="translate(717.1879,41.4838)" style="font-size:12px;font-family:Roboto-Bold;display:none;fill:#ffffff;enable-background:new" id="text216">6</text>
 </g>
 <path id="line216" class="st2" style="fill:#ffffff" d="M 773.92999,37.880001 V 212.5"></path>
 </g>
 </g>
</g>
<path id="rect219" class="st4" style="opacity:0.25;fill:none;stroke:#ffffff;stroke-miterlimit:10" d="m 390.43002,277.07999 h 279 v 174 h -279 z"></path>
<g id="g224" transform="translate(-383.33,239.2)">
 <path id="line219" class="st5" style="opacity:0.25;fill:none;stroke:#ffffff;enable-background:new" d="M 773.76001,37.880001 V 212.5"></path>
 <path id="line220" class="st5" style="opacity:0.25;fill:none;stroke:#ffffff;enable-background:new" d="M 808.73999,37.880001 V 212.5"></path>
 <path id="line221" class="st5" style="opacity:0.25;fill:none;stroke:#ffffff;enable-background:new" d="M 878.69,37.880001 V 212.5"></path>
 <path id="line222" class="st5" style="opacity:0.25;fill:none;stroke:#ffffff;enable-background:new" d="M 948.65002,37.880001 V 212.5"></path>
 <path id="line223" class="st5" style="opacity:0.25;fill:none;stroke:#ffffff;enable-background:new" d="M 1018.6,37.880001 V 212.5"></path>
 <path id="line224" class="st5" style="opacity:0.25;fill:none;stroke:#ffffff;enable-background:new" d="M 1053.58,37.880001 V 212.5"></path>
</g>
<g id="g238" transform="translate(-383.33,239.2)">
 <path id="line225" class="st5" style="opacity:0.25;fill:none;stroke:#ffffff;enable-background:new" d="M 773.76001,212.5 H 1053.58"></path>
 <path id="line226" class="st5" style="opacity:0.25;fill:none;stroke:#ffffff;enable-background:new" d="M 773.76001,199.07001 H 1053.58"></path>
 <path id="line227" class="st5" style="opacity:0.25;fill:none;stroke:#ffffff;enable-background:new" d="M 773.76001,185.64 H 1053.58"></path>
 <path id="line228" class="st5" style="opacity:0.25;fill:none;stroke:#ffffff;enable-background:new" d="M 773.76001,172.2 H 1053.58"></path>
 <path id="line229" class="st5" style="opacity:0.25;fill:none;stroke:#ffffff;enable-background:new" d="M 773.76001,158.77 H 1053.58"></path>
 <path id="line230" class="st5" style="opacity:0.25;fill:none;stroke:#ffffff;enable-background:new" d="M 773.76001,145.34 H 1053.58"></path>
 <path id="line231" class="st5" style="opacity:0.25;fill:none;stroke:#ffffff;enable-background:new" d="M 773.76001,131.91 H 1053.58"></path>
 <path id="line232" class="st5" style="opacity:0.25;fill:none;stroke:#ffffff;enable-background:new" d="M 773.76001,118.48 H 1053.58"></path>
 <path id="line233" class="st5" style="opacity:0.25;fill:none;stroke:#ffffff;enable-background:new" d="M 773.76001,105.04 H 1053.58"></path>
 <path id="line234" class="st5" style="opacity:0.25;fill:none;stroke:#ffffff;enable-background:new" d="M 773.76001,91.610001 H 1053.58"></path>
 <path id="line235" class="st5" style="opacity:0.25;fill:none;stroke:#ffffff;enable-background:new" d="M 773.76001,78.18 H 1053.58"></path>
 <path id="line236" class="st5" style="opacity:0.25;fill:none;stroke:#ffffff;enable-background:new" d="M 773.76001,64.75 H 1053.58"></path>
 <path id="line237" class="st5" style="opacity:0.25;fill:none;stroke:#ffffff;enable-background:new" d="M 773.76001,51.310001 H 1053.58"></path>
 <path id="line238" class="st5" style="opacity:0.25;fill:none;stroke:#ffffff;enable-background:new" d="M 773.76001,37.880001 H 1053.58"></path>
</g>
<path id="line239" class="st6" style="fill:none;stroke:#ffffff;stroke-width:1.5" d="M 425.41,277.07999 V 451.70001"></path>
<g id="g251" transform="translate(-383.33,239.2)">
 <g id="g241">
 <g id="g240">
 <g id="g239">
 <path class="st8" d="m 814,-144.87 67.45,-36.03 67.45,123.16 67.45,-135.73" id="path239"></path>
 </g>
 </g>
 </g>
 <g id="g244">
 <g id="g243">
 <g id="g242">
 <path class="st8" d="m 459.57,-45.92 67.45,-93.74 67.44,-39.36 67.44,-9.97" id="path241"></path>
 </g>
 </g>
 </g>
 <g id="g247">
 <g id="g246">
 <g id="g245">
 <path class="st8" d="m 453.78,71.31 69.62,79.51 69.62,35.44 69.62,17.39" id="path244"></path>
 </g>
 </g>
 </g>
 <g id="g250">
 <g id="g249">
 <g id="g248">
 <path class="st8" d="m 808.74,143.48 69.96,54.43 69.96,-152.2 69.96,148.16" id="path247"></path>
 </g>
 </g>
 </g>
</g>
<path id="rect251" class="st7" style="fill:none" d="m 390.43002,451.08002 h 279 v 25 h -279 z"></path>
<g transform="translate(-333.33,413.2)" id="g264">
 <g id="g263">
 <g id="g262">
 <g id="g256">
 <path id="line251" class="st3" style="fill:none;stroke:#ffffff" d="m 723.76001,37.880001 v 5"></path>
 <path id="line252" class="st3" style="fill:none;stroke:#ffffff" d="m 758.73999,37.880001 v 5"></path>
 <path id="line253" class="st3" style="fill:none;stroke:#ffffff" d="m 828.69,37.880001 v 5"></path>
 <path id="line254" class="st3" style="fill:none;stroke:#ffffff" d="m 898.65002,37.880001 v 5"></path>
 <path id="line255" class="st3" style="fill:none;stroke:#ffffff" d="m 968.59998,37.880001 v 5"></path>
 <path id="line256" class="st3" style="fill:none;stroke:#ffffff" d="m 1003.58,37.880001 v 5"></path>
 </g>
 <g transform="translate(0,8)" id="g261">
 
 <text transform="translate(706.1607,49.2838)" style="font-size:12px;font-family:Roboto-Bold;display:none;fill:#ffffff;enable-background:new" id="text256">-500m</text>
 <path d="m 6.276,-4.296 q 0,1.38 -0.288,2.376 Q 5.7,-0.936 5.076,-0.408 4.452,0.12 3.42,0.12 1.968,0.12 1.272,-1.044 0.588,-2.22 0.588,-4.296 q 0,-1.392 0.276,-2.376 0.288,-0.984 0.912,-1.5 Q 2.4,-8.7 3.42,-8.7 q 1.44,0 2.148,1.164 0.708,1.152 0.708,3.24 z m -4.632,0 q 0,1.764 0.396,2.64 0.408,0.876 1.38,0.876 0.96,0 1.368,-0.864 0.42,-0.876 0.42,-2.652 0,-1.752 -0.42,-2.628 Q 4.38,-7.8 3.42,-7.8 q -0.972,0 -1.38,0.876 -0.396,0.876 -0.396,2.628 z" id="text257" style="font-size:12px;font-family:Roboto-Bold;fill:#ffffff" class="st2" transform="translate(755.4501,49.2838)" aria-label="0"></path>
 <path d="M 4.26,0 H 3.228 v -5.988 q 0,-0.516 0.012,-0.828 0.012,-0.312 0.036,-0.648 -0.192,0.192 -0.348,0.324 -0.156,0.132 -0.396,0.336 L 1.62,-6.06 1.068,-6.768 3.384,-8.568 H 4.26 Z" id="text258" style="font-size:12px;font-family:Roboto-Bold;fill:#ffffff" class="st2" transform="translate(825.4062,49.2838)" aria-label="1"></path>
 <path d="M 6.24,0 H 0.576 V -0.876 L 2.82,-3.144 Q 3.468,-3.792 3.912,-4.296 4.356,-4.8 4.584,-5.28 q 0.228,-0.492 0.228,-1.068 0,-0.708 -0.42,-1.068 -0.42,-0.372 -1.092,-0.372 -0.624,0 -1.104,0.216 -0.468,0.216 -0.96,0.6 L 0.672,-7.68 q 0.504,-0.42 1.152,-0.708 0.66,-0.3 1.476,-0.3 1.2,0 1.896,0.612 0.696,0.6 0.696,1.668 0,0.672 -0.276,1.26 Q 5.34,-4.56 4.848,-3.984 4.356,-3.42 3.696,-2.772 L 1.908,-1.008 V -0.96 H 6.24 Z" id="text259" style="font-size:12px;font-family:Roboto-Bold;fill:#ffffff" class="st2" transform="translate(895.3621,49.2838)" aria-label="2"></path>
 <path d="m 5.916,-6.564 q 0,0.864 -0.48,1.38 -0.48,0.504 -1.296,0.672 v 0.048 q 1.032,0.12 1.536,0.648 0.504,0.528 0.504,1.38 0,0.744 -0.348,1.332 -0.348,0.576 -1.08,0.9 Q 4.032,0.12 2.892,0.12 2.22,0.12 1.644,0.012 1.068,-0.084 0.54,-0.348 v -0.984 q 0.54,0.264 1.164,0.42 0.624,0.144 1.2,0.144 1.152,0 1.656,-0.444 0.516,-0.456 0.516,-1.248 0,-0.804 -0.636,-1.152 -0.624,-0.36 -1.764,-0.36 H 1.848 v -0.9 h 0.84 q 1.056,0 1.596,-0.444 0.552,-0.444 0.552,-1.176 0,-0.624 -0.42,-0.96 Q 3.996,-7.8 3.276,-7.8 2.58,-7.8 2.088,-7.596 1.596,-7.392 1.116,-7.08 L 0.588,-7.8 q 0.456,-0.36 1.128,-0.624 0.684,-0.264 1.548,-0.264 1.344,0 1.992,0.6 0.66,0.6 0.66,1.524 z" id="text260" style="font-size:12px;font-family:Roboto-Bold;fill:#ffffff" class="st2" transform="translate(965.3182,49.2838)" aria-label="3"></path>
 
 <text transform="translate(995.7259,49.2838)" style="font-size:12px;font-family:Roboto-Bold;display:none;fill:#ffffff;enable-background:new" id="text261">3.5</text>
 </g>
 <path id="line261" class="st2" style="fill:#ffffff" d="M 723.76001,37.880001 H 1003.58"></path>
 </g>
 </g>
</g>
<path class="st2" d="m 385.53061,5.1490852 v 1.55 h 1.07 v 1.2 h -1.07 v 3.2299998 c 0,0.25 0.05,0.42 0.16,0.53 0.11,0.11 0.24,0.16 0.41,0.16 0.09,0 0.17,0 0.23,-0.01 0.06,-0.01 0.14,-0.03 0.23,-0.05 l 0.14,1.24 c -0.17,0.06 -0.34,0.1 -0.5,0.13 -0.16,0.03 -0.34,0.04 -0.53,0.04 -0.59,0 -1.04,-0.16 -1.36,-0.49 -0.32,-0.33 -0.48,-0.84 -0.48,-1.54 V 7.9090852 h -0.93 v -1.2 h 0.93 v -1.56 z" id="path6-3" style="fill:#ffffff"></path><path class="st2" d="m 390.41061,13.169085 c -0.95,0 -1.68,-0.29 -2.21,-0.87 -0.53,-0.58 -0.8,-1.33 -0.8,-2.24 V 9.8290852 c 0,-0.95 0.26,-1.73 0.77,-2.33 0.51,-0.6 1.22,-0.91 2.13,-0.9 0.85,0 1.5,0.26 1.96,0.78 0.46,0.52 0.68,1.22 0.68,2.11 v 0.8799998 h -3.78 l -0.02,0.04 c 0.03,0.43 0.16,0.79 0.4,1.05 0.24,0.26 0.59,0.4 1.05,0.4 0.38,0 0.71,-0.04 0.98,-0.12 0.27,-0.08 0.54,-0.2 0.83,-0.36 l 0.46,1.05 c -0.25,0.21 -0.6,0.38 -1.03,0.52 -0.43,0.14 -0.91,0.22 -1.42,0.22 z m -0.11,-5.2599998 c -0.34,0 -0.61,0.12 -0.79,0.35 -0.18,0.23 -0.3,0.55 -0.34,0.94 l 0.01,0.03 h 2.09 v -0.13 c 0,-0.37 -0.08,-0.66 -0.23,-0.88 -0.15,-0.22 -0.4,-0.31 -0.74,-0.31 z" id="path7-6" style="fill:#ffffff"></path><path class="st2" d="m 397.36061,11.289085 c 0,-0.19 -0.09,-0.35 -0.27,-0.48 -0.18,-0.13 -0.52,-0.25 -1.01,-0.35 -0.74,-0.15 -1.31,-0.37 -1.69,-0.6699998 -0.38,-0.3 -0.58,-0.71 -0.58,-1.22 0,-0.54 0.23,-1.01 0.69,-1.39 0.46,-0.38 1.07,-0.57 1.84,-0.57 0.8,0 1.44,0.19 1.92,0.57 0.48,0.38 0.71,0.86 0.69,1.43 l -0.01,0.04 h -1.65 c 0,-0.25 -0.08,-0.46 -0.25,-0.62 -0.17,-0.16 -0.4,-0.24 -0.71,-0.24 -0.27,0 -0.49,0.07 -0.65,0.21 -0.16,0.14 -0.24,0.3 -0.24,0.5 0,0.2 0.08,0.35 0.25,0.48 0.17,0.13 0.5,0.23 1.01,0.33 0.78,0.16 1.36,0.39 1.74,0.69 0.38,0.2999998 0.57,0.7199998 0.57,1.2499998 0,0.57 -0.24,1.04 -0.73,1.4 -0.49,0.36 -1.13,0.54 -1.93,0.54 -0.84,0 -1.51,-0.21 -2,-0.64 -0.49,-0.43 -0.72,-0.92 -0.7,-1.46 l 0.01,-0.04 h 1.56 c 0.01,0.34 0.12,0.59 0.33,0.74 0.21,0.15 0.49,0.23 0.83,0.23 0.32,0 0.56,-0.06 0.72,-0.19 0.16,-0.13 0.26,-0.32 0.26,-0.54 z" id="path8-1" style="fill:#ffffff"></path><path class="st2" d="m 402.17061,5.1490852 v 1.55 h 1.07 v 1.2 h -1.07 v 3.2299998 c 0,0.25 0.05,0.42 0.16,0.53 0.11,0.11 0.24,0.16 0.41,0.16 0.09,0 0.17,0 0.23,-0.01 0.06,-0.01 0.14,-0.03 0.23,-0.05 l 0.14,1.24 c -0.17,0.06 -0.34,0.1 -0.5,0.13 -0.16,0.03 -0.34,0.04 -0.53,0.04 -0.59,0 -1.04,-0.16 -1.36,-0.49 -0.32,-0.33 -0.48,-0.84 -0.48,-1.54 V 7.9090852 h -0.93 v -1.2 h 0.93 v -1.56 z" id="path9-2" style="fill:#ffffff"></path></svg> 