<?xml version="1.0"?>
 <!-- Generator: Adobe Illustrator 26.3.1, SVG Export Plug-In . SVG Version: 6.00 Build 0) --> <svg version="1.1" id="Layer_1" x="0px" y="0px" viewBox="0 0 787.91102 483.20001" xml:space="preserve" sodipodi:docname="arquiteturas.svg" width="787.91101" height="483.20001" inkscape:version="1.3 (0e150ed6c4, 2023-07-21)" xmlns:inkscape="http://www.inkscape.org/namespaces/inkscape" xmlns:sodipodi="http://sodipodi.sourceforge.net/DTD/sodipodi-0.dtd" xmlns="http://www.w3.org/2000/svg" xmlns:svg="http://www.w3.org/2000/svg"><defs id="defs219"></defs>
<style type="text/css" id="style1">
 .st0{fill:none;stroke:#FFFFFF;}
 .st1{fill:#FFFFFF;}
 .st2{fill:none;stroke:#FFFFFF;enable-background:new ;}
 .st3{opacity:0.25;fill:none;stroke:#FFFFFF;enable-background:new ;}
 .st4{fill:#303030;}
 .st5{fill:#7FC142;}
 .st6{fill:#DD3340;}
 .st7{opacity:0.25;fill:none;stroke:#FFFFFF;stroke-miterlimit:10;}
 .st8{fill:none;stroke:#FFFFFF;stroke-width:1.5;}
 .st9{fill:none;}
 .st10{opacity:0.25;}
 .st11{enable-background:new ;}
 .st12{fill:none;stroke:#7FC142;stroke-width:2;}
 .st13{fill:none;stroke:#DD3340;stroke-width:2;}
</style>
<g transform="translate(-228.7571,548.35999)" id="g14">
 <g id="g13">
 <g id="g12">
 <g id="g6">
 <path id="line1" class="st0" style="fill:none;stroke:#ffffff" d="m 615.84003,-92.160004 v 5"></path>
 <path id="line2" class="st0" style="fill:none;stroke:#ffffff" d="m 650.65002,-92.160004 v 5"></path>
 <path id="line3" class="st0" style="fill:none;stroke:#ffffff" d="m 720.27002,-92.160004 v 5"></path>
 <path id="line4" class="st0" style="fill:none;stroke:#ffffff" d="m 789.88,-92.160004 v 5"></path>
 <path id="line5" class="st0" style="fill:none;stroke:#ffffff" d="m 859.5,-92.160004 v 5"></path>
 <path id="line6" class="st0" style="fill:none;stroke:#ffffff" d="m 894.31,-92.160004 v 5"></path>
 </g>
 <g transform="translate(0,8)" id="g11">
 
 <text transform="translate(598.2465,-80.7563)" style="font-size:12px;font-family:Roboto-Bold;display:none;fill:#ffffff;enable-background:new" id="text6">-500m</text>
 <path d="m 6.276,-4.296 q 0,1.38 -0.288,2.376 Q 5.7,-0.936 5.076,-0.408 4.452,0.12 3.42,0.12 1.968,0.12 1.272,-1.044 0.588,-2.22 0.588,-4.296 q 0,-1.392 0.276,-2.376 0.288,-0.984 0.912,-1.5 Q 2.4,-8.7 3.42,-8.7 q 1.44,0 2.148,1.164 0.708,1.152 0.708,3.24 z m -4.632,0 q 0,1.764 0.396,2.64 0.408,0.876 1.38,0.876 0.96,0 1.368,-0.864 0.42,-0.876 0.42,-2.652 0,-1.752 -0.42,-2.628 Q 4.38,-7.8 3.42,-7.8 q -0.972,0 -1.38,0.876 -0.396,0.876 -0.396,2.628 z" id="text7" style="font-size:12px;font-family:Roboto-Bold;fill:#ffffff" class="st1" transform="translate(647.3666,-80.7563)" aria-label="0"></path>
 <path d="M 4.26,0 H 3.228 v -5.988 q 0,-0.516 0.012,-0.828 0.012,-0.312 0.036,-0.648 -0.192,0.192 -0.348,0.324 -0.156,0.132 -0.396,0.336 L 1.62,-6.06 1.068,-6.768 3.384,-8.568 H 4.26 Z" id="text8" style="font-size:12px;font-family:Roboto-Bold;fill:#ffffff" class="st1" transform="translate(716.9835,-80.7563)" aria-label="1"></path>
 <path d="M 6.24,0 H 0.576 V -0.876 L 2.82,-3.144 Q 3.468,-3.792 3.912,-4.296 4.356,-4.8 4.584,-5.28 q 0.228,-0.492 0.228,-1.068 0,-0.708 -0.42,-1.068 -0.42,-0.372 -1.092,-0.372 -0.624,0 -1.104,0.216 -0.468,0.216 -0.96,0.6 L 0.672,-7.68 q 0.504,-0.42 1.152,-0.708 0.66,-0.3 1.476,-0.3 1.2,0 1.896,0.612 0.696,0.6 0.696,1.668 0,0.672 -0.276,1.26 Q 5.34,-4.56 4.848,-3.984 4.356,-3.42 3.696,-2.772 L 1.908,-1.008 V -0.96 H 6.24 Z" id="text9" style="font-size:12px;font-family:Roboto-Bold;fill:#ffffff" class="st1" transform="translate(786.6006,-80.7563)" aria-label="2"></path>
 <path d="m 5.916,-6.564 q 0,0.864 -0.48,1.38 -0.48,0.504 -1.296,0.672 v 0.048 q 1.032,0.12 1.536,0.648 0.504,0.528 0.504,1.38 0,0.744 -0.348,1.332 -0.348,0.576 -1.08,0.9 Q 4.032,0.12 2.892,0.12 2.22,0.12 1.644,0.012 1.068,-0.084 0.54,-0.348 v -0.984 q 0.54,0.264 1.164,0.42 0.624,0.144 1.2,0.144 1.152,0 1.656,-0.444 0.516,-0.456 0.516,-1.248 0,-0.804 -0.636,-1.152 -0.624,-0.36 -1.764,-0.36 H 1.848 v -0.9 h 0.84 q 1.056,0 1.596,-0.444 0.552,-0.444 0.552,-1.176 0,-0.624 -0.42,-0.96 Q 3.996,-7.8 3.276,-7.8 2.58,-7.8 2.088,-7.596 1.596,-7.392 1.116,-7.08 L 0.588,-7.8 q 0.456,-0.36 1.128,-0.624 0.684,-0.264 1.548,-0.264 1.344,0 1.992,0.6 0.66,0.6 0.66,1.524 z" id="text10" style="font-size:12px;font-family:Roboto-Bold;fill:#ffffff" class="st1" transform="translate(856.2175,-80.7563)" aria-label="3"></path>
 
 <text transform="translate(886.4557,-80.7563)" style="font-size:12px;font-family:Roboto-Bold;display:none;fill:#ffffff;enable-background:new" id="text11">3.5</text>
 </g>
 <path id="line11" class="st1" style="fill:#ffffff" d="M 615.84003,-92.160004 H 894.31"></path>
 </g>
 </g>
</g>
<g id="g23" transform="translate(-279.7571,372.35999)">
 <path id="line14" class="st2" style="fill:none;stroke:#ffffff;enable-background:new" d="m 321.48001,-174.67 h 269.78"></path>
 <path id="line15" class="st3" style="opacity:0.25;fill:none;stroke:#ffffff;enable-background:new" d="m 321.48001,-194.07001 h 269.78"></path>
 <path id="line16" class="st3" style="opacity:0.25;fill:none;stroke:#ffffff;enable-background:new" d="m 321.48001,-213.47 h 269.78"></path>
 <path id="line17" class="st3" style="opacity:0.25;fill:none;stroke:#ffffff;enable-background:new" d="m 321.48001,-232.88 h 269.78"></path>
 <path id="line18" class="st3" style="opacity:0.25;fill:none;stroke:#ffffff;enable-background:new" d="m 321.48001,-252.28 h 269.78"></path>
 <path id="line19" class="st3" style="opacity:0.25;fill:none;stroke:#ffffff;enable-background:new" d="m 321.48001,-271.67999 h 269.78"></path>
 <path id="line20" class="st3" style="opacity:0.25;fill:none;stroke:#ffffff;enable-background:new" d="m 321.48001,-291.07999 h 269.78"></path>
 <path id="line21" class="st3" style="opacity:0.25;fill:none;stroke:#ffffff;enable-background:new" d="m 321.48001,-310.48999 h 269.78"></path>
 <path id="line22" class="st3" style="opacity:0.25;fill:none;stroke:#ffffff;enable-background:new" d="m 321.48001,-329.89001 h 269.78"></path>
 <path id="line23" class="st3" style="opacity:0.25;fill:none;stroke:#ffffff;enable-background:new" d="m 321.48001,-349.29001 h 269.78"></path>
</g>
<g id="g35" transform="translate(-279.7571,372.35999)">
 <path id="line24" class="st2" style="fill:none;stroke:#ffffff;enable-background:new" d="M 316.70001,84.739998 H 605.54999"></path>
 <path id="line25" class="st3" style="opacity:0.25;fill:none;stroke:#ffffff;enable-background:new" d="M 316.70001,68.660004 H 605.54999"></path>
 <path id="line26" class="st3" style="opacity:0.25;fill:none;stroke:#ffffff;enable-background:new" d="M 316.70001,52.580002 H 605.54999"></path>
 <path id="line27" class="st3" style="opacity:0.25;fill:none;stroke:#ffffff;enable-background:new" d="M 316.70001,36.5 H 605.54999"></path>
 <path id="line28" class="st3" style="opacity:0.25;fill:none;stroke:#ffffff;enable-background:new" d="M 316.70001,20.42 H 605.54999"></path>
 <path id="line29" class="st3" style="opacity:0.25;fill:none;stroke:#ffffff;enable-background:new" d="M 316.70001,4.3299999 H 605.54999"></path>
 <path id="line30" class="st3" style="opacity:0.25;fill:none;stroke:#ffffff;enable-background:new" d="M 316.70001,-11.75 H 605.54999"></path>
 <path id="line31" class="st3" style="opacity:0.25;fill:none;stroke:#ffffff;enable-background:new" d="M 316.70001,-27.83 H 605.54999"></path>
 <path id="line32" class="st3" style="opacity:0.25;fill:none;stroke:#ffffff;enable-background:new" d="M 316.70001,-43.91 H 605.54999"></path>
 <path id="line33" class="st3" style="opacity:0.25;fill:none;stroke:#ffffff;enable-background:new" d="M 316.70001,-59.990002 H 605.54999"></path>
 <path id="line34" class="st3" style="opacity:0.25;fill:none;stroke:#ffffff;enable-background:new" d="M 316.70001,-76.07 H 605.54999"></path>
 <path id="line35" class="st3" style="opacity:0.25;fill:none;stroke:#ffffff;enable-background:new" d="M 316.70001,-92.160004 H 605.54999"></path>
</g>

<g id="g36" transform="translate(-279.7571,372.35999)">
 <path id="rect36" class="st9" style="fill:none" d="m 635.09998,-117.71 h 62.29999 v 14.3 h -62.29999 z"></path>
 <path d="m 1.164,0 v -8.568 h 1.08 V -0.96 H 5.988 V 0 Z m 11.736002,-3.228 q 0,1.596 -0.816,2.472 -0.804,0.876 -2.184,0.876 -0.852,0 -1.524,-0.384 -0.66,-0.396 -1.044,-1.14 -0.384,-0.756 -0.384,-1.824 0,-1.596 0.804,-2.46 0.804,-0.864 2.184,-0.864 0.876,0 1.536,0.396 0.672,0.384 1.044,1.128 0.384,0.732 0.384,1.8 z m -4.86,0 q 0,1.14 0.444,1.812 0.456,0.66 1.44,0.66 0.972,0 1.428,-0.66 0.456,-0.672 0.456,-1.812 0,-1.14 -0.456,-1.788 -0.456,-0.648 -1.44,-0.648 -0.984,0 -1.428,0.648 -0.444,0.648 -0.444,1.788 z m 10.715995,1.452 q 0,0.936 -0.696,1.416 -0.696,0.48 -1.872,0.48 -0.672,0 -1.164,-0.108 -0.48,-0.108 -0.852,-0.3 v -0.96 q 0.384,0.192 0.924,0.36 0.552,0.156 1.116,0.156 0.804,0 1.164,-0.252 0.36,-0.264 0.36,-0.696 0,-0.24 -0.132,-0.432 -0.132,-0.192 -0.48,-0.384 -0.336,-0.192 -0.972,-0.432 -0.624,-0.24 -1.068,-0.48 -0.444,-0.24 -0.684,-0.576 -0.24,-0.336 -0.24,-0.864 0,-0.816 0.66,-1.26 0.672,-0.444 1.752,-0.444 0.588,0 1.092,0.12 0.516,0.108 0.96,0.312 l -0.36,0.84 q -0.408,-0.168 -0.852,-0.288 -0.444,-0.12 -0.912,-0.12 -0.648,0 -0.996,0.216 -0.336,0.204 -0.336,0.564 0,0.264 0.156,0.456 0.156,0.18 0.516,0.36 0.372,0.168 0.984,0.408 0.612,0.228 1.044,0.468 0.432,0.24 0.66,0.588 0.228,0.336 0.228,0.852 z m 5.748001,0 q 0,0.936 -0.696,1.416 -0.696,0.48 -1.872,0.48 -0.672,0 -1.164,-0.108 -0.48,-0.108 -0.852,-0.3 v -0.96 q 0.384,0.192 0.924,0.36 0.552,0.156 1.116,0.156 0.804,0 1.164,-0.252 0.36,-0.264 0.36,-0.696 0,-0.24 -0.132,-0.432 -0.132,-0.192 -0.48,-0.384 -0.336,-0.192 -0.972,-0.432 -0.624,-0.24 -1.068,-0.48 -0.444,-0.24 -0.684,-0.576 -0.24,-0.336 -0.24,-0.864 0,-0.816 0.66,-1.26 0.672,-0.444 1.752,-0.444 0.588,0 1.092,0.12 0.516,0.108 0.96,0.312 l -0.36,0.84 q -0.408,-0.168 -0.852,-0.288 -0.444,-0.12 -0.912,-0.12 -0.648,0 -0.996,0.216 -0.336,0.204 -0.336,0.564 0,0.264 0.156,0.456 0.156,0.18 0.516,0.36 0.372,0.168 0.984,0.408 0.612,0.228 1.044,0.468 0.432,0.24 0.66,0.588 0.228,0.336 0.228,0.852 z m 5.892001,3.624 h -5.376 V 1.08 h 5.376 z M 32.808002,0 l -2.436,-6.432 h 1.128 l 1.368,3.792 q 0.096,0.264 0.204,0.588 0.108,0.324 0.192,0.624 0.084,0.288 0.12,0.492 h 0.048 q 0.048,-0.204 0.132,-0.504 0.096,-0.3 0.204,-0.624 0.12,-0.324 0.204,-0.576 l 1.368,-3.792 h 1.128 L 34.020002,0 Z m 7.115993,-6.54 q 1.176,0 1.74,0.516 0.564,0.516 0.564,1.644 V 0 h -0.768 l -0.204,-0.912 h -0.048 q -0.42,0.528 -0.888,0.78 -0.456,0.252 -1.272,0.252 -0.876,0 -1.452,-0.456 -0.576,-0.468 -0.576,-1.452 0,-0.96 0.756,-1.476 0.756,-0.528 2.328,-0.576 l 1.092,-0.036 V -4.26 q 0,-0.804 -0.348,-1.116 -0.348,-0.312 -0.984,-0.312 -0.504,0 -0.96,0.156 -0.456,0.144 -0.852,0.336 l -0.324,-0.792 q 0.42,-0.228 0.996,-0.384 0.576,-0.168 1.2,-0.168 z m 0.312,3.432 q -1.2,0.048 -1.668,0.384 -0.456,0.336 -0.456,0.948 0,0.54 0.324,0.792 0.336,0.252 0.852,0.252 0.816,0 1.356,-0.444 0.54,-0.456 0.54,-1.392 V -3.144 Z M 45.276005,0 h -1.056 v -9.12 h 1.056 z" id="text36" style="font-size:12px;font-family:Roboto-Bold;fill:#ffffff" class="st1" transform="translate(635.0973,-108.5669)" aria-label="Loss_val"></path>
</g>
<g id="g37" transform="translate(-279.7571,372.35999)">
 <path id="rect37" class="st9" style="fill:none" d="m 282.07001,-116.5 h 62.3 v 14.3 h -62.3 z"></path>
 <path d="m 1.164,0 v -8.568 h 1.08 V -0.96 H 5.988 V 0 Z m 11.736002,-3.228 q 0,1.596 -0.816,2.472 -0.804,0.876 -2.184,0.876 -0.852,0 -1.524,-0.384 -0.66,-0.396 -1.044,-1.14 -0.384,-0.756 -0.384,-1.824 0,-1.596 0.804,-2.46 0.804,-0.864 2.184,-0.864 0.876,0 1.536,0.396 0.672,0.384 1.044,1.128 0.384,0.732 0.384,1.8 z m -4.86,0 q 0,1.14 0.444,1.812 0.456,0.66 1.44,0.66 0.972,0 1.428,-0.66 0.456,-0.672 0.456,-1.812 0,-1.14 -0.456,-1.788 -0.456,-0.648 -1.44,-0.648 -0.984,0 -1.428,0.648 -0.444,0.648 -0.444,1.788 z m 10.715995,1.452 q 0,0.936 -0.696,1.416 -0.696,0.48 -1.872,0.48 -0.672,0 -1.164,-0.108 -0.48,-0.108 -0.852,-0.3 v -0.96 q 0.384,0.192 0.924,0.36 0.552,0.156 1.116,0.156 0.804,0 1.164,-0.252 0.36,-0.264 0.36,-0.696 0,-0.24 -0.132,-0.432 -0.132,-0.192 -0.48,-0.384 -0.336,-0.192 -0.972,-0.432 -0.624,-0.24 -1.068,-0.48 -0.444,-0.24 -0.684,-0.576 -0.24,-0.336 -0.24,-0.864 0,-0.816 0.66,-1.26 0.672,-0.444 1.752,-0.444 0.588,0 1.092,0.12 0.516,0.108 0.96,0.312 l -0.36,0.84 q -0.408,-0.168 -0.852,-0.288 -0.444,-0.12 -0.912,-0.12 -0.648,0 -0.996,0.216 -0.336,0.204 -0.336,0.564 0,0.264 0.156,0.456 0.156,0.18 0.516,0.36 0.372,0.168 0.984,0.408 0.612,0.228 1.044,0.468 0.432,0.24 0.66,0.588 0.228,0.336 0.228,0.852 z m 5.748001,0 q 0,0.936 -0.696,1.416 -0.696,0.48 -1.872,0.48 -0.672,0 -1.164,-0.108 -0.48,-0.108 -0.852,-0.3 v -0.96 q 0.384,0.192 0.924,0.36 0.552,0.156 1.116,0.156 0.804,0 1.164,-0.252 0.36,-0.264 0.36,-0.696 0,-0.24 -0.132,-0.432 -0.132,-0.192 -0.48,-0.384 -0.336,-0.192 -0.972,-0.432 -0.624,-0.24 -1.068,-0.48 -0.444,-0.24 -0.684,-0.576 -0.24,-0.336 -0.24,-0.864 0,-0.816 0.66,-1.26 0.672,-0.444 1.752,-0.444 0.588,0 1.092,0.12 0.516,0.108 0.96,0.312 l -0.36,0.84 q -0.408,-0.168 -0.852,-0.288 -0.444,-0.12 -0.912,-0.12 -0.648,0 -0.996,0.216 -0.336,0.204 -0.336,0.564 0,0.264 0.156,0.456 0.156,0.18 0.516,0.36 0.372,0.168 0.984,0.408 0.612,0.228 1.044,0.468 0.432,0.24 0.66,0.588 0.228,0.336 0.228,0.852 z m 5.892001,3.624 h -5.376 V 1.08 h 5.376 z m 3.144003,-2.592 q 0.24,0 0.492,-0.036 0.252,-0.048 0.408,-0.096 v 0.804 q -0.168,0.084 -0.48,0.132 -0.312,0.06 -0.6,0.06 -0.504,0 -0.936,-0.168 -0.42,-0.18 -0.684,-0.612 -0.264,-0.432 -0.264,-1.212 v -3.744 h -0.912 V -6.12 l 0.924,-0.42 0.42,-1.368 h 0.624 v 1.476 h 1.86 v 0.816 h -1.86 v 3.72 q 0,0.588 0.276,0.876 0.288,0.276 0.732,0.276 z m 5.184,-5.808 q 0.18,0 0.384,0.024 0.216,0.012 0.372,0.048 l -0.132,0.972 q -0.156,-0.036 -0.348,-0.06 -0.18,-0.024 -0.348,-0.024 -0.492,0 -0.924,0.276 -0.432,0.264 -0.696,0.756 -0.252,0.48 -0.252,1.128 V 0 h -1.056 v -6.432 h 0.864 l 0.12,1.176 h 0.048 q 0.312,-0.528 0.804,-0.912 0.492,-0.384 1.164,-0.384 z m 4.151996,0.012 q 1.176,0 1.74,0.516 0.564,0.516 0.564,1.644 V 0 h -0.768 l -0.204,-0.912 h -0.048 q -0.42,0.528 -0.888,0.78 -0.456,0.252 -1.272,0.252 -0.876,0 -1.452,-0.456 -0.576,-0.468 -0.576,-1.452 0,-0.96 0.756,-1.476 0.756,-0.528 2.328,-0.576 l 1.092,-0.036 V -4.26 q 0,-0.804 -0.348,-1.116 -0.348,-0.312 -0.984,-0.312 -0.504,0 -0.96,0.156 -0.456,0.144 -0.852,0.336 l -0.324,-0.792 q 0.42,-0.228 0.996,-0.384 0.576,-0.168 1.2,-0.168 z m 0.312,3.432 q -1.2,0.048 -1.668,0.384 -0.456,0.336 -0.456,0.948 0,0.54 0.324,0.792 0.336,0.252 0.852,0.252 0.816,0 1.356,-0.444 0.54,-0.456 0.54,-1.392 v -0.576 z m 4.52401,-5.736 q 0.24,0 0.42,0.168 0.192,0.156 0.192,0.504 0,0.336 -0.192,0.504 -0.18,0.168 -0.42,0.168 -0.264,0 -0.444,-0.168 -0.18,-0.168 -0.18,-0.504 0,-0.348 0.18,-0.504 0.18,-0.168 0.444,-0.168 z m 0.516,2.412 V 0 h -1.056 v -6.432 z m 5.135993,-0.12 q 1.152,0 1.74,0.564 0.588,0.552 0.588,1.8 V 0 h -1.044 v -4.116 q 0,-1.548 -1.44,-1.548 -1.068,0 -1.476,0.6 -0.408,0.6 -0.408,1.728 V 0 h -1.056 v -6.432 h 0.852 l 0.156,0.876 h 0.06 q 0.312,-0.504 0.864,-0.744 0.552,-0.252 1.164,-0.252 z" id="text37" style="font-size:12px;font-family:Roboto-Bold;fill:#ffffff" class="st1" transform="translate(282.0691,-107.3569)" aria-label="Loss_train"></path>
</g>
<g id="g38" transform="translate(-279.7571,372.35999)">
 <g id="text38" transform="translate(997.8601,58.4844)" aria-label="Prt-NetSimple RNN"><path style="font-size:12px;font-family:Roboto-Bold;fill:#ffffff" d="m 3.432,-8.568 q 1.68,0 2.448,0.66 0.768,0.66 0.768,1.86 0,0.708 -0.324,1.332 -0.312,0.612 -1.068,0.996 -0.744,0.384 -2.028,0.384 H 2.244 V 0 H 1.164 V -8.568 Z M 3.336,-7.644 H 2.244 v 3.384 h 0.864 q 1.224,0 1.824,-0.396 0.6,-0.396 0.6,-1.344 0,-0.828 -0.528,-1.236 -0.528,-0.408 -1.668,-0.408 z m 7.943995,1.092 q 0.18,0 0.384,0.024 0.216,0.012 0.372,0.048 l -0.132,0.972 q -0.156,-0.036 -0.348,-0.06 -0.18,-0.024 -0.348,-0.024 -0.492,0 -0.924,0.276 -0.4320005,0.264 -0.6960005,0.756 -0.252,0.48 -0.252,1.128 V 0 h -1.056 v -6.432 h 0.864 l 0.12,1.176 h 0.048 q 0.312,-0.528 0.8040005,-0.912 0.492,-0.384 1.164,-0.384 z m 4.104001,5.808 q 0.24,0 0.492,-0.036 0.252,-0.048 0.408,-0.096 v 0.804 q -0.168,0.084 -0.48,0.132 -0.312,0.06 -0.6,0.06 -0.504,0 -0.936,-0.168 -0.42,-0.18 -0.684,-0.612 -0.264,-0.432 -0.264,-1.212 v -3.744 h -0.912 V -6.12 l 0.924,-0.42 0.42,-1.368 h 0.624 v 1.476 h 1.86 v 0.816 h -1.86 v 3.72 q 0,0.588 0.276,0.876 0.288,0.276 0.732,0.276 z m 1.644001,-2.004 v -0.936 h 2.904 v 0.936 z M 28.368003,0 h -1.26 l -4.584,-7.116 h -0.048 q 0.024,0.42 0.06,1.044 0.036,0.624 0.036,1.284 V 0 h -0.996 v -8.568 h 1.248 l 4.572,7.092 h 0.048 q -0.012,-0.192 -0.036,-0.576 -0.012,-0.384 -0.036,-0.84 -0.012,-0.456 -0.012,-0.84 v -4.836 h 1.008 z m 4.668002,-6.552 q 0.828,0 1.416,0.36 0.6,0.36 0.912,1.02 0.324,0.648 0.324,1.524 v 0.636 h -4.404 q 0.024,1.092 0.552,1.668 0.54,0.564 1.5,0.564 0.612,0 1.08,-0.108 0.48,-0.12 0.984,-0.336 V -0.3 q -0.492,0.216 -0.972,0.312 -0.48,0.108 -1.14,0.108 -0.912,0 -1.62,-0.372 -0.696,-0.372 -1.092,-1.104 -0.384,-0.744 -0.384,-1.812 0,-1.056 0.348,-1.812 0.36,-0.756 0.996,-1.164 0.648,-0.408 1.5,-0.408 z m -0.012,0.864 q -0.756,0 -1.2,0.492 -0.432,0.48 -0.516,1.344 h 3.276 q -0.012,-0.816 -0.384,-1.32 -0.372,-0.516 -1.176,-0.516 z m 6.44399,4.944 q 0.24,0 0.492,-0.036 0.252,-0.048 0.408,-0.096 v 0.804 q -0.168,0.084 -0.48,0.132 -0.312,0.06 -0.6,0.06 -0.504,0 -0.936,-0.168 -0.42,-0.18 -0.684,-0.612 -0.264,-0.432 -0.264,-1.212 v -3.744 h -0.912 V -6.12 l 0.924,-0.42 0.42,-1.368 h 0.624 v 1.476 h 1.86 v 0.816 h -1.86 v 3.72 q 0,0.588 0.276,0.876 0.288,0.276 0.732,0.276 z" id="path1"></path><path style="font-size:12px;font-family:Roboto-Bold;fill:#ffffff" d="m 6.024,18.708 q 0,1.14 -0.828,1.776 -0.828,0.636 -2.232,0.636 -0.72,0 -1.332,-0.108 -0.612,-0.108 -1.02,-0.3 V 19.68 q 0.432,0.192 1.068,0.348 0.648,0.156 1.332,0.156 0.96,0 1.44,-0.372 0.492,-0.372 0.492,-1.008 0,-0.42 -0.18,-0.708 Q 4.584,17.808 4.14,17.568 3.708,17.316 2.928,17.04 1.836,16.644 1.272,16.068 0.72,15.492 0.72,14.496 q 0,-0.684 0.348,-1.164 0.348,-0.492 0.96,-0.756 0.624,-0.264 1.428,-0.264 0.708,0 1.296,0.132 0.588,0.132 1.068,0.348 L 5.484,13.716 Q 5.04,13.524 4.512,13.392 3.996,13.26 3.432,13.26 q -0.804,0 -1.212,0.348 -0.408,0.336 -0.408,0.9 0,0.432 0.18,0.72 0.18,0.288 0.588,0.516 0.408,0.228 1.104,0.492 0.756,0.276 1.272,0.6 0.528,0.312 0.792,0.756 0.276,0.444 0.276,1.116 z m 2.1239974,-6.552 q 0.24,0 0.42,0.168 0.192,0.156 0.192,0.504 0,0.336 -0.192,0.504 -0.18,0.168 -0.42,0.168 -0.264,0 -0.444,-0.168 -0.18,-0.168 -0.18,-0.504 0,-0.348 0.18,-0.504 0.18,-0.168 0.444,-0.168 z m 0.516,2.412 V 21 h -1.056 v -6.432 z m 9.0959926,-0.12 q 1.092,0 1.632,0.564 0.54,0.552 0.54,1.8 V 21 h -1.044 v -4.14 q 0,-1.524 -1.308,-1.524 -0.936,0 -1.344,0.54 -0.396,0.54 -0.396,1.572 V 21 h -1.044 v -4.14 q 0,-1.524 -1.32,-1.524 -0.972,0 -1.344,0.6 -0.372,0.6 -0.372,1.728 V 21 h -1.056 v -6.432 h 0.852 l 0.156,0.876 h 0.06 q 0.3,-0.504 0.804,-0.744 0.516,-0.252 1.092,-0.252 1.512,0 1.968,1.08 h 0.06 q 0.324,-0.552 0.876,-0.816 0.564,-0.264 1.188,-0.264 z m 7.223994,0 q 1.188,0 1.908,0.828 0.732,0.828 0.732,2.496 0,1.644 -0.732,2.496 -0.72,0.852 -1.92,0.852 -0.744,0 -1.236,-0.276 -0.48,-0.288 -0.756,-0.66 h -0.072 q 0.024,0.204 0.048,0.516 0.024,0.312 0.024,0.54 v 2.64 h -1.056 v -9.312 h 0.864 l 0.144,0.876 h 0.048 q 0.288,-0.42 0.756,-0.708 0.468,-0.288 1.248,-0.288 z m -0.192,0.888 q -0.984,0 -1.392,0.552 -0.396,0.552 -0.42,1.68 v 0.204 q 0,1.188 0.384,1.836 0.396,0.636 1.452,0.636 0.588,0 0.96,-0.324 0.384,-0.324 0.564,-0.876 0.192,-0.564 0.192,-1.284 0,-1.104 -0.432,-1.764 -0.42,-0.66 -1.308,-0.66 z M 30.359981,21 h -1.056 v -9.12 h 1.056 z m 4.523993,-6.552 q 0.828,0 1.416,0.36 0.6,0.36 0.912,1.02 0.324,0.648 0.324,1.524 v 0.636 h -4.404 q 0.024,1.092 0.552,1.668 0.54,0.564 1.5,0.564 0.612,0 1.08,-0.108 0.48,-0.12 0.984,-0.336 V 20.7 q -0.492,0.216 -0.972,0.312 -0.48,0.108 -1.14,0.108 -0.912,0 -1.62,-0.372 -0.696,-0.372 -1.092,-1.104 -0.384,-0.744 -0.384,-1.812 0,-1.056 0.348,-1.812 0.36,-0.756 0.996,-1.164 0.648,-0.408 1.5,-0.408 z m -0.012,0.864 q -0.756,0 -1.2,0.492 -0.432,0.48 -0.516,1.344 h 3.276 q -0.012,-0.816 -0.384,-1.32 -0.372,-0.516 -1.176,-0.516 z m 9.923993,-2.88 q 1.596,0 2.352,0.612 0.768,0.6 0.768,1.824 0,0.684 -0.252,1.14 -0.252,0.456 -0.648,0.732 -0.384,0.264 -0.816,0.42 l 2.352,3.84 h -1.26 l -2.076,-3.54 h -1.704 V 21 h -1.08 v -8.568 z m -0.06,0.936 h -1.224 v 3.18 h 1.284 q 1.044,0 1.524,-0.408 0.48,-0.42 0.48,-1.224 0,-0.84 -0.504,-1.188 -0.504,-0.36 -1.56,-0.36 z M 56.687964,21 h -1.26 l -4.584,-7.116 h -0.048 q 0.024,0.42 0.06,1.044 0.036,0.624 0.036,1.284 V 21 h -0.996 v -8.568 h 1.248 l 4.572,7.092 h 0.048 q -0.012,-0.192 -0.036,-0.576 -0.012,-0.384 -0.036,-0.84 -0.012,-0.456 -0.012,-0.84 v -4.836 h 1.008 z m 9.120003,0 h -1.26 l -4.584,-7.116 h -0.048 q 0.024,0.42 0.06,1.044 0.036,0.624 0.036,1.284 V 21 h -0.996 v -8.568 h 1.248 l 4.572,7.092 h 0.048 q -0.012,-0.192 -0.036,-0.576 -0.012,-0.384 -0.036,-0.84 -0.012,-0.456 -0.012,-0.84 v -4.836 h 1.008 z" id="path2"></path></g>
</g>
<path id="circle38" class="st5" style="fill:#7fc142" d="m 712.3129,427.41998 a 5.7199998,5.7199998 0 0 1 -5.72,5.72 5.7199998,5.7199998 0 0 1 -5.72,-5.72 5.7199998,5.7199998 0 0 1 5.72,-5.72 5.7199998,5.7199998 0 0 1 5.72,5.72 z"></path>
<path id="circle39" class="st6" style="fill:#dd3340" d="m 712.3129,448.41998 a 5.7199998,5.7199998 0 0 1 -5.72,5.72 5.7199998,5.7199998 0 0 1 -5.72,-5.72 5.7199998,5.7199998 0 0 1 5.72,-5.72 5.7199998,5.7199998 0 0 1 5.72,5.72 z"></path>
<g id="g39" transform="translate(-279.7571,372.35999)">
 <path id="rect39" class="st9" style="fill:none" d="m 635.32001,-370.35999 h 62.3 v 14.3 h -62.3 z"></path>
 <path d="M 6.54,0 5.508,-2.652 H 2.112 L 1.092,0 H 0 L 3.348,-8.604 H 4.32 L 7.656,0 Z M 4.224,-6.204 Q 4.188,-6.3 4.104,-6.552 4.02,-6.804 3.936,-7.068 3.864,-7.344 3.816,-7.488 3.732,-7.116 3.624,-6.756 3.516,-6.408 3.444,-6.204 l -0.972,2.592 h 2.712 z m 7.043999,6.324 q -0.852,0 -1.5239997,-0.348 -0.66,-0.348 -1.044,-1.08 -0.372,-0.732 -0.372,-1.872 0,-1.188 0.396,-1.932 0.396,-0.744 1.068,-1.092 0.6839997,-0.348 1.5479997,-0.348 0.492,0 0.948,0.108 0.456,0.096 0.744,0.24 l -0.324,0.876 q -0.288,-0.108 -0.672,-0.204 -0.384,-0.096 -0.72,-0.096 -1.8959997,0 -1.8959997,2.436 0,1.164 0.456,1.788 0.4679997,0.612 1.3799997,0.612 0.528,0 0.924,-0.108 0.408,-0.108 0.744,-0.264 v 0.936 q -0.324,0.168 -0.72,0.252 -0.384,0.096 -0.936,0.096 z m 5.759995,0 q -0.852,0 -1.524,-0.348 -0.66,-0.348 -1.044,-1.08 -0.372,-0.732 -0.372,-1.872 0,-1.188 0.396,-1.932 0.396,-0.744 1.068,-1.092 0.684,-0.348 1.548,-0.348 0.492,0 0.948,0.108 0.456,0.096 0.744,0.24 l -0.324,0.876 q -0.288,-0.108 -0.672,-0.204 -0.384,-0.096 -0.72,-0.096 -1.896,0 -1.896,2.436 0,1.164 0.456,1.788 0.468,0.612 1.38,0.612 0.528,0 0.924,-0.108 0.408,-0.108 0.744,-0.264 v 0.936 q -0.324,0.168 -0.72,0.252 -0.384,0.096 -0.936,0.096 z m 7.511994,1.728 h -5.376 V 1.08 h 5.376 z M 26.951991,0 l -2.436,-6.432 h 1.128 l 1.368,3.792 q 0.096,0.264 0.204,0.588 0.108,0.324 0.192,0.624 0.084,0.288 0.12,0.492 h 0.048 q 0.048,-0.204 0.132,-0.504 0.096,-0.3 0.204,-0.624 0.12,-0.324 0.204,-0.576 l 1.368,-3.792 h 1.128 L 28.163991,0 Z m 7.115993,-6.54 q 1.176,0 1.74,0.516 0.564,0.516 0.564,1.644 V 0 h -0.768 l -0.204,-0.912 h -0.048 q -0.42,0.528 -0.888,0.78 -0.456,0.252 -1.272,0.252 -0.876,0 -1.452,-0.456 -0.576,-0.468 -0.576,-1.452 0,-0.96 0.756,-1.476 0.756,-0.528 2.328,-0.576 l 1.092,-0.036 V -4.26 q 0,-0.804 -0.348,-1.116 -0.348,-0.312 -0.984,-0.312 -0.504,0 -0.96,0.156 -0.456,0.144 -0.852,0.336 l -0.324,-0.792 q 0.42,-0.228 0.996,-0.384 0.576,-0.168 1.2,-0.168 z m 0.312,3.432 q -1.2,0.048 -1.668,0.384 -0.456,0.336 -0.456,0.948 0,0.54 0.324,0.792 0.336,0.252 0.852,0.252 0.816,0 1.356,-0.444 0.54,-0.456 0.54,-1.392 V -3.144 Z M 39.419994,0 h -1.056 v -9.12 h 1.056 z" id="text39" style="font-size:12px;font-family:Roboto-Bold;fill:#ffffff" class="st1" transform="translate(635.3173,-361.2232)" aria-label="Acc_val"></path>
</g>
<g id="g40" transform="translate(-279.7571,372.35999)">
 <path id="rect40" class="st9" style="fill:none" d="m 281.76001,-370.04999 h 62.3 v 14.3 h -62.3 z"></path>
 <path d="M 6.54,0 5.508,-2.652 H 2.112 L 1.092,0 H 0 L 3.348,-8.604 H 4.32 L 7.656,0 Z M 4.224,-6.204 Q 4.188,-6.3 4.104,-6.552 4.02,-6.804 3.936,-7.068 3.864,-7.344 3.816,-7.488 3.732,-7.116 3.624,-6.756 3.516,-6.408 3.444,-6.204 l -0.972,2.592 h 2.712 z m 7.043999,6.324 q -0.852,0 -1.5239997,-0.348 -0.66,-0.348 -1.044,-1.08 -0.372,-0.732 -0.372,-1.872 0,-1.188 0.396,-1.932 0.396,-0.744 1.068,-1.092 0.6839997,-0.348 1.5479997,-0.348 0.492,0 0.948,0.108 0.456,0.096 0.744,0.24 l -0.324,0.876 q -0.288,-0.108 -0.672,-0.204 -0.384,-0.096 -0.72,-0.096 -1.8959997,0 -1.8959997,2.436 0,1.164 0.456,1.788 0.4679997,0.612 1.3799997,0.612 0.528,0 0.924,-0.108 0.408,-0.108 0.744,-0.264 v 0.936 q -0.324,0.168 -0.72,0.252 -0.384,0.096 -0.936,0.096 z m 5.759995,0 q -0.852,0 -1.524,-0.348 -0.66,-0.348 -1.044,-1.08 -0.372,-0.732 -0.372,-1.872 0,-1.188 0.396,-1.932 0.396,-0.744 1.068,-1.092 0.684,-0.348 1.548,-0.348 0.492,0 0.948,0.108 0.456,0.096 0.744,0.24 l -0.324,0.876 q -0.288,-0.108 -0.672,-0.204 -0.384,-0.096 -0.72,-0.096 -1.896,0 -1.896,2.436 0,1.164 0.456,1.788 0.468,0.612 1.38,0.612 0.528,0 0.924,-0.108 0.408,-0.108 0.744,-0.264 v 0.936 q -0.324,0.168 -0.72,0.252 -0.384,0.096 -0.936,0.096 z m 7.511994,1.728 h -5.376 V 1.08 h 5.376 z m 3.144003,-2.592 q 0.24,0 0.492,-0.036 0.252,-0.048 0.408,-0.096 v 0.804 q -0.168,0.084 -0.48,0.132 -0.312,0.06 -0.6,0.06 -0.504,0 -0.936,-0.168 -0.42,-0.18 -0.684,-0.612 -0.264,-0.432 -0.264,-1.212 v -3.744 h -0.912 V -6.12 l 0.924,-0.42 0.42,-1.368 h 0.624 v 1.476 h 1.86 v 0.816 h -1.86 v 3.72 q 0,0.588 0.276,0.876 0.288,0.276 0.732,0.276 z m 5.184001,-5.808 q 0.18,0 0.384,0.024 0.216,0.012 0.372,0.048 l -0.132,0.972 q -0.156,-0.036 -0.348,-0.06 -0.18,-0.024 -0.348,-0.024 -0.492,0 -0.924,0.276 -0.432,0.264 -0.696,0.756 -0.252,0.48 -0.252,1.128 V 0 h -1.056 v -6.432 h 0.864 l 0.12,1.176 h 0.048 q 0.312,-0.528 0.804,-0.912 0.492,-0.384 1.164,-0.384 z m 4.151996,0.012 q 1.176,0 1.74,0.516 0.564,0.516 0.564,1.644 V 0 h -0.768 l -0.204,-0.912 h -0.048 q -0.42,0.528 -0.888,0.78 -0.456,0.252 -1.272,0.252 -0.876,0 -1.452,-0.456 -0.576,-0.468 -0.576,-1.452 0,-0.96 0.756,-1.476 0.756,-0.528 2.328,-0.576 l 1.092,-0.036 V -4.26 q 0,-0.804 -0.348,-1.116 -0.348,-0.312 -0.984,-0.312 -0.504,0 -0.96,0.156 -0.456,0.144 -0.852,0.336 l -0.324,-0.792 q 0.42,-0.228 0.996,-0.384 0.576,-0.168 1.2,-0.168 z m 0.312,3.432 q -1.2,0.048 -1.668,0.384 -0.456,0.336 -0.456,0.948 0,0.54 0.324,0.792 0.336,0.252 0.852,0.252 0.816,0 1.356,-0.444 0.54,-0.456 0.54,-1.392 v -0.576 z m 4.52401,-5.736 q 0.24,0 0.42,0.168 0.192,0.156 0.192,0.504 0,0.336 -0.192,0.504 -0.18,0.168 -0.42,0.168 -0.264,0 -0.444,-0.168 -0.18,-0.168 -0.18,-0.504 0,-0.348 0.18,-0.504 0.18,-0.168 0.444,-0.168 z m 0.516,2.412 V 0 h -1.056 v -6.432 z m 5.135993,-0.12 q 1.152,0 1.74,0.564 0.588,0.552 0.588,1.8 V 0 h -1.044 v -4.116 q 0,-1.548 -1.44,-1.548 -1.068,0 -1.476,0.6 -0.408,0.6 -0.408,1.728 V 0 h -1.056 v -6.432 h 0.852 l 0.156,0.876 h 0.06 q 0.312,-0.504 0.864,-0.744 0.552,-0.252 1.164,-0.252 z" id="text40" style="font-size:12px;font-family:Roboto-Bold;fill:#ffffff" class="st1" transform="translate(281.7571,-360.9131)" aria-label="Acc_train"></path>
</g>
<g id="g41" transform="translate(-279.7571,372.35999)">
 <g id="text41" transform="translate(997.8601,-194.7923)" aria-label="Prt-NetSimple RNN"><path style="font-size:12px;font-family:Roboto-Bold;fill:#ffffff" d="m 3.432,-8.568 q 1.68,0 2.448,0.66 0.768,0.66 0.768,1.86 0,0.708 -0.324,1.332 -0.312,0.612 -1.068,0.996 -0.744,0.384 -2.028,0.384 H 2.244 V 0 H 1.164 V -8.568 Z M 3.336,-7.644 H 2.244 v 3.384 h 0.864 q 1.224,0 1.824,-0.396 0.6,-0.396 0.6,-1.344 0,-0.828 -0.528,-1.236 -0.528,-0.408 -1.668,-0.408 z m 7.943995,1.092 q 0.18,0 0.384,0.024 0.216,0.012 0.372,0.048 l -0.132,0.972 q -0.156,-0.036 -0.348,-0.06 -0.18,-0.024 -0.348,-0.024 -0.492,0 -0.924,0.276 -0.4320005,0.264 -0.6960005,0.756 -0.252,0.48 -0.252,1.128 V 0 h -1.056 v -6.432 h 0.864 l 0.12,1.176 h 0.048 q 0.312,-0.528 0.8040005,-0.912 0.492,-0.384 1.164,-0.384 z m 4.104001,5.808 q 0.24,0 0.492,-0.036 0.252,-0.048 0.408,-0.096 v 0.804 q -0.168,0.084 -0.48,0.132 -0.312,0.06 -0.6,0.06 -0.504,0 -0.936,-0.168 -0.42,-0.18 -0.684,-0.612 -0.264,-0.432 -0.264,-1.212 v -3.744 h -0.912 V -6.12 l 0.924,-0.42 0.42,-1.368 h 0.624 v 1.476 h 1.86 v 0.816 h -1.86 v 3.72 q 0,0.588 0.276,0.876 0.288,0.276 0.732,0.276 z m 1.644001,-2.004 v -0.936 h 2.904 v 0.936 z M 28.368003,0 h -1.26 l -4.584,-7.116 h -0.048 q 0.024,0.42 0.06,1.044 0.036,0.624 0.036,1.284 V 0 h -0.996 v -8.568 h 1.248 l 4.572,7.092 h 0.048 q -0.012,-0.192 -0.036,-0.576 -0.012,-0.384 -0.036,-0.84 -0.012,-0.456 -0.012,-0.84 v -4.836 h 1.008 z m 4.668002,-6.552 q 0.828,0 1.416,0.36 0.6,0.36 0.912,1.02 0.324,0.648 0.324,1.524 v 0.636 h -4.404 q 0.024,1.092 0.552,1.668 0.54,0.564 1.5,0.564 0.612,0 1.08,-0.108 0.48,-0.12 0.984,-0.336 V -0.3 q -0.492,0.216 -0.972,0.312 -0.48,0.108 -1.14,0.108 -0.912,0 -1.62,-0.372 -0.696,-0.372 -1.092,-1.104 -0.384,-0.744 -0.384,-1.812 0,-1.056 0.348,-1.812 0.36,-0.756 0.996,-1.164 0.648,-0.408 1.5,-0.408 z m -0.012,0.864 q -0.756,0 -1.2,0.492 -0.432,0.48 -0.516,1.344 h 3.276 q -0.012,-0.816 -0.384,-1.32 -0.372,-0.516 -1.176,-0.516 z m 6.44399,4.944 q 0.24,0 0.492,-0.036 0.252,-0.048 0.408,-0.096 v 0.804 q -0.168,0.084 -0.48,0.132 -0.312,0.06 -0.6,0.06 -0.504,0 -0.936,-0.168 -0.42,-0.18 -0.684,-0.612 -0.264,-0.432 -0.264,-1.212 v -3.744 h -0.912 V -6.12 l 0.924,-0.42 0.42,-1.368 h 0.624 v 1.476 h 1.86 v 0.816 h -1.86 v 3.72 q 0,0.588 0.276,0.876 0.288,0.276 0.732,0.276 z" id="path3"></path><path style="font-size:12px;font-family:Roboto-Bold;fill:#ffffff" d="m 6.024,18.708 q 0,1.14 -0.828,1.776 -0.828,0.636 -2.232,0.636 -0.72,0 -1.332,-0.108 -0.612,-0.108 -1.02,-0.3 V 19.68 q 0.432,0.192 1.068,0.348 0.648,0.156 1.332,0.156 0.96,0 1.44,-0.372 0.492,-0.372 0.492,-1.008 0,-0.42 -0.18,-0.708 Q 4.584,17.808 4.14,17.568 3.708,17.316 2.928,17.04 1.836,16.644 1.272,16.068 0.72,15.492 0.72,14.496 q 0,-0.684 0.348,-1.164 0.348,-0.492 0.96,-0.756 0.624,-0.264 1.428,-0.264 0.708,0 1.296,0.132 0.588,0.132 1.068,0.348 L 5.484,13.716 Q 5.04,13.524 4.512,13.392 3.996,13.26 3.432,13.26 q -0.804,0 -1.212,0.348 -0.408,0.336 -0.408,0.9 0,0.432 0.18,0.72 0.18,0.288 0.588,0.516 0.408,0.228 1.104,0.492 0.756,0.276 1.272,0.6 0.528,0.312 0.792,0.756 0.276,0.444 0.276,1.116 z m 2.1239974,-6.552 q 0.24,0 0.42,0.168 0.192,0.156 0.192,0.504 0,0.336 -0.192,0.504 -0.18,0.168 -0.42,0.168 -0.264,0 -0.444,-0.168 -0.18,-0.168 -0.18,-0.504 0,-0.348 0.18,-0.504 0.18,-0.168 0.444,-0.168 z m 0.516,2.412 V 21 h -1.056 v -6.432 z m 9.0959926,-0.12 q 1.092,0 1.632,0.564 0.54,0.552 0.54,1.8 V 21 h -1.044 v -4.14 q 0,-1.524 -1.308,-1.524 -0.936,0 -1.344,0.54 -0.396,0.54 -0.396,1.572 V 21 h -1.044 v -4.14 q 0,-1.524 -1.32,-1.524 -0.972,0 -1.344,0.6 -0.372,0.6 -0.372,1.728 V 21 h -1.056 v -6.432 h 0.852 l 0.156,0.876 h 0.06 q 0.3,-0.504 0.804,-0.744 0.516,-0.252 1.092,-0.252 1.512,0 1.968,1.08 h 0.06 q 0.324,-0.552 0.876,-0.816 0.564,-0.264 1.188,-0.264 z m 7.223994,0 q 1.188,0 1.908,0.828 0.732,0.828 0.732,2.496 0,1.644 -0.732,2.496 -0.72,0.852 -1.92,0.852 -0.744,0 -1.236,-0.276 -0.48,-0.288 -0.756,-0.66 h -0.072 q 0.024,0.204 0.048,0.516 0.024,0.312 0.024,0.54 v 2.64 h -1.056 v -9.312 h 0.864 l 0.144,0.876 h 0.048 q 0.288,-0.42 0.756,-0.708 0.468,-0.288 1.248,-0.288 z m -0.192,0.888 q -0.984,0 -1.392,0.552 -0.396,0.552 -0.42,1.68 v 0.204 q 0,1.188 0.384,1.836 0.396,0.636 1.452,0.636 0.588,0 0.96,-0.324 0.384,-0.324 0.564,-0.876 0.192,-0.564 0.192,-1.284 0,-1.104 -0.432,-1.764 -0.42,-0.66 -1.308,-0.66 z M 30.359981,21 h -1.056 v -9.12 h 1.056 z m 4.523993,-6.552 q 0.828,0 1.416,0.36 0.6,0.36 0.912,1.02 0.324,0.648 0.324,1.524 v 0.636 h -4.404 q 0.024,1.092 0.552,1.668 0.54,0.564 1.5,0.564 0.612,0 1.08,-0.108 0.48,-0.12 0.984,-0.336 V 20.7 q -0.492,0.216 -0.972,0.312 -0.48,0.108 -1.14,0.108 -0.912,0 -1.62,-0.372 -0.696,-0.372 -1.092,-1.104 -0.384,-0.744 -0.384,-1.812 0,-1.056 0.348,-1.812 0.36,-0.756 0.996,-1.164 0.648,-0.408 1.5,-0.408 z m -0.012,0.864 q -0.756,0 -1.2,0.492 -0.432,0.48 -0.516,1.344 h 3.276 q -0.012,-0.816 -0.384,-1.32 -0.372,-0.516 -1.176,-0.516 z m 9.923993,-2.88 q 1.596,0 2.352,0.612 0.768,0.6 0.768,1.824 0,0.684 -0.252,1.14 -0.252,0.456 -0.648,0.732 -0.384,0.264 -0.816,0.42 l 2.352,3.84 h -1.26 l -2.076,-3.54 h -1.704 V 21 h -1.08 v -8.568 z m -0.06,0.936 h -1.224 v 3.18 h 1.284 q 1.044,0 1.524,-0.408 0.48,-0.42 0.48,-1.224 0,-0.84 -0.504,-1.188 -0.504,-0.36 -1.56,-0.36 z M 56.687964,21 h -1.26 l -4.584,-7.116 h -0.048 q 0.024,0.42 0.06,1.044 0.036,0.624 0.036,1.284 V 21 h -0.996 v -8.568 h 1.248 l 4.572,7.092 h 0.048 q -0.012,-0.192 -0.036,-0.576 -0.012,-0.384 -0.036,-0.84 -0.012,-0.456 -0.012,-0.84 v -4.836 h 1.008 z m 9.120003,0 h -1.26 l -4.584,-7.116 h -0.048 q 0.024,0.42 0.06,1.044 0.036,0.624 0.036,1.284 V 21 h -0.996 v -8.568 h 1.248 l 4.572,7.092 h 0.048 q -0.012,-0.192 -0.036,-0.576 -0.012,-0.384 -0.036,-0.84 -0.012,-0.456 -0.012,-0.84 v -4.836 h 1.008 z" id="path4"></path></g>
</g>
<path id="circle41" class="st5" style="fill:#7fc142" d="m 712.3129,174.13998 a 5.7199998,5.7199998 0 0 1 -5.72,5.72 5.7199998,5.7199998 0 0 1 -5.72,-5.72 5.7199998,5.7199998 0 0 1 5.72,-5.72 5.7199998,5.7199998 0 0 1 5.72,5.72 z"></path>
<path id="circle42" class="st6" style="fill:#dd3340" d="m 712.3129,195.13998 a 5.7199998,5.7199998 0 0 1 -5.72,5.72 5.7199998,5.7199998 0 0 1 -5.72,-5.72 5.7199998,5.7199998 0 0 1 5.72,-5.72 5.7199998,5.7199998 0 0 1 5.72,5.72 z"></path>
<g id="g51" transform="translate(-279.7571,372.35999)">
 <path id="line42" class="st0" style="fill:none;stroke:#ffffff" d="m 321.70001,-174.67 h -5"></path>
 <path id="line43" class="st0" style="fill:none;stroke:#ffffff" d="m 321.70001,-194.07001 h -5"></path>
 <path id="line44" class="st0" style="fill:none;stroke:#ffffff" d="m 321.70001,-213.47 h -5"></path>
 <path id="line45" class="st0" style="fill:none;stroke:#ffffff" d="m 321.70001,-232.88 h -5"></path>
 <path id="line46" class="st0" style="fill:none;stroke:#ffffff" d="m 321.70001,-252.28 h -5"></path>
 <path id="line47" class="st0" style="fill:none;stroke:#ffffff" d="m 321.70001,-271.67999 h -5"></path>
 <path id="line48" class="st0" style="fill:none;stroke:#ffffff" d="m 321.70001,-291.07999 h -5"></path>
 <path id="line49" class="st0" style="fill:none;stroke:#ffffff" d="m 321.70001,-310.48999 h -5"></path>
 <path id="line50" class="st0" style="fill:none;stroke:#ffffff" d="m 321.70001,-329.89001 h -5"></path>
 <path id="line51" class="st0" style="fill:none;stroke:#ffffff" d="m 321.70001,-349.29001 h -5"></path>
</g>
<g transform="translate(-229.5371,372.35999)" id="g61">
 <g id="g60">
 
 <text transform="translate(239.2025,-171.0702)" style="font-size:12px;font-family:Roboto-Bold;display:none;fill:#ffffff;enable-background:new" id="text51">0.69</text>
 <path d="m 6.276,-4.296 q 0,1.38 -0.288,2.376 Q 5.7,-0.936 5.076,-0.408 4.452,0.12 3.42,0.12 1.968,0.12 1.272,-1.044 0.588,-2.22 0.588,-4.296 q 0,-1.392 0.276,-2.376 0.288,-0.984 0.912,-1.5 Q 2.4,-8.7 3.42,-8.7 q 1.44,0 2.148,1.164 0.708,1.152 0.708,3.24 z m -4.632,0 q 0,1.764 0.396,2.64 0.408,0.876 1.38,0.876 0.96,0 1.368,-0.864 0.42,-0.876 0.42,-2.652 0,-1.752 -0.42,-2.628 Q 4.38,-7.8 3.42,-7.8 q -0.972,0 -1.38,0.876 -0.396,0.876 -0.396,2.628 z m 6.084006,3.648 q 0,-0.444 0.216,-0.624 0.216,-0.18 0.516,-0.18 0.312,0 0.528,0.18 0.228,0.18 0.228,0.624 0,0.432 -0.228,0.624 -0.216,0.192 -0.528,0.192 -0.3,0 -0.516,-0.192 -0.216,-0.192 -0.216,-0.624 z m 3.011996,-3.012 q 0,-0.924 0.156,-1.812 0.168,-0.9 0.588,-1.62 0.432,-0.732 1.2,-1.164 0.768,-0.432 1.98,-0.432 0.252,0 0.552,0.024 0.312,0.024 0.504,0.084 v 0.9 q -0.216,-0.072 -0.492,-0.108 -0.264,-0.036 -0.54,-0.036 -0.828,0 -1.38,0.276 -0.552,0.276 -0.876,0.756 -0.312,0.48 -0.456,1.104 -0.144,0.624 -0.18,1.332 h 0.072 q 0.276,-0.42 0.768,-0.708 0.492,-0.3 1.26,-0.3 1.116,0 1.8,0.684 0.684,0.672 0.684,1.92 0,1.344 -0.744,2.112 -0.732,0.768 -1.98,0.768 -0.816,0 -1.476,-0.408 -0.66,-0.408 -1.056,-1.248 -0.384,-0.84 -0.384,-2.124 z m 2.904,2.892 q 0.756,0 1.224,-0.48 0.468,-0.492 0.468,-1.512 0,-0.816 -0.42,-1.296 -0.408,-0.48 -1.236,-0.48 -0.564,0 -0.984,0.24 -0.42,0.228 -0.66,0.588 -0.228,0.36 -0.228,0.744 0,0.516 0.204,1.032 0.204,0.504 0.612,0.84 0.408,0.324 1.02,0.324 z m 9.540006,-4.14 q 0,0.924 -0.168,1.824 -0.156,0.888 -0.588,1.62 -0.42,0.72 -1.2,1.152 -0.768,0.432 -1.98,0.432 -0.24,0 -0.564,-0.036 -0.312,-0.024 -0.516,-0.084 v -0.9 q 0.468,0.156 1.056,0.156 0.84,0 1.38,-0.276 0.552,-0.276 0.876,-0.744 0.324,-0.48 0.468,-1.104 0.144,-0.636 0.168,-1.332 h -0.072 q -0.264,0.408 -0.768,0.708 -0.492,0.288 -1.272,0.288 -1.104,0 -1.788,-0.672 -0.672,-0.684 -0.672,-1.92 0,-0.9 0.336,-1.548 0.348,-0.648 0.96,-0.996 0.612,-0.348 1.44,-0.348 0.816,0 1.476,0.42 0.66,0.408 1.044,1.248 0.384,0.828 0.384,2.112 z m -2.904,-2.892 q -0.744,0 -1.224,0.492 -0.468,0.492 -0.468,1.5 0,0.828 0.396,1.308 0.408,0.468 1.248,0.468 0.576,0 0.996,-0.228 0.42,-0.24 0.648,-0.6 0.24,-0.36 0.24,-0.744 0,-0.516 -0.204,-1.02 -0.204,-0.504 -0.612,-0.84 -0.408,-0.336 -1.02,-0.336 z m 6.828006,2.544 q 1.32,0 2.1,0.66 0.78,0.66 0.78,1.86 0,1.332 -0.852,2.1 -0.84,0.756 -2.352,0.756 -0.66,0 -1.248,-0.12 -0.576,-0.12 -0.972,-0.348 v -0.996 q 0.432,0.264 1.044,0.42 0.624,0.144 1.188,0.144 0.948,0 1.524,-0.444 0.588,-0.456 0.588,-1.404 0,-0.84 -0.516,-1.284 -0.516,-0.456 -1.632,-0.456 -0.336,0 -0.768,0.06 -0.432,0.06 -0.696,0.12 l -0.528,-0.336 0.324,-4.044 h 4.296 v 0.96 h -3.396 l -0.204,2.484 q 0.204,-0.036 0.552,-0.084 0.348,-0.048 0.768,-0.048 z" id="text52" style="font-size:12px;font-family:Roboto-Bold;fill:#ffffff" class="st1" transform="translate(232.6342,-190.4724)" aria-label="0.695"></path>
 
 <text transform="translate(245.7709,-209.8746)" style="font-size:12px;font-family:Roboto-Bold;display:none;fill:#ffffff;enable-background:new" id="text53">0.7</text>
 <path d="m 6.276,-4.296 q 0,1.38 -0.288,2.376 Q 5.7,-0.936 5.076,-0.408 4.452,0.12 3.42,0.12 1.968,0.12 1.272,-1.044 0.588,-2.22 0.588,-4.296 q 0,-1.392 0.276,-2.376 0.288,-0.984 0.912,-1.5 Q 2.4,-8.7 3.42,-8.7 q 1.44,0 2.148,1.164 0.708,1.152 0.708,3.24 z m -4.632,0 q 0,1.764 0.396,2.64 0.408,0.876 1.38,0.876 0.96,0 1.368,-0.864 0.42,-0.876 0.42,-2.652 0,-1.752 -0.42,-2.628 Q 4.38,-7.8 3.42,-7.8 q -0.972,0 -1.38,0.876 -0.396,0.876 -0.396,2.628 z m 6.084006,3.648 q 0,-0.444 0.216,-0.624 0.216,-0.18 0.516,-0.18 0.312,0 0.528,0.18 0.228,0.18 0.228,0.624 0,0.432 -0.228,0.624 -0.216,0.192 -0.528,0.192 -0.3,0 -0.516,-0.192 -0.216,-0.192 -0.216,-0.624 z M 11.712002,0 l 3.516,-7.608 h -4.62 v -0.96 h 5.748 v 0.816 l -3.48,7.752 z m 11.508006,-4.296 q 0,1.38 -0.288,2.376 -0.288,0.984 -0.912,1.512 -0.624,0.528 -1.656,0.528 -1.452,0 -2.148,-1.164 -0.684,-1.176 -0.684,-3.252 0,-1.392 0.276,-2.376 0.288,-0.984 0.912,-1.5 0.624,-0.528 1.644,-0.528 1.44,0 2.148,1.164 0.708,1.152 0.708,3.24 z m -4.632,0 q 0,1.764 0.396,2.64 0.408,0.876 1.38,0.876 0.96,0 1.368,-0.864 0.42,-0.876 0.42,-2.652 0,-1.752 -0.42,-2.628 -0.408,-0.876 -1.368,-0.876 -0.972,0 -1.38,0.876 -0.396,0.876 -0.396,2.628 z m 8.520006,-0.96 q 1.32,0 2.1,0.66 0.78,0.66 0.78,1.86 0,1.332 -0.852,2.1 -0.84,0.756 -2.352,0.756 -0.66,0 -1.248,-0.12 -0.576,-0.12 -0.972,-0.348 v -0.996 q 0.432,0.264 1.044,0.42 0.624,0.144 1.188,0.144 0.948,0 1.524,-0.444 0.588,-0.456 0.588,-1.404 0,-0.84 -0.516,-1.284 -0.516,-0.456 -1.632,-0.456 -0.336,0 -0.768,0.06 -0.432,0.06 -0.696,0.12 l -0.528,-0.336 0.324,-4.044 h 4.296 v 0.96 h -3.396 l -0.204,2.484 q 0.204,-0.036 0.552,-0.084 0.348,-0.048 0.768,-0.048 z" id="text54" style="font-size:12px;font-family:Roboto-Bold;fill:#ffffff" class="st1" transform="translate(232.6342,-229.2768)" aria-label="0.705"></path>
 
 <text transform="translate(239.2025,-248.6791)" style="font-size:12px;font-family:Roboto-Bold;display:none;fill:#ffffff;enable-background:new" id="text55">0.71</text>
 <path d="m 6.276,-4.296 q 0,1.38 -0.288,2.376 Q 5.7,-0.936 5.076,-0.408 4.452,0.12 3.42,0.12 1.968,0.12 1.272,-1.044 0.588,-2.22 0.588,-4.296 q 0,-1.392 0.276,-2.376 0.288,-0.984 0.912,-1.5 Q 2.4,-8.7 3.42,-8.7 q 1.44,0 2.148,1.164 0.708,1.152 0.708,3.24 z m -4.632,0 q 0,1.764 0.396,2.64 0.408,0.876 1.38,0.876 0.96,0 1.368,-0.864 0.42,-0.876 0.42,-2.652 0,-1.752 -0.42,-2.628 Q 4.38,-7.8 3.42,-7.8 q -0.972,0 -1.38,0.876 -0.396,0.876 -0.396,2.628 z m 6.084006,3.648 q 0,-0.444 0.216,-0.624 0.216,-0.18 0.516,-0.18 0.312,0 0.528,0.18 0.228,0.18 0.228,0.624 0,0.432 -0.228,0.624 -0.216,0.192 -0.528,0.192 -0.3,0 -0.516,-0.192 -0.216,-0.192 -0.216,-0.624 z M 11.712002,0 l 3.516,-7.608 h -4.62 v -0.96 h 5.748 v 0.816 l -3.48,7.752 z m 9.492006,0 h -1.032 v -5.988 q 0,-0.516 0.012,-0.828 0.012,-0.312 0.036,-0.648 -0.192,0.192 -0.348,0.324 -0.156,0.132 -0.396,0.336 l -0.912,0.744 -0.552,-0.708 2.316,-1.8 h 0.876 z m 5.904006,-5.256 q 1.32,0 2.1,0.66 0.78,0.66 0.78,1.86 0,1.332 -0.852,2.1 -0.84,0.756 -2.352,0.756 -0.66,0 -1.248,-0.12 -0.576,-0.12 -0.972,-0.348 v -0.996 q 0.432,0.264 1.044,0.42 0.624,0.144 1.188,0.144 0.948,0 1.524,-0.444 0.588,-0.456 0.588,-1.404 0,-0.84 -0.516,-1.284 -0.516,-0.456 -1.632,-0.456 -0.336,0 -0.768,0.06 -0.432,0.06 -0.696,0.12 l -0.528,-0.336 0.324,-4.044 h 4.296 v 0.96 h -3.396 l -0.204,2.484 q 0.204,-0.036 0.552,-0.084 0.348,-0.048 0.768,-0.048 z" id="text56" style="font-size:12px;font-family:Roboto-Bold;fill:#ffffff" class="st1" transform="translate(232.6342,-268.0813)" aria-label="0.715"></path>
 
 <text transform="translate(239.2025,-287.4835)" style="font-size:12px;font-family:Roboto-Bold;display:none;fill:#ffffff;enable-background:new" id="text57">0.72</text>
 <path d="m 6.276,-4.296 q 0,1.38 -0.288,2.376 Q 5.7,-0.936 5.076,-0.408 4.452,0.12 3.42,0.12 1.968,0.12 1.272,-1.044 0.588,-2.22 0.588,-4.296 q 0,-1.392 0.276,-2.376 0.288,-0.984 0.912,-1.5 Q 2.4,-8.7 3.42,-8.7 q 1.44,0 2.148,1.164 0.708,1.152 0.708,3.24 z m -4.632,0 q 0,1.764 0.396,2.64 0.408,0.876 1.38,0.876 0.96,0 1.368,-0.864 0.42,-0.876 0.42,-2.652 0,-1.752 -0.42,-2.628 Q 4.38,-7.8 3.42,-7.8 q -0.972,0 -1.38,0.876 -0.396,0.876 -0.396,2.628 z m 6.084006,3.648 q 0,-0.444 0.216,-0.624 0.216,-0.18 0.516,-0.18 0.312,0 0.528,0.18 0.228,0.18 0.228,0.624 0,0.432 -0.228,0.624 -0.216,0.192 -0.528,0.192 -0.3,0 -0.516,-0.192 -0.216,-0.192 -0.216,-0.624 z M 11.712002,0 l 3.516,-7.608 h -4.62 v -0.96 h 5.748 v 0.816 l -3.48,7.752 z m 11.472006,0 h -5.664 v -0.876 l 2.244,-2.268 q 0.648,-0.648 1.092,-1.152 0.444,-0.504 0.672,-0.984 0.228,-0.492 0.228,-1.068 0,-0.708 -0.42,-1.068 -0.42,-0.372 -1.092,-0.372 -0.624,0 -1.104,0.216 -0.468,0.216 -0.96,0.6 l -0.564,-0.708 q 0.504,-0.42 1.152,-0.708 0.66,-0.3 1.476,-0.3 1.2,0 1.896,0.612 0.696,0.6 0.696,1.668 0,0.672 -0.276,1.26 -0.276,0.588 -0.768,1.164 -0.492,0.564 -1.152,1.212 l -1.788,1.764 v 0.048 h 4.332 z m 3.924006,-5.256 q 1.32,0 2.1,0.66 0.78,0.66 0.78,1.86 0,1.332 -0.852,2.1 -0.84,0.756 -2.352,0.756 -0.66,0 -1.248,-0.12 -0.576,-0.12 -0.972,-0.348 v -0.996 q 0.432,0.264 1.044,0.42 0.624,0.144 1.188,0.144 0.948,0 1.524,-0.444 0.588,-0.456 0.588,-1.404 0,-0.84 -0.516,-1.284 -0.516,-0.456 -1.632,-0.456 -0.336,0 -0.768,0.06 -0.432,0.06 -0.696,0.12 l -0.528,-0.336 0.324,-4.044 h 4.296 v 0.96 h -3.396 l -0.204,2.484 q 0.204,-0.036 0.552,-0.084 0.348,-0.048 0.768,-0.048 z" id="text58" style="font-size:12px;font-family:Roboto-Bold;fill:#ffffff" class="st1" transform="translate(232.6342,-306.8857)" aria-label="0.725"></path>
 
 <text transform="translate(239.2025,-326.288)" style="font-size:12px;font-family:Roboto-Bold;display:none;fill:#ffffff;enable-background:new" id="text59">0.73</text>
 
 <text transform="translate(232.6342,-345.6902)" style="font-size:12px;font-family:Roboto-Bold;display:none;fill:#ffffff;enable-background:new" id="text60">0.735</text>
 </g>
</g>
<path id="line61" class="st0" style="fill:none;stroke:#ffffff" d="M 41.942913,23.069973 V 197.68999"></path>
<path id="rect61" class="st7" style="opacity:0.25;fill:none;stroke:#ffffff;stroke-miterlimit:10" d="M 41.722912,23.069973 H 310.72291 V 197.06997 H 41.722912 Z"></path>
<g id="g67" transform="translate(-279.7571,372.35999)">
 <path id="line62" class="st3" style="opacity:0.25;fill:none;stroke:#ffffff;enable-background:new" d="M 321.48001,-349.29001 V -174.67"></path>
 <path id="line63" class="st3" style="opacity:0.25;fill:none;stroke:#ffffff;enable-background:new" d="M 355.20001,-349.29001 V -174.67"></path>
 <path id="line64" class="st3" style="opacity:0.25;fill:none;stroke:#ffffff;enable-background:new" d="M 422.64999,-349.29001 V -174.67"></path>
 <path id="line65" class="st3" style="opacity:0.25;fill:none;stroke:#ffffff;enable-background:new" d="M 490.09,-349.29001 V -174.67"></path>
 <path id="line66" class="st3" style="opacity:0.25;fill:none;stroke:#ffffff;enable-background:new" d="M 557.53998,-349.29001 V -174.67"></path>
 <path id="line67" class="st3" style="opacity:0.25;fill:none;stroke:#ffffff;enable-background:new" d="M 591.26001,-349.29001 V -174.67"></path>
</g>
<path id="line68" class="st8" style="fill:none;stroke:#ffffff;stroke-width:1.5" d="M 75.442909,23.069973 V 197.68999"></path>
<path id="rect68" class="st9" style="fill:none" d="M 41.722912,197.06999 H 310.72291 v 25 H 41.722912 Z"></path>
<g transform="translate(-219.7571,546.35999)" id="g82">
 <g id="g81">
 <g id="g80">
 <g id="g74">
 <path id="line69" class="st0" style="fill:none;stroke:#ffffff" d="m 261.48001,-349.29001 v 5"></path>
 <path id="line70" class="st0" style="fill:none;stroke:#ffffff" d="m 295.20001,-349.29001 v 5"></path>
 <path id="line71" class="st0" style="fill:none;stroke:#ffffff" d="m 362.64999,-349.29001 v 5"></path>
 <path id="line72" class="st0" style="fill:none;stroke:#ffffff" d="m 430.09,-349.29001 v 5"></path>
 <path id="line73" class="st0" style="fill:none;stroke:#ffffff" d="m 497.54001,-349.29001 v 5"></path>
 <path id="line74" class="st0" style="fill:none;stroke:#ffffff" d="m 531.26001,-349.29001 v 5"></path>
 </g>
 <g transform="translate(0,8)" id="g79">
 
 <text transform="translate(243.8842,-337.8901)" style="font-size:12px;font-family:Roboto-Bold;display:none;fill:#ffffff;enable-background:new" id="text74">-500m</text>
 <path d="m 6.276,-4.296 q 0,1.38 -0.288,2.376 Q 5.7,-0.936 5.076,-0.408 4.452,0.12 3.42,0.12 1.968,0.12 1.272,-1.044 0.588,-2.22 0.588,-4.296 q 0,-1.392 0.276,-2.376 0.288,-0.984 0.912,-1.5 Q 2.4,-8.7 3.42,-8.7 q 1.44,0 2.148,1.164 0.708,1.152 0.708,3.24 z m -4.632,0 q 0,1.764 0.396,2.64 0.408,0.876 1.38,0.876 0.96,0 1.368,-0.864 0.42,-0.876 0.42,-2.652 0,-1.752 -0.42,-2.628 Q 4.38,-7.8 3.42,-7.8 q -0.972,0 -1.38,0.876 -0.396,0.876 -0.396,2.628 z" id="text75" style="font-size:12px;font-family:Roboto-Bold;fill:#ffffff" class="st1" transform="translate(291.9182,-337.8901)" aria-label="0"></path>
 <path d="M 4.26,0 H 3.228 v -5.988 q 0,-0.516 0.012,-0.828 0.012,-0.312 0.036,-0.648 -0.192,0.192 -0.348,0.324 -0.156,0.132 -0.396,0.336 L 1.62,-6.06 1.068,-6.768 3.384,-8.568 H 4.26 Z" id="text76" style="font-size:12px;font-family:Roboto-Bold;fill:#ffffff" class="st1" transform="translate(359.3632,-337.8901)" aria-label="1"></path>
 <path d="M 6.24,0 H 0.576 V -0.876 L 2.82,-3.144 Q 3.468,-3.792 3.912,-4.296 4.356,-4.8 4.584,-5.28 q 0.228,-0.492 0.228,-1.068 0,-0.708 -0.42,-1.068 -0.42,-0.372 -1.092,-0.372 -0.624,0 -1.104,0.216 -0.468,0.216 -0.96,0.6 L 0.672,-7.68 q 0.504,-0.42 1.152,-0.708 0.66,-0.3 1.476,-0.3 1.2,0 1.896,0.612 0.696,0.6 0.696,1.668 0,0.672 -0.276,1.26 Q 5.34,-4.56 4.848,-3.984 4.356,-3.42 3.696,-2.772 L 1.908,-1.008 V -0.96 H 6.24 Z" id="text77" style="font-size:12px;font-family:Roboto-Bold;fill:#ffffff" class="st1" transform="translate(426.8083,-337.8901)" aria-label="2"></path>
 <path d="m 5.916,-6.564 q 0,0.864 -0.48,1.38 -0.48,0.504 -1.296,0.672 v 0.048 q 1.032,0.12 1.536,0.648 0.504,0.528 0.504,1.38 0,0.744 -0.348,1.332 -0.348,0.576 -1.08,0.9 Q 4.032,0.12 2.892,0.12 2.22,0.12 1.644,0.012 1.068,-0.084 0.54,-0.348 v -0.984 q 0.54,0.264 1.164,0.42 0.624,0.144 1.2,0.144 1.152,0 1.656,-0.444 0.516,-0.456 0.516,-1.248 0,-0.804 -0.636,-1.152 -0.624,-0.36 -1.764,-0.36 H 1.848 v -0.9 h 0.84 q 1.056,0 1.596,-0.444 0.552,-0.444 0.552,-1.176 0,-0.624 -0.42,-0.96 Q 3.996,-7.8 3.276,-7.8 2.58,-7.8 2.088,-7.596 1.596,-7.392 1.116,-7.08 L 0.588,-7.8 q 0.456,-0.36 1.128,-0.624 0.684,-0.264 1.548,-0.264 1.344,0 1.992,0.6 0.66,0.6 0.66,1.524 z" id="text78" style="font-size:12px;font-family:Roboto-Bold;fill:#ffffff" class="st1" transform="translate(494.2532,-337.8901)" aria-label="3"></path>
 
 <text transform="translate(523.4054,-337.8901)" style="font-size:12px;font-family:Roboto-Bold;display:none;fill:#ffffff;enable-background:new" id="text79">3.5</text>
 </g>
 <path id="line79" class="st1" style="fill:#ffffff" d="m 261.48001,-349.29001 h 269.78"></path>
 </g>
 </g>
</g>
<g id="g90" transform="translate(-279.7571,372.35999)">
 <path id="line82" class="st0" style="fill:none;stroke:#ffffff" d="m 673.94,-172.58 h -5"></path>
 <path id="line83" class="st0" style="fill:none;stroke:#ffffff" d="m 673.94,-194.39999 h -5"></path>
 <path id="line84" class="st0" style="fill:none;stroke:#ffffff" d="m 673.94,-216.23 h -5"></path>
 <path id="line85" class="st0" style="fill:none;stroke:#ffffff" d="m 673.94,-238.06 h -5"></path>
 <path id="line86" class="st0" style="fill:none;stroke:#ffffff" d="m 673.94,-259.89001 h -5"></path>
 <path id="line87" class="st0" style="fill:none;stroke:#ffffff" d="m 673.94,-281.70999 h -5"></path>
 <path id="line88" class="st0" style="fill:none;stroke:#ffffff" d="m 673.94,-303.54001 h -5"></path>
 <path id="line89" class="st0" style="fill:none;stroke:#ffffff" d="m 673.94,-325.37 h -5"></path>
 <path id="line90" class="st0" style="fill:none;stroke:#ffffff" d="m 673.94,-347.20001 h -5"></path>
</g>
<g transform="translate(-229.5371,372.35999)" id="g99">
 <g id="g98">
 
 <text transform="translate(591.4458,-168.9758)" style="font-size:12px;font-family:Roboto-Bold;display:none;fill:#ffffff;enable-background:new" id="text90">0.69</text>
 <path d="m 6.276,-4.296 q 0,1.38 -0.288,2.376 Q 5.7,-0.936 5.076,-0.408 4.452,0.12 3.42,0.12 1.968,0.12 1.272,-1.044 0.588,-2.22 0.588,-4.296 q 0,-1.392 0.276,-2.376 0.288,-0.984 0.912,-1.5 Q 2.4,-8.7 3.42,-8.7 q 1.44,0 2.148,1.164 0.708,1.152 0.708,3.24 z m -4.632,0 q 0,1.764 0.396,2.64 0.408,0.876 1.38,0.876 0.96,0 1.368,-0.864 0.42,-0.876 0.42,-2.652 0,-1.752 -0.42,-2.628 Q 4.38,-7.8 3.42,-7.8 q -0.972,0 -1.38,0.876 -0.396,0.876 -0.396,2.628 z m 6.084006,3.648 q 0,-0.444 0.216,-0.624 0.216,-0.18 0.516,-0.18 0.312,0 0.528,0.18 0.228,0.18 0.228,0.624 0,0.432 -0.228,0.624 -0.216,0.192 -0.528,0.192 -0.3,0 -0.516,-0.192 -0.216,-0.192 -0.216,-0.624 z m 3.011996,-3.012 q 0,-0.924 0.156,-1.812 0.168,-0.9 0.588,-1.62 0.432,-0.732 1.2,-1.164 0.768,-0.432 1.98,-0.432 0.252,0 0.552,0.024 0.312,0.024 0.504,0.084 v 0.9 q -0.216,-0.072 -0.492,-0.108 -0.264,-0.036 -0.54,-0.036 -0.828,0 -1.38,0.276 -0.552,0.276 -0.876,0.756 -0.312,0.48 -0.456,1.104 -0.144,0.624 -0.18,1.332 h 0.072 q 0.276,-0.42 0.768,-0.708 0.492,-0.3 1.26,-0.3 1.116,0 1.8,0.684 0.684,0.672 0.684,1.92 0,1.344 -0.744,2.112 -0.732,0.768 -1.98,0.768 -0.816,0 -1.476,-0.408 -0.66,-0.408 -1.056,-1.248 -0.384,-0.84 -0.384,-2.124 z m 2.904,2.892 q 0.756,0 1.224,-0.48 0.468,-0.492 0.468,-1.512 0,-0.816 -0.42,-1.296 -0.408,-0.48 -1.236,-0.48 -0.564,0 -0.984,0.24 -0.42,0.228 -0.66,0.588 -0.228,0.36 -0.228,0.744 0,0.516 0.204,1.032 0.204,0.504 0.612,0.84 0.408,0.324 1.02,0.324 z m 9.540006,-4.14 q 0,0.924 -0.168,1.824 -0.156,0.888 -0.588,1.62 -0.42,0.72 -1.2,1.152 -0.768,0.432 -1.98,0.432 -0.24,0 -0.564,-0.036 -0.312,-0.024 -0.516,-0.084 v -0.9 q 0.468,0.156 1.056,0.156 0.84,0 1.38,-0.276 0.552,-0.276 0.876,-0.744 0.324,-0.48 0.468,-1.104 0.144,-0.636 0.168,-1.332 h -0.072 q -0.264,0.408 -0.768,0.708 -0.492,0.288 -1.272,0.288 -1.104,0 -1.788,-0.672 -0.672,-0.684 -0.672,-1.92 0,-0.9 0.336,-1.548 0.348,-0.648 0.96,-0.996 0.612,-0.348 1.44,-0.348 0.816,0 1.476,0.42 0.66,0.408 1.044,1.248 0.384,0.828 0.384,2.112 z m -2.904,-2.892 q -0.744,0 -1.224,0.492 -0.468,0.492 -0.468,1.5 0,0.828 0.396,1.308 0.408,0.468 1.248,0.468 0.576,0 0.996,-0.228 0.42,-0.24 0.648,-0.6 0.24,-0.36 0.24,-0.744 0,-0.516 -0.204,-1.02 -0.204,-0.504 -0.612,-0.84 -0.408,-0.336 -1.02,-0.336 z m 6.828006,2.544 q 1.32,0 2.1,0.66 0.78,0.66 0.78,1.86 0,1.332 -0.852,2.1 -0.84,0.756 -2.352,0.756 -0.66,0 -1.248,-0.12 -0.576,-0.12 -0.972,-0.348 v -0.996 q 0.432,0.264 1.044,0.42 0.624,0.144 1.188,0.144 0.948,0 1.524,-0.444 0.588,-0.456 0.588,-1.404 0,-0.84 -0.516,-1.284 -0.516,-0.456 -1.632,-0.456 -0.336,0 -0.768,0.06 -0.432,0.06 -0.696,0.12 l -0.528,-0.336 0.324,-4.044 h 4.296 v 0.96 h -3.396 l -0.204,2.484 q 0.204,-0.036 0.552,-0.084 0.348,-0.048 0.768,-0.048 z" id="text91" style="font-size:12px;font-family:Roboto-Bold;fill:#ffffff" class="st1" transform="translate(584.8774,-190.8033)" aria-label="0.695"></path>
 
 <text transform="translate(598.0142,-212.6308)" style="font-size:12px;font-family:Roboto-Bold;display:none;fill:#ffffff;enable-background:new" id="text92">0.7</text>
 <path d="m 6.276,-4.296 q 0,1.38 -0.288,2.376 Q 5.7,-0.936 5.076,-0.408 4.452,0.12 3.42,0.12 1.968,0.12 1.272,-1.044 0.588,-2.22 0.588,-4.296 q 0,-1.392 0.276,-2.376 0.288,-0.984 0.912,-1.5 Q 2.4,-8.7 3.42,-8.7 q 1.44,0 2.148,1.164 0.708,1.152 0.708,3.24 z m -4.632,0 q 0,1.764 0.396,2.64 0.408,0.876 1.38,0.876 0.96,0 1.368,-0.864 0.42,-0.876 0.42,-2.652 0,-1.752 -0.42,-2.628 Q 4.38,-7.8 3.42,-7.8 q -0.972,0 -1.38,0.876 -0.396,0.876 -0.396,2.628 z m 6.084006,3.648 q 0,-0.444 0.216,-0.624 0.216,-0.18 0.516,-0.18 0.312,0 0.528,0.18 0.228,0.18 0.228,0.624 0,0.432 -0.228,0.624 -0.216,0.192 -0.528,0.192 -0.3,0 -0.516,-0.192 -0.216,-0.192 -0.216,-0.624 z M 11.712002,0 l 3.516,-7.608 h -4.62 v -0.96 h 5.748 v 0.816 l -3.48,7.752 z m 11.508006,-4.296 q 0,1.38 -0.288,2.376 -0.288,0.984 -0.912,1.512 -0.624,0.528 -1.656,0.528 -1.452,0 -2.148,-1.164 -0.684,-1.176 -0.684,-3.252 0,-1.392 0.276,-2.376 0.288,-0.984 0.912,-1.5 0.624,-0.528 1.644,-0.528 1.44,0 2.148,1.164 0.708,1.152 0.708,3.24 z m -4.632,0 q 0,1.764 0.396,2.64 0.408,0.876 1.38,0.876 0.96,0 1.368,-0.864 0.42,-0.876 0.42,-2.652 0,-1.752 -0.42,-2.628 -0.408,-0.876 -1.368,-0.876 -0.972,0 -1.38,0.876 -0.396,0.876 -0.396,2.628 z m 8.520006,-0.96 q 1.32,0 2.1,0.66 0.78,0.66 0.78,1.86 0,1.332 -0.852,2.1 -0.84,0.756 -2.352,0.756 -0.66,0 -1.248,-0.12 -0.576,-0.12 -0.972,-0.348 v -0.996 q 0.432,0.264 1.044,0.42 0.624,0.144 1.188,0.144 0.948,0 1.524,-0.444 0.588,-0.456 0.588,-1.404 0,-0.84 -0.516,-1.284 -0.516,-0.456 -1.632,-0.456 -0.336,0 -0.768,0.06 -0.432,0.06 -0.696,0.12 l -0.528,-0.336 0.324,-4.044 h 4.296 v 0.96 h -3.396 l -0.204,2.484 q 0.204,-0.036 0.552,-0.084 0.348,-0.048 0.768,-0.048 z" id="text93" style="font-size:12px;font-family:Roboto-Bold;fill:#ffffff" class="st1" transform="translate(584.8774,-234.4584)" aria-label="0.705"></path>
 
 <text transform="translate(591.4458,-256.2859)" style="font-size:12px;font-family:Roboto-Bold;display:none;fill:#ffffff;enable-background:new" id="text94">0.71</text>
 <path d="m 6.276,-4.296 q 0,1.38 -0.288,2.376 Q 5.7,-0.936 5.076,-0.408 4.452,0.12 3.42,0.12 1.968,0.12 1.272,-1.044 0.588,-2.22 0.588,-4.296 q 0,-1.392 0.276,-2.376 0.288,-0.984 0.912,-1.5 Q 2.4,-8.7 3.42,-8.7 q 1.44,0 2.148,1.164 0.708,1.152 0.708,3.24 z m -4.632,0 q 0,1.764 0.396,2.64 0.408,0.876 1.38,0.876 0.96,0 1.368,-0.864 0.42,-0.876 0.42,-2.652 0,-1.752 -0.42,-2.628 Q 4.38,-7.8 3.42,-7.8 q -0.972,0 -1.38,0.876 -0.396,0.876 -0.396,2.628 z m 6.084006,3.648 q 0,-0.444 0.216,-0.624 0.216,-0.18 0.516,-0.18 0.312,0 0.528,0.18 0.228,0.18 0.228,0.624 0,0.432 -0.228,0.624 -0.216,0.192 -0.528,0.192 -0.3,0 -0.516,-0.192 -0.216,-0.192 -0.216,-0.624 z M 11.712002,0 l 3.516,-7.608 h -4.62 v -0.96 h 5.748 v 0.816 l -3.48,7.752 z m 9.492006,0 h -1.032 v -5.988 q 0,-0.516 0.012,-0.828 0.012,-0.312 0.036,-0.648 -0.192,0.192 -0.348,0.324 -0.156,0.132 -0.396,0.336 l -0.912,0.744 -0.552,-0.708 2.316,-1.8 h 0.876 z m 5.904006,-5.256 q 1.32,0 2.1,0.66 0.78,0.66 0.78,1.86 0,1.332 -0.852,2.1 -0.84,0.756 -2.352,0.756 -0.66,0 -1.248,-0.12 -0.576,-0.12 -0.972,-0.348 v -0.996 q 0.432,0.264 1.044,0.42 0.624,0.144 1.188,0.144 0.948,0 1.524,-0.444 0.588,-0.456 0.588,-1.404 0,-0.84 -0.516,-1.284 -0.516,-0.456 -1.632,-0.456 -0.336,0 -0.768,0.06 -0.432,0.06 -0.696,0.12 l -0.528,-0.336 0.324,-4.044 h 4.296 v 0.96 h -3.396 l -0.204,2.484 q 0.204,-0.036 0.552,-0.084 0.348,-0.048 0.768,-0.048 z" id="text95" style="font-size:12px;font-family:Roboto-Bold;fill:#ffffff" class="st1" transform="translate(584.8774,-278.1134)" aria-label="0.715"></path>
 
 <text transform="translate(591.4458,-299.9408)" style="font-size:12px;font-family:Roboto-Bold;display:none;fill:#ffffff;enable-background:new" id="text96">0.72</text>
 <path d="m 6.276,-4.296 q 0,1.38 -0.288,2.376 Q 5.7,-0.936 5.076,-0.408 4.452,0.12 3.42,0.12 1.968,0.12 1.272,-1.044 0.588,-2.22 0.588,-4.296 q 0,-1.392 0.276,-2.376 0.288,-0.984 0.912,-1.5 Q 2.4,-8.7 3.42,-8.7 q 1.44,0 2.148,1.164 0.708,1.152 0.708,3.24 z m -4.632,0 q 0,1.764 0.396,2.64 0.408,0.876 1.38,0.876 0.96,0 1.368,-0.864 0.42,-0.876 0.42,-2.652 0,-1.752 -0.42,-2.628 Q 4.38,-7.8 3.42,-7.8 q -0.972,0 -1.38,0.876 -0.396,0.876 -0.396,2.628 z m 6.084006,3.648 q 0,-0.444 0.216,-0.624 0.216,-0.18 0.516,-0.18 0.312,0 0.528,0.18 0.228,0.18 0.228,0.624 0,0.432 -0.228,0.624 -0.216,0.192 -0.528,0.192 -0.3,0 -0.516,-0.192 -0.216,-0.192 -0.216,-0.624 z M 11.712002,0 l 3.516,-7.608 h -4.62 v -0.96 h 5.748 v 0.816 l -3.48,7.752 z m 11.472006,0 h -5.664 v -0.876 l 2.244,-2.268 q 0.648,-0.648 1.092,-1.152 0.444,-0.504 0.672,-0.984 0.228,-0.492 0.228,-1.068 0,-0.708 -0.42,-1.068 -0.42,-0.372 -1.092,-0.372 -0.624,0 -1.104,0.216 -0.468,0.216 -0.96,0.6 l -0.564,-0.708 q 0.504,-0.42 1.152,-0.708 0.66,-0.3 1.476,-0.3 1.2,0 1.896,0.612 0.696,0.6 0.696,1.668 0,0.672 -0.276,1.26 -0.276,0.588 -0.768,1.164 -0.492,0.564 -1.152,1.212 l -1.788,1.764 v 0.048 h 4.332 z m 3.924006,-5.256 q 1.32,0 2.1,0.66 0.78,0.66 0.78,1.86 0,1.332 -0.852,2.1 -0.84,0.756 -2.352,0.756 -0.66,0 -1.248,-0.12 -0.576,-0.12 -0.972,-0.348 v -0.996 q 0.432,0.264 1.044,0.42 0.624,0.144 1.188,0.144 0.948,0 1.524,-0.444 0.588,-0.456 0.588,-1.404 0,-0.84 -0.516,-1.284 -0.516,-0.456 -1.632,-0.456 -0.336,0 -0.768,0.06 -0.432,0.06 -0.696,0.12 l -0.528,-0.336 0.324,-4.044 h 4.296 v 0.96 h -3.396 l -0.204,2.484 q 0.204,-0.036 0.552,-0.084 0.348,-0.048 0.768,-0.048 z" id="text97" style="font-size:12px;font-family:Roboto-Bold;fill:#ffffff" class="st1" transform="translate(584.8774,-321.7684)" aria-label="0.725"></path>
 
 <text transform="translate(591.4458,-343.5959)" style="font-size:12px;font-family:Roboto-Bold;display:none;fill:#ffffff;enable-background:new" id="text98">0.73</text>
 </g>
</g>
<path id="line99" class="st0" style="fill:none;stroke:#ffffff" d="M 394.18289,25.159969 V 199.77998"></path>
<path id="rect99" class="st7" style="opacity:0.25;fill:none;stroke:#ffffff;stroke-miterlimit:10" d="m 393.96286,25.159969 h 269 V 199.15997 h -269 z"></path>
<g id="g105" transform="translate(-279.7571,372.35999)">
 <path id="line100" class="st3" style="opacity:0.25;fill:none;stroke:#ffffff;enable-background:new" d="M 673.71997,-347.20001 V -172.58"></path>
 <path id="line101" class="st3" style="opacity:0.25;fill:none;stroke:#ffffff;enable-background:new" d="M 707.45001,-347.20001 V -172.58"></path>
 <path id="line102" class="st3" style="opacity:0.25;fill:none;stroke:#ffffff;enable-background:new" d="M 774.89001,-347.20001 V -172.58"></path>
 <path id="line103" class="st3" style="opacity:0.25;fill:none;stroke:#ffffff;enable-background:new" d="M 842.34003,-347.20001 V -172.58"></path>
 <path id="line104" class="st3" style="opacity:0.25;fill:none;stroke:#ffffff;enable-background:new" d="M 909.78003,-347.20001 V -172.58"></path>
 <path id="line105" class="st3" style="opacity:0.25;fill:none;stroke:#ffffff;enable-background:new" d="M 943.5,-347.20001 V -172.58"></path>
</g>
<g id="g114" transform="translate(-279.7571,372.35999)">
 <path id="line106" class="st2" style="fill:none;stroke:#ffffff;enable-background:new" d="M 673.71997,-172.58 H 943.5"></path>
 <path id="line107" class="st3" style="opacity:0.25;fill:none;stroke:#ffffff;enable-background:new" d="M 673.71997,-194.39999 H 943.5"></path>
 <path id="line108" class="st3" style="opacity:0.25;fill:none;stroke:#ffffff;enable-background:new" d="M 673.71997,-216.23 H 943.5"></path>
 <path id="line109" class="st3" style="opacity:0.25;fill:none;stroke:#ffffff;enable-background:new" d="M 673.71997,-238.06 H 943.5"></path>
 <path id="line110" class="st3" style="opacity:0.25;fill:none;stroke:#ffffff;enable-background:new" d="M 673.71997,-259.89001 H 943.5"></path>
 <path id="line111" class="st3" style="opacity:0.25;fill:none;stroke:#ffffff;enable-background:new" d="M 673.71997,-281.70999 H 943.5"></path>
 <path id="line112" class="st3" style="opacity:0.25;fill:none;stroke:#ffffff;enable-background:new" d="M 673.71997,-303.54001 H 943.5"></path>
 <path id="line113" class="st3" style="opacity:0.25;fill:none;stroke:#ffffff;enable-background:new" d="M 673.71997,-325.37 H 943.5"></path>
 <path id="line114" class="st3" style="opacity:0.25;fill:none;stroke:#ffffff;enable-background:new" d="M 673.71997,-347.20001 H 943.5"></path>
</g>
<path id="line115" class="st8" style="fill:none;stroke:#ffffff;stroke-width:1.5" d="M 427.6929,25.159969 V 199.77998"></path>
<path id="rect115" class="st9" style="fill:none" d="m 393.96286,199.15999 h 269 v 25 h -269 z"></path>
<g transform="translate(-219.7571,546.35999)" id="g129">
 <g id="g128">
 <g id="g127">
 <g id="g121">
 <path id="line116" class="st0" style="fill:none;stroke:#ffffff" d="m 613.71997,-347.20001 v 5"></path>
 <path id="line117" class="st0" style="fill:none;stroke:#ffffff" d="m 647.45001,-347.20001 v 5"></path>
 <path id="line118" class="st0" style="fill:none;stroke:#ffffff" d="m 714.89001,-347.20001 v 5"></path>
 <path id="line119" class="st0" style="fill:none;stroke:#ffffff" d="m 782.34003,-347.20001 v 5"></path>
 <path id="line120" class="st0" style="fill:none;stroke:#ffffff" d="m 849.78003,-347.20001 v 5"></path>
 <path id="line121" class="st0" style="fill:none;stroke:#ffffff" d="m 883.5,-347.20001 v 5"></path>
 </g>
 <g transform="translate(0,8)" id="g126">
 
 <text transform="translate(596.1274,-335.7959)" style="font-size:12px;font-family:Roboto-Bold;display:none;fill:#ffffff;enable-background:new" id="text121">-500m</text>
 <path d="m 6.276,-4.296 q 0,1.38 -0.288,2.376 Q 5.7,-0.936 5.076,-0.408 4.452,0.12 3.42,0.12 1.968,0.12 1.272,-1.044 0.588,-2.22 0.588,-4.296 q 0,-1.392 0.276,-2.376 0.288,-0.984 0.912,-1.5 Q 2.4,-8.7 3.42,-8.7 q 1.44,0 2.148,1.164 0.708,1.152 0.708,3.24 z m -4.632,0 q 0,1.764 0.396,2.64 0.408,0.876 1.38,0.876 0.96,0 1.368,-0.864 0.42,-0.876 0.42,-2.652 0,-1.752 -0.42,-2.628 Q 4.38,-7.8 3.42,-7.8 q -0.972,0 -1.38,0.876 -0.396,0.876 -0.396,2.628 z" id="text122" style="font-size:12px;font-family:Roboto-Bold;fill:#ffffff" class="st1" transform="translate(644.1614,-335.7959)" aria-label="0"></path>
 <path d="M 4.26,0 H 3.228 v -5.988 q 0,-0.516 0.012,-0.828 0.012,-0.312 0.036,-0.648 -0.192,0.192 -0.348,0.324 -0.156,0.132 -0.396,0.336 L 1.62,-6.06 1.068,-6.768 3.384,-8.568 H 4.26 Z" id="text123" style="font-size:12px;font-family:Roboto-Bold;fill:#ffffff" class="st1" transform="translate(711.6064,-335.7959)" aria-label="1"></path>
 <path d="M 6.24,0 H 0.576 V -0.876 L 2.82,-3.144 Q 3.468,-3.792 3.912,-4.296 4.356,-4.8 4.584,-5.28 q 0.228,-0.492 0.228,-1.068 0,-0.708 -0.42,-1.068 -0.42,-0.372 -1.092,-0.372 -0.624,0 -1.104,0.216 -0.468,0.216 -0.96,0.6 L 0.672,-7.68 q 0.504,-0.42 1.152,-0.708 0.66,-0.3 1.476,-0.3 1.2,0 1.896,0.612 0.696,0.6 0.696,1.668 0,0.672 -0.276,1.26 Q 5.34,-4.56 4.848,-3.984 4.356,-3.42 3.696,-2.772 L 1.908,-1.008 V -0.96 H 6.24 Z" id="text124" style="font-size:12px;font-family:Roboto-Bold;fill:#ffffff" class="st1" transform="translate(779.0514,-335.7959)" aria-label="2"></path>
 <path d="m 5.916,-6.564 q 0,0.864 -0.48,1.38 -0.48,0.504 -1.296,0.672 v 0.048 q 1.032,0.12 1.536,0.648 0.504,0.528 0.504,1.38 0,0.744 -0.348,1.332 -0.348,0.576 -1.08,0.9 Q 4.032,0.12 2.892,0.12 2.22,0.12 1.644,0.012 1.068,-0.084 0.54,-0.348 v -0.984 q 0.54,0.264 1.164,0.42 0.624,0.144 1.2,0.144 1.152,0 1.656,-0.444 0.516,-0.456 0.516,-1.248 0,-0.804 -0.636,-1.152 -0.624,-0.36 -1.764,-0.36 H 1.848 v -0.9 h 0.84 q 1.056,0 1.596,-0.444 0.552,-0.444 0.552,-1.176 0,-0.624 -0.42,-0.96 Q 3.996,-7.8 3.276,-7.8 2.58,-7.8 2.088,-7.596 1.596,-7.392 1.116,-7.08 L 0.588,-7.8 q 0.456,-0.36 1.128,-0.624 0.684,-0.264 1.548,-0.264 1.344,0 1.992,0.6 0.66,0.6 0.66,1.524 z" id="text125" style="font-size:12px;font-family:Roboto-Bold;fill:#ffffff" class="st1" transform="translate(846.4965,-335.7959)" aria-label="3"></path>
 
 <text transform="translate(875.6486,-335.7959)" style="font-size:12px;font-family:Roboto-Bold;display:none;fill:#ffffff;enable-background:new" id="text126">3.5</text>
 </g>
 <path id="line126" class="st1" style="fill:#ffffff" d="M 613.71997,-347.20001 H 883.5"></path>
 </g>
 </g>
</g>
<g id="g140" transform="translate(-279.7571,372.35999)">
 <path id="line129" class="st0" style="fill:none;stroke:#ffffff" d="m 316.85001,84.739998 h -5"></path>
 <path id="line130" class="st0" style="fill:none;stroke:#ffffff" d="m 316.85001,68.660004 h -5"></path>
 <path id="line131" class="st0" style="fill:none;stroke:#ffffff" d="m 316.85001,52.580002 h -5"></path>
 <path id="line132" class="st0" style="fill:none;stroke:#ffffff" d="m 316.85001,36.5 h -5"></path>
 <path id="line133" class="st0" style="fill:none;stroke:#ffffff" d="m 316.85001,20.42 h -5"></path>
 <path id="line134" class="st0" style="fill:none;stroke:#ffffff" d="m 316.85001,4.3299999 h -5"></path>
 <path id="line135" class="st0" style="fill:none;stroke:#ffffff" d="m 316.85001,-11.75 h -5"></path>
 <path id="line136" class="st0" style="fill:none;stroke:#ffffff" d="m 316.85001,-27.83 h -5"></path>
 <path id="line137" class="st0" style="fill:none;stroke:#ffffff" d="m 316.85001,-43.91 h -5"></path>
 <path id="line138" class="st0" style="fill:none;stroke:#ffffff" d="m 316.85001,-59.990002 h -5"></path>
 <path id="line139" class="st0" style="fill:none;stroke:#ffffff" d="m 316.85001,-76.07 h -5"></path>
 <path id="line140" class="st0" style="fill:none;stroke:#ffffff" d="m 316.85001,-92.160004 h -5"></path>
</g>
<g transform="translate(-248.6081,372.35999)" id="g152">
 <g id="g151">
 
 <text transform="translate(259.9875,88.3438)" style="font-size:12px;font-family:Roboto-Bold;display:none;fill:#ffffff;enable-background:new" id="text140">5.4</text>
 <path d="m 3.3,-5.256 q 1.32,0 2.1,0.66 0.78,0.66 0.78,1.86 0,1.332 -0.852,2.1 Q 4.488,0.12 2.976,0.12 2.316,0.12 1.728,0 1.152,-0.12 0.756,-0.348 v -0.996 q 0.432,0.264 1.044,0.42 0.624,0.144 1.188,0.144 0.948,0 1.524,-0.444 Q 5.1,-1.68 5.1,-2.628 q 0,-0.84 -0.516,-1.284 -0.516,-0.456 -1.632,-0.456 -0.336,0 -0.768,0.06 -0.432,0.06 -0.696,0.12 L 0.96,-4.524 1.284,-8.568 H 5.58 v 0.96 H 2.184 L 1.98,-5.124 Q 2.184,-5.16 2.532,-5.208 2.88,-5.256 3.3,-5.256 Z m 4.428006,4.608 q 0,-0.444 0.216,-0.624 0.216,-0.18 0.516,-0.18 0.312,0 0.528,0.18 0.228,0.18 0.228,0.624 0,0.432 -0.228,0.624 -0.216,0.192 -0.528,0.192 -0.3,0 -0.516,-0.192 -0.216,-0.192 -0.216,-0.624 z m 5.651996,-4.608 q 1.32,0 2.1,0.66 0.78,0.66 0.78,1.86 0,1.332 -0.852,2.1 -0.84,0.756 -2.352,0.756 -0.66,0 -1.248,-0.12 -0.576,-0.12 -0.972,-0.348 v -0.996 q 0.432,0.264 1.044,0.42 0.624,0.144 1.188,0.144 0.948,0 1.524,-0.444 0.588,-0.456 0.588,-1.404 0,-0.84 -0.516,-1.284 -0.516,-0.456 -1.632,-0.456 -0.336,0 -0.768,0.06 -0.432,0.06 -0.696,0.12 l -0.528,-0.336 0.324,-4.044 h 4.296 v 0.96 h -3.396 l -0.204,2.484 q 0.204,-0.036 0.552,-0.084 0.348,-0.048 0.768,-0.048 z" id="text141" style="font-size:12px;font-family:Roboto-Bold;fill:#ffffff" class="st1" transform="translate(259.9875,72.2618)" aria-label="5.5"></path>
 
 <text transform="translate(259.9875,56.1801)" style="font-size:12px;font-family:Roboto-Bold;display:none;fill:#ffffff;enable-background:new" id="text142">5.6</text>
 <path d="m 3.3,-5.256 q 1.32,0 2.1,0.66 0.78,0.66 0.78,1.86 0,1.332 -0.852,2.1 Q 4.488,0.12 2.976,0.12 2.316,0.12 1.728,0 1.152,-0.12 0.756,-0.348 v -0.996 q 0.432,0.264 1.044,0.42 0.624,0.144 1.188,0.144 0.948,0 1.524,-0.444 Q 5.1,-1.68 5.1,-2.628 q 0,-0.84 -0.516,-1.284 -0.516,-0.456 -1.632,-0.456 -0.336,0 -0.768,0.06 -0.432,0.06 -0.696,0.12 L 0.96,-4.524 1.284,-8.568 H 5.58 v 0.96 H 2.184 L 1.98,-5.124 Q 2.184,-5.16 2.532,-5.208 2.88,-5.256 3.3,-5.256 Z m 4.428006,4.608 q 0,-0.444 0.216,-0.624 0.216,-0.18 0.516,-0.18 0.312,0 0.528,0.18 0.228,0.18 0.228,0.624 0,0.432 -0.228,0.624 -0.216,0.192 -0.528,0.192 -0.3,0 -0.516,-0.192 -0.216,-0.192 -0.216,-0.624 z M 11.712002,0 l 3.516,-7.608 h -4.62 v -0.96 h 5.748 v 0.816 l -3.48,7.752 z" id="text143" style="font-size:12px;font-family:Roboto-Bold;fill:#ffffff" class="st1" transform="translate(259.9875,40.0983)" aria-label="5.7"></path>
 
 <text transform="translate(259.9875,24.0165)" style="font-size:12px;font-family:Roboto-Bold;display:none;fill:#ffffff;enable-background:new" id="text144">5.8</text>
 <path d="m 3.3,-5.256 q 1.32,0 2.1,0.66 0.78,0.66 0.78,1.86 0,1.332 -0.852,2.1 Q 4.488,0.12 2.976,0.12 2.316,0.12 1.728,0 1.152,-0.12 0.756,-0.348 v -0.996 q 0.432,0.264 1.044,0.42 0.624,0.144 1.188,0.144 0.948,0 1.524,-0.444 Q 5.1,-1.68 5.1,-2.628 q 0,-0.84 -0.516,-1.284 -0.516,-0.456 -1.632,-0.456 -0.336,0 -0.768,0.06 -0.432,0.06 -0.696,0.12 L 0.96,-4.524 1.284,-8.568 H 5.58 v 0.96 H 2.184 L 1.98,-5.124 Q 2.184,-5.16 2.532,-5.208 2.88,-5.256 3.3,-5.256 Z m 4.428006,4.608 q 0,-0.444 0.216,-0.624 0.216,-0.18 0.516,-0.18 0.312,0 0.528,0.18 0.228,0.18 0.228,0.624 0,0.432 -0.228,0.624 -0.216,0.192 -0.528,0.192 -0.3,0 -0.516,-0.192 -0.216,-0.192 -0.216,-0.624 z m 8.591996,-4.26 q 0,0.924 -0.168,1.824 -0.156,0.888 -0.588,1.62 -0.42,0.72 -1.2,1.152 -0.768,0.432 -1.98,0.432 -0.24,0 -0.564,-0.036 -0.312,-0.024 -0.516,-0.084 v -0.9 q 0.468,0.156 1.056,0.156 0.84,0 1.38,-0.276 0.552,-0.276 0.876,-0.744 0.324,-0.48 0.468,-1.104 0.144,-0.636 0.168,-1.332 h -0.072 q -0.264,0.408 -0.768,0.708 -0.492,0.288 -1.272,0.288 -1.104,0 -1.788,-0.672 -0.672,-0.684 -0.672,-1.92 0,-0.9 0.336,-1.548 0.348,-0.648 0.96,-0.996 0.612,-0.348 1.44,-0.348 0.816,0 1.476,0.42 0.66,0.408 1.044,1.248 0.384,0.828 0.384,2.112 z m -2.904,-2.892 q -0.744,0 -1.224,0.492 -0.468,0.492 -0.468,1.5 0,0.828 0.396,1.308 0.408,0.468 1.248,0.468 0.576,0 0.996,-0.228 0.42,-0.24 0.648,-0.6 0.24,-0.36 0.24,-0.744 0,-0.516 -0.204,-1.02 -0.204,-0.504 -0.612,-0.84 -0.408,-0.336 -1.02,-0.336 z" id="text145" style="font-size:12px;font-family:Roboto-Bold;fill:#ffffff" class="st1" transform="translate(259.9875,7.9346)" aria-label="5.9"></path>
 
 <text transform="translate(269.1281,-8.1472)" style="font-size:12px;font-family:Roboto-Bold;display:none;fill:#ffffff;enable-background:new" id="text146">6</text>
 <path d="m 0.66,-3.66 q 0,-0.924 0.156,-1.812 0.168,-0.9 0.588,-1.62 0.432,-0.732 1.2,-1.164 0.768,-0.432 1.98,-0.432 0.252,0 0.552,0.024 0.312,0.024 0.504,0.084 v 0.9 Q 5.424,-7.752 5.148,-7.788 4.884,-7.824 4.608,-7.824 q -0.828,0 -1.38,0.276 -0.552,0.276 -0.876,0.756 -0.312,0.48 -0.456,1.104 -0.144,0.624 -0.18,1.332 h 0.072 q 0.276,-0.42 0.768,-0.708 0.492,-0.3 1.26,-0.3 1.116,0 1.8,0.684 0.684,0.672 0.684,1.92 0,1.344 -0.744,2.112 Q 4.824,0.12 3.576,0.12 2.76,0.12 2.1,-0.288 1.44,-0.696 1.044,-1.536 0.66,-2.376 0.66,-3.66 Z m 2.904,2.892 q 0.756,0 1.224,-0.48 0.468,-0.492 0.468,-1.512 0,-0.816 -0.42,-1.296 -0.408,-0.48 -1.236,-0.48 -0.564,0 -0.984,0.24 -0.42,0.228 -0.66,0.588 -0.228,0.36 -0.228,0.744 0,0.516 0.204,1.032 0.204,0.504 0.612,0.84 0.408,0.324 1.02,0.324 z m 4.164006,0.12 q 0,-0.444 0.216,-0.624 0.216,-0.18 0.516,-0.18 0.312,0 0.528,0.18 0.228,0.18 0.228,0.624 0,0.432 -0.228,0.624 -0.216,0.192 -0.528,0.192 -0.3,0 -0.516,-0.192 -0.216,-0.192 -0.216,-0.624 z M 14.340002,0 h -1.032 v -5.988 q 0,-0.516 0.012,-0.828 0.012,-0.312 0.036,-0.648 -0.192,0.192 -0.348,0.324 -0.156,0.132 -0.396,0.336 l -0.912,0.744 -0.552,-0.708 2.316,-1.8 h 0.876 z" id="text147" style="font-size:12px;font-family:Roboto-Bold;fill:#ffffff" class="st1" transform="translate(259.9875,-24.229)" aria-label="6.1"></path>
 
 <text transform="translate(259.9875,-40.3108)" style="font-size:12px;font-family:Roboto-Bold;display:none;fill:#ffffff;enable-background:new" id="text148">6.2</text>
 <path d="m 0.66,-3.66 q 0,-0.924 0.156,-1.812 0.168,-0.9 0.588,-1.62 0.432,-0.732 1.2,-1.164 0.768,-0.432 1.98,-0.432 0.252,0 0.552,0.024 0.312,0.024 0.504,0.084 v 0.9 Q 5.424,-7.752 5.148,-7.788 4.884,-7.824 4.608,-7.824 q -0.828,0 -1.38,0.276 -0.552,0.276 -0.876,0.756 -0.312,0.48 -0.456,1.104 -0.144,0.624 -0.18,1.332 h 0.072 q 0.276,-0.42 0.768,-0.708 0.492,-0.3 1.26,-0.3 1.116,0 1.8,0.684 0.684,0.672 0.684,1.92 0,1.344 -0.744,2.112 Q 4.824,0.12 3.576,0.12 2.76,0.12 2.1,-0.288 1.44,-0.696 1.044,-1.536 0.66,-2.376 0.66,-3.66 Z m 2.904,2.892 q 0.756,0 1.224,-0.48 0.468,-0.492 0.468,-1.512 0,-0.816 -0.42,-1.296 -0.408,-0.48 -1.236,-0.48 -0.564,0 -0.984,0.24 -0.42,0.228 -0.66,0.588 -0.228,0.36 -0.228,0.744 0,0.516 0.204,1.032 0.204,0.504 0.612,0.84 0.408,0.324 1.02,0.324 z m 4.164006,0.12 q 0,-0.444 0.216,-0.624 0.216,-0.18 0.516,-0.18 0.312,0 0.528,0.18 0.228,0.18 0.228,0.624 0,0.432 -0.228,0.624 -0.216,0.192 -0.528,0.192 -0.3,0 -0.516,-0.192 -0.216,-0.192 -0.216,-0.624 z m 8.267996,-5.916 q 0,0.864 -0.48,1.38 -0.48,0.504 -1.296,0.672 v 0.048 q 1.032,0.12 1.536,0.648 0.504,0.528 0.504,1.38 0,0.744 -0.348,1.332 -0.348,0.576 -1.08,0.9 -0.72,0.324 -1.86,0.324 -0.672,0 -1.248,-0.108 -0.576,-0.096 -1.104,-0.36 v -0.984 q 0.54,0.264 1.164,0.42 0.624,0.144 1.2,0.144 1.152,0 1.656,-0.444 0.516,-0.456 0.516,-1.248 0,-0.804 -0.636,-1.152 -0.624,-0.36 -1.764,-0.36 h -0.828 v -0.9 h 0.84 q 1.056,0 1.596,-0.444 0.552,-0.444 0.552,-1.176 0,-0.624 -0.42,-0.96 -0.42,-0.348 -1.14,-0.348 -0.696,0 -1.188,0.204 -0.492,0.204 -0.972,0.516 l -0.528,-0.72 q 0.456,-0.36 1.128,-0.624 0.684,-0.264 1.548,-0.264 1.344,0 1.992,0.6 0.66,0.6 0.66,1.524 z" id="text149" style="font-size:12px;font-family:Roboto-Bold;fill:#ffffff" class="st1" transform="translate(259.9875,-56.3926)" aria-label="6.3"></path>
 
 <text transform="translate(259.9875,-72.4745)" style="font-size:12px;font-family:Roboto-Bold;display:none;fill:#ffffff;enable-background:new" id="text150">6.4</text>
 
 <text transform="translate(259.9875,-88.5563)" style="font-size:12px;font-family:Roboto-Bold;display:none;fill:#ffffff;enable-background:new" id="text151">6.5</text>
 </g>
</g>
<path id="line152" class="st0" style="fill:none;stroke:#ffffff" d="m 37.092907,280.19998 v 176.9"></path>
<path id="rect152" class="st7" style="opacity:0.25;fill:none;stroke:#ffffff;stroke-miterlimit:10" d="M 36.942913,280.19998 H 324.94291 v 176 H 36.942913 Z"></path>
<g class="st10" id="g158" transform="translate(-279.7571,372.35999)">
 <path id="line153" class="st3" style="opacity:0.25;fill:none;stroke:#ffffff;enable-background:new" d="M 316.70001,-92.160004 V 84.739998"></path>
 <path id="line154" class="st3" style="opacity:0.25;fill:none;stroke:#ffffff;enable-background:new" d="M 352.79999,-92.160004 V 84.739998"></path>
 <path id="line155" class="st3" style="opacity:0.25;fill:none;stroke:#ffffff;enable-background:new" d="M 425.01999,-92.160004 V 84.739998"></path>
 <path id="line156" class="st3" style="opacity:0.25;fill:none;stroke:#ffffff;enable-background:new" d="M 497.23001,-92.160004 V 84.739998"></path>
 <path id="line157" class="st3" style="opacity:0.25;fill:none;stroke:#ffffff;enable-background:new" d="M 569.44,-92.160004 V 84.739998"></path>
 <path id="line158" class="st3" style="opacity:0.25;fill:none;stroke:#ffffff;enable-background:new" d="M 605.54999,-92.160004 V 84.739998"></path>
</g>
<path id="line159" class="st8" style="fill:none;stroke:#ffffff;stroke-width:1.5" d="m 73.042885,280.19998 v 176.9"></path>
<path id="rect159" class="st9" style="fill:none" d="M 36.942913,456.19998 H 324.94291 v 23 H 36.942913 Z"></path>
<g transform="translate(-238.7571,548.35999)" id="g173">
 <g id="g172">
 <g id="g171">
 <g class="st11" id="g165">
 <path id="line160" class="st0" style="fill:none;stroke:#ffffff" d="m 275.70001,-92.160004 v 5"></path>
 <path id="line161" class="st0" style="fill:none;stroke:#ffffff" d="m 311.79999,-92.160004 v 5"></path>
 <path id="line162" class="st0" style="fill:none;stroke:#ffffff" d="m 384.01999,-92.160004 v 5"></path>
 <path id="line163" class="st0" style="fill:none;stroke:#ffffff" d="m 456.23001,-92.160004 v 5"></path>
 <path id="line164" class="st0" style="fill:none;stroke:#ffffff" d="m 528.44,-92.160004 v 5"></path>
 <path id="line165" class="st0" style="fill:none;stroke:#ffffff" d="m 564.54999,-92.160004 v 5"></path>
 </g>
 <g transform="translate(0,8)" id="g170">
 
 <text transform="translate(258.1007,-80.7563)" style="font-size:12px;font-family:Roboto-Bold;display:none;fill:#ffffff;enable-background:new" id="text165">-500m</text>
 <path d="m 6.276,-4.296 q 0,1.38 -0.288,2.376 Q 5.7,-0.936 5.076,-0.408 4.452,0.12 3.42,0.12 1.968,0.12 1.272,-1.044 0.588,-2.22 0.588,-4.296 q 0,-1.392 0.276,-2.376 0.288,-0.984 0.912,-1.5 Q 2.4,-8.7 3.42,-8.7 q 1.44,0 2.148,1.164 0.708,1.152 0.708,3.24 z m -4.632,0 q 0,1.764 0.396,2.64 0.408,0.876 1.38,0.876 0.96,0 1.368,-0.864 0.42,-0.876 0.42,-2.652 0,-1.752 -0.42,-2.628 Q 4.38,-7.8 3.42,-7.8 q -0.972,0 -1.38,0.876 -0.396,0.876 -0.396,2.628 z" id="text166" style="font-size:12px;font-family:Roboto-Bold;fill:#ffffff" class="st1" transform="translate(308.5187,-80.7563)" aria-label="0"></path>
 <path d="M 4.26,0 H 3.228 v -5.988 q 0,-0.516 0.012,-0.828 0.012,-0.312 0.036,-0.648 -0.192,0.192 -0.348,0.324 -0.156,0.132 -0.396,0.336 L 1.62,-6.06 1.068,-6.768 3.384,-8.568 H 4.26 Z" id="text167" style="font-size:12px;font-family:Roboto-Bold;fill:#ffffff" class="st1" transform="translate(380.7315,-80.7563)" aria-label="1"></path>
 <path d="M 6.24,0 H 0.576 V -0.876 L 2.82,-3.144 Q 3.468,-3.792 3.912,-4.296 4.356,-4.8 4.584,-5.28 q 0.228,-0.492 0.228,-1.068 0,-0.708 -0.42,-1.068 -0.42,-0.372 -1.092,-0.372 -0.624,0 -1.104,0.216 -0.468,0.216 -0.96,0.6 L 0.672,-7.68 q 0.504,-0.42 1.152,-0.708 0.66,-0.3 1.476,-0.3 1.2,0 1.896,0.612 0.696,0.6 0.696,1.668 0,0.672 -0.276,1.26 Q 5.34,-4.56 4.848,-3.984 4.356,-3.42 3.696,-2.772 L 1.908,-1.008 V -0.96 H 6.24 Z" id="text168" style="font-size:12px;font-family:Roboto-Bold;fill:#ffffff" class="st1" transform="translate(452.9442,-80.7563)" aria-label="2"></path>
 <path d="m 5.916,-6.564 q 0,0.864 -0.48,1.38 -0.48,0.504 -1.296,0.672 v 0.048 q 1.032,0.12 1.536,0.648 0.504,0.528 0.504,1.38 0,0.744 -0.348,1.332 -0.348,0.576 -1.08,0.9 Q 4.032,0.12 2.892,0.12 2.22,0.12 1.644,0.012 1.068,-0.084 0.54,-0.348 v -0.984 q 0.54,0.264 1.164,0.42 0.624,0.144 1.2,0.144 1.152,0 1.656,-0.444 0.516,-0.456 0.516,-1.248 0,-0.804 -0.636,-1.152 -0.624,-0.36 -1.764,-0.36 H 1.848 v -0.9 h 0.84 q 1.056,0 1.596,-0.444 0.552,-0.444 0.552,-1.176 0,-0.624 -0.42,-0.96 Q 3.996,-7.8 3.276,-7.8 2.58,-7.8 2.088,-7.596 1.596,-7.392 1.116,-7.08 L 0.588,-7.8 q 0.456,-0.36 1.128,-0.624 0.684,-0.264 1.548,-0.264 1.344,0 1.992,0.6 0.66,0.6 0.66,1.524 z" id="text169" style="font-size:12px;font-family:Roboto-Bold;fill:#ffffff" class="st1" transform="translate(525.1569,-80.7563)" aria-label="3"></path>
 
 <text transform="translate(556.693,-80.7563)" style="font-size:12px;font-family:Roboto-Bold;display:none;fill:#ffffff;enable-background:new" id="text170">3.5</text>
 </g>
 <path id="line170" class="st1" style="fill:#ffffff" d="M 275.70001,-92.160004 H 564.54999"></path>
 </g>
 </g>
</g>
<g id="g183" transform="translate(-279.7571,372.35999)">
 <path id="line173" class="st0" style="fill:none;stroke:#ffffff" d="m 667.37,84.739998 h -5"></path>
 <path id="line174" class="st0" style="fill:none;stroke:#ffffff" d="m 667.37,67.050003 h -5"></path>
 <path id="line175" class="st0" style="fill:none;stroke:#ffffff" d="m 667.37,49.360001 h -5"></path>
 <path id="line176" class="st0" style="fill:none;stroke:#ffffff" d="m 667.37,31.67 h -5"></path>
 <path id="line177" class="st0" style="fill:none;stroke:#ffffff" d="m 667.37,13.98 h -5"></path>
 <path id="line178" class="st0" style="fill:none;stroke:#ffffff" d="m 667.37,-3.71 h -5"></path>
 <path id="line179" class="st0" style="fill:none;stroke:#ffffff" d="m 667.37,-21.4 h -5"></path>
 <path id="line180" class="st0" style="fill:none;stroke:#ffffff" d="m 667.37,-39.09 h -5"></path>
 <path id="line181" class="st0" style="fill:none;stroke:#ffffff" d="m 667.37,-56.779999 h -5"></path>
 <path id="line182" class="st0" style="fill:none;stroke:#ffffff" d="m 667.37,-74.470001 h -5"></path>
 <path id="line183" class="st0" style="fill:none;stroke:#ffffff" d="m 667.37,-92.160004 h -5"></path>
</g>
<g transform="translate(-238.2251,372.35999)" id="g194">
 <g id="g193">
 
 <text transform="translate(593.5649,88.3438)" style="font-size:12px;font-family:Roboto-Bold;display:none;fill:#ffffff;enable-background:new" id="text183">6.35</text>
 <path d="m 0.66,-3.66 q 0,-0.924 0.156,-1.812 0.168,-0.9 0.588,-1.62 0.432,-0.732 1.2,-1.164 0.768,-0.432 1.98,-0.432 0.252,0 0.552,0.024 0.312,0.024 0.504,0.084 v 0.9 Q 5.424,-7.752 5.148,-7.788 4.884,-7.824 4.608,-7.824 q -0.828,0 -1.38,0.276 -0.552,0.276 -0.876,0.756 -0.312,0.48 -0.456,1.104 -0.144,0.624 -0.18,1.332 h 0.072 q 0.276,-0.42 0.768,-0.708 0.492,-0.3 1.26,-0.3 1.116,0 1.8,0.684 0.684,0.672 0.684,1.92 0,1.344 -0.744,2.112 Q 4.824,0.12 3.576,0.12 2.76,0.12 2.1,-0.288 1.44,-0.696 1.044,-1.536 0.66,-2.376 0.66,-3.66 Z m 2.904,2.892 q 0.756,0 1.224,-0.48 0.468,-0.492 0.468,-1.512 0,-0.816 -0.42,-1.296 -0.408,-0.48 -1.236,-0.48 -0.564,0 -0.984,0.24 -0.42,0.228 -0.66,0.588 -0.228,0.36 -0.228,0.744 0,0.516 0.204,1.032 0.204,0.504 0.612,0.84 0.408,0.324 1.02,0.324 z m 4.164006,0.12 q 0,-0.444 0.216,-0.624 0.216,-0.18 0.516,-0.18 0.312,0 0.528,0.18 0.228,0.18 0.228,0.624 0,0.432 -0.228,0.624 -0.216,0.192 -0.528,0.192 -0.3,0 -0.516,-0.192 -0.216,-0.192 -0.216,-0.624 z m 8.975996,-1.296 h -1.248 V 0 h -1.02 v -1.944 h -4.104 v -0.9 l 4.032,-5.772 h 1.092 v 5.724 h 1.248 z m -2.268,-3.648 q 0,-0.624 0.024,-1.056 0.024,-0.444 0.036,-0.84 h -0.048 q -0.096,0.228 -0.24,0.492 -0.144,0.264 -0.276,0.444 l -2.568,3.66 h 3.072 z" id="text184" style="font-size:12px;font-family:Roboto-Bold;fill:#ffffff" class="st1" transform="translate(600.1333,70.6537)" aria-label="6.4"></path>
 
 <text transform="translate(593.5649,52.9638)" style="font-size:12px;font-family:Roboto-Bold;display:none;fill:#ffffff;enable-background:new" id="text185">6.45</text>
 <path d="m 0.66,-3.66 q 0,-0.924 0.156,-1.812 0.168,-0.9 0.588,-1.62 0.432,-0.732 1.2,-1.164 0.768,-0.432 1.98,-0.432 0.252,0 0.552,0.024 0.312,0.024 0.504,0.084 v 0.9 Q 5.424,-7.752 5.148,-7.788 4.884,-7.824 4.608,-7.824 q -0.828,0 -1.38,0.276 -0.552,0.276 -0.876,0.756 -0.312,0.48 -0.456,1.104 -0.144,0.624 -0.18,1.332 h 0.072 q 0.276,-0.42 0.768,-0.708 0.492,-0.3 1.26,-0.3 1.116,0 1.8,0.684 0.684,0.672 0.684,1.92 0,1.344 -0.744,2.112 Q 4.824,0.12 3.576,0.12 2.76,0.12 2.1,-0.288 1.44,-0.696 1.044,-1.536 0.66,-2.376 0.66,-3.66 Z m 2.904,2.892 q 0.756,0 1.224,-0.48 0.468,-0.492 0.468,-1.512 0,-0.816 -0.42,-1.296 -0.408,-0.48 -1.236,-0.48 -0.564,0 -0.984,0.24 -0.42,0.228 -0.66,0.588 -0.228,0.36 -0.228,0.744 0,0.516 0.204,1.032 0.204,0.504 0.612,0.84 0.408,0.324 1.02,0.324 z m 4.164006,0.12 q 0,-0.444 0.216,-0.624 0.216,-0.18 0.516,-0.18 0.312,0 0.528,0.18 0.228,0.18 0.228,0.624 0,0.432 -0.228,0.624 -0.216,0.192 -0.528,0.192 -0.3,0 -0.516,-0.192 -0.216,-0.192 -0.216,-0.624 z m 5.651996,-4.608 q 1.32,0 2.1,0.66 0.78,0.66 0.78,1.86 0,1.332 -0.852,2.1 -0.84,0.756 -2.352,0.756 -0.66,0 -1.248,-0.12 -0.576,-0.12 -0.972,-0.348 v -0.996 q 0.432,0.264 1.044,0.42 0.624,0.144 1.188,0.144 0.948,0 1.524,-0.444 0.588,-0.456 0.588,-1.404 0,-0.84 -0.516,-1.284 -0.516,-0.456 -1.632,-0.456 -0.336,0 -0.768,0.06 -0.432,0.06 -0.696,0.12 l -0.528,-0.336 0.324,-4.044 h 4.296 v 0.96 h -3.396 l -0.204,2.484 q 0.204,-0.036 0.552,-0.084 0.348,-0.048 0.768,-0.048 z" id="text186" style="font-size:12px;font-family:Roboto-Bold;fill:#ffffff" class="st1" transform="translate(600.1333,35.2737)" aria-label="6.5"></path>
 
 <text transform="translate(593.5649,17.5837)" style="font-size:12px;font-family:Roboto-Bold;display:none;fill:#ffffff;enable-background:new" id="text187">6.55</text>
 <path d="m 0.66,-3.66 q 0,-0.924 0.156,-1.812 0.168,-0.9 0.588,-1.62 0.432,-0.732 1.2,-1.164 0.768,-0.432 1.98,-0.432 0.252,0 0.552,0.024 0.312,0.024 0.504,0.084 v 0.9 Q 5.424,-7.752 5.148,-7.788 4.884,-7.824 4.608,-7.824 q -0.828,0 -1.38,0.276 -0.552,0.276 -0.876,0.756 -0.312,0.48 -0.456,1.104 -0.144,0.624 -0.18,1.332 h 0.072 q 0.276,-0.42 0.768,-0.708 0.492,-0.3 1.26,-0.3 1.116,0 1.8,0.684 0.684,0.672 0.684,1.92 0,1.344 -0.744,2.112 Q 4.824,0.12 3.576,0.12 2.76,0.12 2.1,-0.288 1.44,-0.696 1.044,-1.536 0.66,-2.376 0.66,-3.66 Z m 2.904,2.892 q 0.756,0 1.224,-0.48 0.468,-0.492 0.468,-1.512 0,-0.816 -0.42,-1.296 -0.408,-0.48 -1.236,-0.48 -0.564,0 -0.984,0.24 -0.42,0.228 -0.66,0.588 -0.228,0.36 -0.228,0.744 0,0.516 0.204,1.032 0.204,0.504 0.612,0.84 0.408,0.324 1.02,0.324 z m 4.164006,0.12 q 0,-0.444 0.216,-0.624 0.216,-0.18 0.516,-0.18 0.312,0 0.528,0.18 0.228,0.18 0.228,0.624 0,0.432 -0.228,0.624 -0.216,0.192 -0.528,0.192 -0.3,0 -0.516,-0.192 -0.216,-0.192 -0.216,-0.624 z m 3.011996,-3.012 q 0,-0.924 0.156,-1.812 0.168,-0.9 0.588,-1.62 0.432,-0.732 1.2,-1.164 0.768,-0.432 1.98,-0.432 0.252,0 0.552,0.024 0.312,0.024 0.504,0.084 v 0.9 q -0.216,-0.072 -0.492,-0.108 -0.264,-0.036 -0.54,-0.036 -0.828,0 -1.38,0.276 -0.552,0.276 -0.876,0.756 -0.312,0.48 -0.456,1.104 -0.144,0.624 -0.18,1.332 h 0.072 q 0.276,-0.42 0.768,-0.708 0.492,-0.3 1.26,-0.3 1.116,0 1.8,0.684 0.684,0.672 0.684,1.92 0,1.344 -0.744,2.112 -0.732,0.768 -1.98,0.768 -0.816,0 -1.476,-0.408 -0.66,-0.408 -1.056,-1.248 -0.384,-0.84 -0.384,-2.124 z m 2.904,2.892 q 0.756,0 1.224,-0.48 0.468,-0.492 0.468,-1.512 0,-0.816 -0.42,-1.296 -0.408,-0.48 -1.236,-0.48 -0.564,0 -0.984,0.24 -0.42,0.228 -0.66,0.588 -0.228,0.36 -0.228,0.744 0,0.516 0.204,1.032 0.204,0.504 0.612,0.84 0.408,0.324 1.02,0.324 z" id="text188" style="font-size:12px;font-family:Roboto-Bold;fill:#ffffff" class="st1" transform="translate(600.1333,-0.1063)" aria-label="6.6"></path>
 
 <text transform="translate(593.5649,-17.7963)" style="font-size:12px;font-family:Roboto-Bold;display:none;fill:#ffffff;enable-background:new" id="text189">6.65</text>
 <path d="m 0.66,-3.66 q 0,-0.924 0.156,-1.812 0.168,-0.9 0.588,-1.62 0.432,-0.732 1.2,-1.164 0.768,-0.432 1.98,-0.432 0.252,0 0.552,0.024 0.312,0.024 0.504,0.084 v 0.9 Q 5.424,-7.752 5.148,-7.788 4.884,-7.824 4.608,-7.824 q -0.828,0 -1.38,0.276 -0.552,0.276 -0.876,0.756 -0.312,0.48 -0.456,1.104 -0.144,0.624 -0.18,1.332 h 0.072 q 0.276,-0.42 0.768,-0.708 0.492,-0.3 1.26,-0.3 1.116,0 1.8,0.684 0.684,0.672 0.684,1.92 0,1.344 -0.744,2.112 Q 4.824,0.12 3.576,0.12 2.76,0.12 2.1,-0.288 1.44,-0.696 1.044,-1.536 0.66,-2.376 0.66,-3.66 Z m 2.904,2.892 q 0.756,0 1.224,-0.48 0.468,-0.492 0.468,-1.512 0,-0.816 -0.42,-1.296 -0.408,-0.48 -1.236,-0.48 -0.564,0 -0.984,0.24 -0.42,0.228 -0.66,0.588 -0.228,0.36 -0.228,0.744 0,0.516 0.204,1.032 0.204,0.504 0.612,0.84 0.408,0.324 1.02,0.324 z m 4.164006,0.12 q 0,-0.444 0.216,-0.624 0.216,-0.18 0.516,-0.18 0.312,0 0.528,0.18 0.228,0.18 0.228,0.624 0,0.432 -0.228,0.624 -0.216,0.192 -0.528,0.192 -0.3,0 -0.516,-0.192 -0.216,-0.192 -0.216,-0.624 z M 11.712002,0 l 3.516,-7.608 h -4.62 v -0.96 h 5.748 v 0.816 l -3.48,7.752 z" id="text190" style="font-size:12px;font-family:Roboto-Bold;fill:#ffffff" class="st1" transform="translate(600.1333,-35.4863)" aria-label="6.7"></path>
 
 <text transform="translate(593.5649,-53.1763)" style="font-size:12px;font-family:Roboto-Bold;display:none;fill:#ffffff;enable-background:new" id="text191">6.75</text>
 <path d="m 0.66,-3.66 q 0,-0.924 0.156,-1.812 0.168,-0.9 0.588,-1.62 0.432,-0.732 1.2,-1.164 0.768,-0.432 1.98,-0.432 0.252,0 0.552,0.024 0.312,0.024 0.504,0.084 v 0.9 Q 5.424,-7.752 5.148,-7.788 4.884,-7.824 4.608,-7.824 q -0.828,0 -1.38,0.276 -0.552,0.276 -0.876,0.756 -0.312,0.48 -0.456,1.104 -0.144,0.624 -0.18,1.332 h 0.072 q 0.276,-0.42 0.768,-0.708 0.492,-0.3 1.26,-0.3 1.116,0 1.8,0.684 0.684,0.672 0.684,1.92 0,1.344 -0.744,2.112 Q 4.824,0.12 3.576,0.12 2.76,0.12 2.1,-0.288 1.44,-0.696 1.044,-1.536 0.66,-2.376 0.66,-3.66 Z m 2.904,2.892 q 0.756,0 1.224,-0.48 0.468,-0.492 0.468,-1.512 0,-0.816 -0.42,-1.296 -0.408,-0.48 -1.236,-0.48 -0.564,0 -0.984,0.24 -0.42,0.228 -0.66,0.588 -0.228,0.36 -0.228,0.744 0,0.516 0.204,1.032 0.204,0.504 0.612,0.84 0.408,0.324 1.02,0.324 z m 4.164006,0.12 q 0,-0.444 0.216,-0.624 0.216,-0.18 0.516,-0.18 0.312,0 0.528,0.18 0.228,0.18 0.228,0.624 0,0.432 -0.228,0.624 -0.216,0.192 -0.528,0.192 -0.3,0 -0.516,-0.192 -0.216,-0.192 -0.216,-0.624 z m 5.771996,-8.04 q 1.128,0 1.848,0.528 0.72,0.528 0.72,1.524 0,0.516 -0.228,0.9 -0.216,0.384 -0.588,0.684 -0.372,0.288 -0.816,0.516 0.528,0.252 0.96,0.576 0.432,0.312 0.684,0.732 0.264,0.42 0.264,1.008 0,1.08 -0.768,1.716 -0.756,0.624 -2.04,0.624 -1.38,0 -2.124,-0.6 -0.744,-0.612 -0.744,-1.704 0,-0.588 0.24,-1.02 0.252,-0.432 0.66,-0.744 0.408,-0.312 0.876,-0.528 -0.624,-0.36 -1.068,-0.864 -0.432,-0.516 -0.432,-1.308 0,-0.66 0.336,-1.104 0.336,-0.456 0.912,-0.696 0.576,-0.24 1.308,-0.24 z m -0.012,0.852 q -0.66,0 -1.092,0.324 -0.42,0.312 -0.42,0.912 0,0.444 0.204,0.744 0.216,0.3 0.576,0.516 0.36,0.204 0.792,0.396 0.624,-0.264 1.044,-0.636 0.432,-0.372 0.432,-1.02 0,-0.6 -0.42,-0.912 -0.42,-0.324 -1.116,-0.324 z m -1.788,5.664 q 0,0.624 0.444,1.044 0.444,0.408 1.368,0.408 0.876,0 1.332,-0.408 0.468,-0.42 0.468,-1.08 0,-0.624 -0.492,-1.032 -0.492,-0.42 -1.308,-0.732 l -0.192,-0.072 q -0.792,0.336 -1.212,0.78 -0.408,0.432 -0.408,1.092 z" id="text192" style="font-size:12px;font-family:Roboto-Bold;fill:#ffffff" class="st1" transform="translate(600.1333,-70.8663)" aria-label="6.8"></path>
 
 <text transform="translate(593.5649,-88.5563)" style="font-size:12px;font-family:Roboto-Bold;display:none;fill:#ffffff;enable-background:new" id="text193">6.85</text>
 </g>
</g>
<path id="line194" class="st0" style="fill:none;stroke:#ffffff" d="m 387.61288,280.19998 v 176.9"></path>
<path id="rect194" class="st7" style="opacity:0.25;fill:none;stroke:#ffffff;stroke-miterlimit:10" d="m 387.08292,280.19998 h 278 v 176 h -278 z"></path>
<g id="g200" transform="translate(-279.7571,372.35999)">
 <path id="line195" class="st3" style="opacity:0.25;fill:none;stroke:#ffffff;enable-background:new" d="M 666.84003,-92.160004 V 84.739998"></path>
 <path id="line196" class="st3" style="opacity:0.25;fill:none;stroke:#ffffff;enable-background:new" d="M 701.65002,-92.160004 V 84.739998"></path>
 <path id="line197" class="st3" style="opacity:0.25;fill:none;stroke:#ffffff;enable-background:new" d="M 771.27002,-92.160004 V 84.739998"></path>
 <path id="line198" class="st3" style="opacity:0.25;fill:none;stroke:#ffffff;enable-background:new" d="M 840.88,-92.160004 V 84.739998"></path>
 <path id="line199" class="st3" style="opacity:0.25;fill:none;stroke:#ffffff;enable-background:new" d="M 910.5,-92.160004 V 84.739998"></path>
 <path id="line200" class="st3" style="opacity:0.25;fill:none;stroke:#ffffff;enable-background:new" d="M 945.31,-92.160004 V 84.739998"></path>
</g>
<g id="g211" transform="translate(-279.7571,372.35999)">
 <path id="line201" class="st2" style="fill:none;stroke:#ffffff;enable-background:new" d="M 666.84003,84.739998 H 945.31"></path>
 <path id="line202" class="st3" style="opacity:0.25;fill:none;stroke:#ffffff;enable-background:new" d="M 666.84003,67.050003 H 945.31"></path>
 <path id="line203" class="st3" style="opacity:0.25;fill:none;stroke:#ffffff;enable-background:new" d="M 666.84003,49.360001 H 945.31"></path>
 <path id="line204" class="st3" style="opacity:0.25;fill:none;stroke:#ffffff;enable-background:new" d="M 666.84003,31.67 H 945.31"></path>
 <path id="line205" class="st3" style="opacity:0.25;fill:none;stroke:#ffffff;enable-background:new" d="M 666.84003,13.98 H 945.31"></path>
 <path id="line206" class="st3" style="opacity:0.25;fill:none;stroke:#ffffff;enable-background:new" d="M 666.84003,-3.71 H 945.31"></path>
 <path id="line207" class="st3" style="opacity:0.25;fill:none;stroke:#ffffff;enable-background:new" d="M 666.84003,-21.4 H 945.31"></path>
 <path id="line208" class="st3" style="opacity:0.25;fill:none;stroke:#ffffff;enable-background:new" d="M 666.84003,-39.09 H 945.31"></path>
 <path id="line209" class="st3" style="opacity:0.25;fill:none;stroke:#ffffff;enable-background:new" d="M 666.84003,-56.779999 H 945.31"></path>
 <path id="line210" class="st3" style="opacity:0.25;fill:none;stroke:#ffffff;enable-background:new" d="M 666.84003,-74.470001 H 945.31"></path>
 <path id="line211" class="st3" style="opacity:0.25;fill:none;stroke:#ffffff;enable-background:new" d="M 666.84003,-92.160004 H 945.31"></path>
</g>
<path id="line212" class="st8" style="fill:none;stroke:#ffffff;stroke-width:1.5" d="m 421.89291,280.19998 v 176.9"></path>
<g id="g215" transform="translate(-279.7571,372.35999)">
 <path class="st12" d="m 355.2,-256.52 67.45,-48.96 67.45,-14.9 67.45,-7.94" id="path212"></path>
 <path class="st12" d="m 707.45,-268.78 67.45,-64.51 67.45,24.39 67.44,-22.13" id="path213"></path>
 <path class="st12" d="m 352.8,23.4 72.21,28.22 72.21,13.01 72.21,6.49" id="path214"></path>
 <path class="st12" d="m 701.65,51.48 69.62,14.53 69.62,10.25 69.62,-17.29" id="path215"></path>
</g>
<g id="g219" transform="translate(-279.7571,372.35999)">
 <path class="st13" d="m 355.2,-188.76 67.45,-44.69 67.45,-13.4 67.45,-7.43" id="path216"></path>
 <path class="st13" d="m 707.45,-195.23 67.45,-31.75 67.45,-12.24 67.44,-27.22" id="path217"></path>
 <path class="st13" d="m 352.8,-83.45 72.21,80.53 72.21,13.9 72.21,5.07" id="path218"></path>
 <path class="st13" d="m 701.65,-81.91 69.62,63.41 69.62,-6.75 69.61,25.43" id="path219"></path>
</g>
<path id="rect219" class="st9" style="fill:none" d="m 387.08292,456.19998 h 278 v 23 h -278 z"></path>
</svg> 