<svg xmlns="http://www.w3.org/2000/svg" version="1.1" xmlns:xlink="http://www.w3.org/1999/xlink" viewBox="0 -26.14 90.31344 90.31344" width="90.313438" height="90.313438">
  <style>
    @media (prefers-color-scheme: light) { :root { filter: none; } }
    @media (prefers-color-scheme: dark) { :root { filter: none; } }
  </style>
  <path d="m 72.484311,7.3524328 h -18.30331 c -0.800577,0 -1.551824,0.390717 -2.01077,1.047475 L 36.072776,25.725406 19.285283,25.757606 C 18.187495,21.535062 14.378002,18.394844 9.817016,18.394844 4.403913,18.394844 0,22.79753 0,28.21186 c 0,5.414331 4.403913,9.817017 9.817016,9.817017 4.560986,0 8.370479,-3.140218 9.468267,-7.362762 l 18.064932,-0.0322 c 0.800578,-6.85e-4 1.551825,-0.390717 2.01077,-1.047476 L 55.458441,12.260942 h 17.02587 c 1.355239,0 2.454254,-1.097788 2.454254,-2.4542542 0,-1.356467 -1.099015,-2.454255 -2.454254,-2.454255 z" id="SvgjsPath1006" style="fill:#b87333;fill-opacity:1;stroke-width:2.45425"></path>
  <path d="m 71.028158,12.271271 c 1.097788,4.222544 4.907281,7.362762 9.46827,7.362762 5.4131,0 9.81701,-4.402686 9.81701,-9.8170162 C 90.313438,4.4026858 85.909528,0 80.496428,0 75.935439,0 72.125946,3.1402178 71.028158,7.3627618" style="fill:#b87333;fill-opacity:1;stroke-width:2.45425" id="SvgjsPath1005"></path>
</svg>
