<?xml version="1.0" encoding="UTF-8" standalone="no"?>
<svg
   version="1.1"
   x="0px"
   y="0px"
   viewBox="0 0 90.31344 38.028878"
   width="90.313438"
   height="38.028877"
   id="svg1"
   sodipodi:docname="favicon_original.svg"
   inkscape:version="1.4.2 (ebf0e940d0, 2025-05-08)"
   xmlns:inkscape="http://www.inkscape.org/namespaces/inkscape"
   xmlns:sodipodi="http://sodipodi.sourceforge.net/DTD/sodipodi-0.dtd"
   xmlns="http://www.w3.org/2000/svg"
   xmlns:svg="http://www.w3.org/2000/svg">
  <defs
     id="defs1" />
  <sodipodi:namedview
     id="namedview1"
     pagecolor="#ffffff"
     bordercolor="#000000"
     borderopacity="0.25"
     inkscape:showpageshadow="2"
     inkscape:pageopacity="0.0"
     inkscape:pagecheckerboard="0"
     inkscape:deskcolor="#d1d1d1"
     inkscape:zoom="11.56044"
     inkscape:cx="48.095055"
     inkscape:cy="24.220531"
     inkscape:window-width="2560"
     inkscape:window-height="1052"
     inkscape:window-x="0"
     inkscape:window-y="0"
     inkscape:window-maximized="1"
     inkscape:current-layer="svg1" />
  <path
     d="m 72.484311,7.3524328 h -18.30331 c -0.800577,0 -1.551824,0.390717 -2.01077,1.047475 L 36.072776,25.725406 19.285283,25.757606 C 18.187495,21.535062 14.378002,18.394844 9.817016,18.394844 4.403913,18.394844 0,22.79753 0,28.21186 c 0,5.414331 4.403913,9.817017 9.817016,9.817017 4.560986,0 8.370479,-3.140218 9.468267,-7.362762 l 18.064932,-0.0322 c 0.800578,-6.85e-4 1.551825,-0.390717 2.01077,-1.047476 L 55.458441,12.260942 h 17.02587 c 1.355239,0 2.454254,-1.097788 2.454254,-2.4542542 0,-1.356467 -1.099015,-2.454255 -2.454254,-2.454255 z"
     id="path1"
     style="fill:#b87333;fill-opacity:1;stroke-width:2.45425"
     sodipodi:nodetypes="sscccsssccccsss" />
  <path
     d="m 71.028158,12.271271 c 1.097788,4.222544 4.907281,7.362762 9.46827,7.362762 5.4131,0 9.81701,-4.402686 9.81701,-9.8170162 C 90.313438,4.4026858 85.909528,0 80.496428,0 75.935439,0 72.125946,3.1402178 71.028158,7.3627618"
     style="fill:#b87333;fill-opacity:1;stroke-width:2.45425"
     id="path1-1"
     sodipodi:nodetypes="csssc" />
</svg>
