<?xml version="1.0" encoding="UTF-8" standalone="no"?>
<svg
   version="1.1"
   viewBox="0 -26.14 90.31344 90.31344"
   width="90.313438"
   height="90.313438"
   id="svg1"
   sodipodi:docname="novo2.svg"
   inkscape:version="1.4.2 (ebf0e940d0, 2025-05-08)"
   xmlns:inkscape="http://www.inkscape.org/namespaces/inkscape"
   xmlns:sodipodi="http://sodipodi.sourceforge.net/DTD/sodipodi-0.dtd"
   xmlns="http://www.w3.org/2000/svg"
   xmlns:svg="http://www.w3.org/2000/svg">
  <defs
     id="defs1" />
  <sodipodi:namedview
     id="namedview1"
     pagecolor="#ffffff"
     bordercolor="#000000"
     borderopacity="0.25"
     inkscape:showpageshadow="2"
     inkscape:pageopacity="0.0"
     inkscape:pagecheckerboard="0"
     inkscape:deskcolor="#d1d1d1"
     inkscape:zoom="8.0000001"
     inkscape:cx="83.499999"
     inkscape:cy="42"
     inkscape:window-width="2560"
     inkscape:window-height="1052"
     inkscape:window-x="0"
     inkscape:window-y="0"
     inkscape:window-maximized="1"
     inkscape:current-layer="svg1"
     showguides="true" />
  <path
     id="SvgjsPath1006"
     style="fill:#b87333;fill-opacity:1;stroke:#b87333;stroke-width:2.4684;stroke-opacity:1"
     d="M 77.873934,-16.368775 A 11.067806,11.067806 0 0 0 67.147786,-8.0268476 H 54.245729 c -0.805194,0 -1.562817,0.3923751 -2.02441,1.0529202 L 34.357662,41.034298 23.269808,41.062704 A 11.067806,11.067806 0 0 0 12.437611,32.266277 11.067806,11.067806 0 0 0 1.3705903,43.333299 11.067806,11.067806 0 0 0 12.437611,54.402214 11.067806,11.067806 0 0 0 23.178909,45.999686 l 12.462709,-0.03029 c 0.805195,-6.9e-4 1.562818,-0.392374 2.02441,-1.05292 L 55.529685,-3.0898648 H 67.030374 A 11.067806,11.067806 0 0 0 77.873934,5.7671612 11.067806,11.067806 0 0 0 88.942848,-5.3017541 11.067806,11.067806 0 0 0 77.873934,-16.368775 Z" />
</svg>
