<svg xmlns="http://www.w3.org/2000/svg" xmlns:xlink="http://www.w3.org/1999/xlink" version="1.1" x="0px" y="0px" viewBox="0 0 80 100" style="enable-background:new 0 0 80 80;" xml:space="preserve"><g><path d="M67,47H50.4893l-6.6997-8.6138C43.6001,38.1426,43.3086,38,43,38H19.8579c-0.4473-1.7202-1.9995-3-3.8579-3   c-2.2056,0-4,1.7944-4,4c0,2.2061,1.7944,4,4,4c1.8584,0,3.4106-1.2795,3.8579-3h22.6528l5.4443,7H40   c-0.3262,0-0.6323,0.1592-0.8193,0.4268L32.4795,57H19.8579c-0.4473-1.7205-1.9995-3-3.8579-3c-2.2056,0-4,1.7939-4,4s1.7944,4,4,4   c1.8584,0,3.4106-1.2795,3.8579-3H33c0.3262,0,0.6323-0.1592,0.8193-0.4268L40.5205,49H67c0.5522,0,1-0.4473,1-1S67.5522,47,67,47z    M16,41c-1.103,0-2-0.897-2-2s0.897-2,2-2s2,0.897,2,2S17.103,41,16,41z M16,60c-1.103,0-2-0.8975-2-2s0.897-2,2-2s2,0.8975,2,2   S17.103,60,16,60z"/><path d="M13,32h27c0.3086,0,0.6001-0.1426,0.7896-0.3862L47.4893,23h12.6528c0.4473,1.7202,1.9995,3,3.8579,3   c2.2056,0,4-1.7944,4-4s-1.7944-4-4-4c-1.8584,0-3.4106,1.2798-3.8579,3H47c-0.3086,0-0.6001,0.1426-0.7896,0.3862L39.5107,30H13   c-0.5522,0-1,0.4478-1,1S12.4478,32,13,32z M64,20c1.103,0,2,0.897,2,2s-0.897,2-2,2s-2-0.897-2-2S62.897,20,64,20z"/><path d="M34,49c0.5522,0,1-0.4473,1-1s-0.4478-1-1-1H13c-0.5522,0-1,0.4473-1,1s0.4478,1,1,1H34z"/><path d="M67,38H50c-0.5522,0-1,0.4478-1,1s0.4478,1,1,1h17c0.5522,0,1-0.4478,1-1S67.5522,38,67,38z"/><path d="M67,30H52.8579c-0.4473-1.7202-1.9995-3-3.8579-3c-2.2056,0-4,1.7944-4,4s1.7944,4,4,4c1.8584,0,3.4106-1.2798,3.8579-3H67   c0.5522,0,1-0.4478,1-1S67.5522,30,67,30z M49,33c-1.103,0-2-0.897-2-2s0.897-2,2-2s2,0.897,2,2S50.103,33,49,33z"/><path d="M67,57H45.8579c-0.4473-1.7205-1.9995-3-3.8579-3c-2.2056,0-4,1.7939-4,4s1.7944,4,4,4c1.8584,0,3.4106-1.2795,3.8579-3H67   c0.5522,0,1-0.4473,1-1S67.5522,57,67,57z M42,60c-1.103,0-2-0.8975-2-2s0.897-2,2-2s2,0.8975,2,2S43.103,60,42,60z"/><path d="M13,23h20.1421c0.4473,1.7202,1.9995,3,3.8579,3c2.2056,0,4-1.7944,4-4s-1.7944-4-4-4c-1.8584,0-3.4106,1.2798-3.8579,3H13   c-0.5522,0-1,0.4478-1,1S12.4478,23,13,23z M37,20c1.103,0,2,0.897,2,2s-0.897,2-2,2s-2-0.897-2-2S35.897,20,37,20z"/></g><text x="0" y="95" fill="#000000" font-size="5px" font-weight="bold" font-family="'Helvetica Neue', Helvetica, Arial-Unicode, Arial, Sans-serif">Created by Icon Lauk</text><text x="0" y="100" fill="#000000" font-size="5px" font-weight="bold" font-family="'Helvetica Neue', Helvetica, Arial-Unicode, Arial, Sans-serif">from the Noun Project</text></svg>