<?xml version="1.0" encoding="UTF-8" standalone="no"?>
<svg
   version="1.1"
   viewBox="0 0 1583 1582"
   width="20"
   height="20"
   id="svg1"
   sodipodi:docname="linkedin.svg"
   inkscape:version="1.4.2 (ebf0e940d0, 2025-05-08)"
   xmlns:inkscape="http://www.inkscape.org/namespaces/inkscape"
   xmlns:sodipodi="http://sodipodi.sourceforge.net/DTD/sodipodi-0.dtd"
   xmlns="http://www.w3.org/2000/svg"
   xmlns:svg="http://www.w3.org/2000/svg">
  <defs
     id="defs1" />
  <sodipodi:namedview
     id="namedview1"
     pagecolor="#ffffff"
     bordercolor="#000000"
     borderopacity="0.25"
     inkscape:showpageshadow="2"
     inkscape:pageopacity="0.0"
     inkscape:pagecheckerboard="0"
     inkscape:deskcolor="#d1d1d1"
     inkscape:zoom="41.2"
     inkscape:cx="9.9878641"
     inkscape:cy="10"
     inkscape:window-width="2560"
     inkscape:window-height="1052"
     inkscape:window-x="0"
     inkscape:window-y="0"
     inkscape:window-maximized="1"
     inkscape:current-layer="svg1" />
  <path
     id="path1901"
     d="m1467.7 0h-1347.9c-64.5 0-119.2 51-119.2 113.8v1353.4c0 62.9 35.9 113.9 100.4 113.9h1347.9c64.5 0 133.4-51 133.4-113.9v-1353.4c0-62.8-50-113.8-114.6-113.8z"
     style="fill:none" />
  <path
     id="path1903"
     d="m 1582.3,113.8 v 1353.4 c 0,62.9 -68.9,113.9 -133.4,113.9 H 101 c -64.5,0 -100.4,-51 -100.4,-113.9 V 113.8 C 0.6,51 55.3,0 119.8,0 h 1347.9 c 64.6,0 114.6,51 114.6,113.8 z M 603.1,1355.2 h 226 V 993.6 c 0,-126.2 54.1,-203.1 167.7,-203.1 93.6,0 133.6,87.9 133.6,188 v 376.7 h 225.9 V 937.3 c 0,-223.6 -63.5,-344.4 -291,-344.4 -118.6,0 -214.4,59.4 -246.9,117.9 h -2.3 V 602.3 h -213 z m -376.6,0 h 226 V 602.3 h -226 z M 439.4,239.1 c -26.5,-26.5 -62.4,-41.3 -99.9,-41.3 -37.4,0 -73.3,14.9 -99.8,41.3 -26.5,26.5 -41.3,62.4 -41.3,99.8 0,37.4 14.9,73.3 41.3,99.8 26.5,26.5 62.5,41.3 99.9,41.3 37.4,0 73.4,-14.9 99.8,-41.3 26.5,-26.5 41.4,-62.4 41.3,-99.9 0,-37.4 -14.9,-73.3 -41.3,-99.7 z"
     style="fill:currentColor" />
</svg>
